<?xml version="1.0" encoding="utf-8"?>
<!-- Generator: Adobe Illustrator 26.0.0, SVG Export Plug-In . SVG Version: 6.00 Build 0)  -->
<svg version="1.1" id="Layer_3" xmlns="http://www.w3.org/2000/svg" xmlns:xlink="http://www.w3.org/1999/xlink" x="0px" y="0px"
	 viewBox="0 0 512 512" style="enable-background:new 0 0 512 512;" xml:space="preserve">
<style type="text/css">
	.st0{fill:#FFFFFF;}
</style>
<g>
	<g id="Layer_x0020_1_35_">
		<g id="_313889976">
			<path id="_313890528" class="st0" d="M114.2,318.1v142.3c0,2.6-2.1,4.8-4.8,4.8H49.2c-2.6,0-4.8-2.1-4.8-4.8V318.1
				c-4.9-4-9.1-8.9-12-14.6c-3.2-6.2-5-13.2-5-20.6v-8.1c0-2.6,2.1-4.8,4.8-4.8h94.2c2.6,0,4.8,2.1,4.8,4.8v8.1
				c0,7.4-1.8,14.4-5,20.6C123.2,309.1,119.1,314.1,114.2,318.1z M104.7,455.6V315.7v0c0-1.5,0.7-2.9,2-3.9c0.2-0.2,0.5-0.3,0.7-0.5
				c4.3-3.2,7.9-7.4,10.4-12.2c2.5-4.9,3.9-10.4,3.9-16.3v-3.3H37v3.3c0,5.9,1.4,11.4,3.9,16.3c2.6,5,6.3,9.3,10.8,12.5
				c1.4,0.8,2.3,2.3,2.3,4.1v139.9H104.7z"/>
			<path id="_313890576" class="st0" d="M109.9,193v81.8h-9.5v-84.1v0c0-1.5,0.7-2.9,2-3.9c3.7-2.4,7.3-6.8,9.3-10.7
				c2.1-4.1,3.3-8.7,3.3-13.6v-2.2H43.7v2.2c0,4.9,1.2,9.5,3.3,13.6c2.2,4.2,5.3,7.7,9,10.5c1.4,0.8,2.3,2.3,2.3,4.1v84.1h-9.5V193
				c-4.2-3.4-7.7-7.7-10.2-12.5c-2.8-5.4-4.4-11.5-4.4-18v-6.9c0-2.6,2.1-4.8,4.8-4.8h80.8c2.6,0,4.8,2.1,4.8,4.8v6.9
				c0,6.5-1.6,12.6-4.4,18C117.6,185.3,114.1,189.6,109.9,193L109.9,193z"/>
			<path id="_313889544" class="st0" d="M50.2,101.2l25-42.5c1.3-2.3,4.2-3,6.5-1.7c0.9,0.5,1.5,1.2,1.9,2.1l25,42.5
				c0.5,0.8,0.7,1.6,0.7,2.5v51.6h-9.5v-50.4L79.3,70.4l-20.4,34.8v50.4h-9.5v-51.7C49.4,102.9,49.7,101.9,50.2,101.2z"/>
			<path id="_313889736" class="st0" d="M247.7,276.6c-3.8,9.4-17.4,17.6-31.6,26.1c-22.8,13.7-47,28.2-43.1,53.4
				c0.7,4.5,1.2,4.9,3.1,9l16.3,34.7c1.1,2.4,3.9,3.4,6.3,2.3c2.4-1.1,3.4-3.9,2.3-6.3l-15.7-33.4c-1.8-3.9-2.9-5.6-3.1-10
				c-0.7-17.9,19.5-30.1,38.7-41.6c13.2-7.9,25.9-15.5,32.5-25c6.6,9.5,19.4,17.1,32.5,25c19.2,11.5,39.5,23.6,38.7,41.6
				c-0.2,4.4-1.3,6.2-3.1,10l-15.7,33.4c-1.1,2.4-0.1,5.2,2.3,6.3c2.4,1.1,5.2,0.1,6.3-2.3l16.3-34.7c2-4.2,2.4-4.5,3.1-9
				c3.9-25.3-20.2-39.8-43.1-53.4c-14.2-8.5-28.7-16.5-31.8-26.1C256.1,270.8,250.1,271.5,247.7,276.6L247.7,276.6z"/>
			<path id="_313889640" class="st0" d="M131.2,394.8h244.5c2.6,0,4.8,2.1,4.8,4.8v60.8c0,2.6-2.1,4.8-4.8,4.8H131.2
				c-2.6,0-4.8-2.1-4.8-4.8v-60.8C126.4,397,128.5,394.8,131.2,394.8z M371,404.3h-235v51.2h235L371,404.3L371,404.3z"/>
			<path id="_313889904" class="st0" d="M462.4,318.1v142.3c0,2.6-2.1,4.8-4.8,4.8h-60.2c-2.6,0-4.8-2.1-4.8-4.8V318.1
				c-4.9-4-9.1-8.9-12-14.6c-3.2-6.2-5-13.2-5-20.6v-8.1c0-2.6,2.1-4.8,4.8-4.8h94.2c2.6,0,4.8,2.1,4.8,4.8v8.1
				c0,7.4-1.8,14.4-5,20.6C471.5,309.1,467.4,314.1,462.4,318.1L462.4,318.1z M452.9,455.6V315.7v0c0-1.5,0.7-2.9,2-3.9
				c0.2-0.2,0.5-0.3,0.7-0.5c4.3-3.2,7.9-7.4,10.4-12.2c2.5-4.9,3.9-10.4,3.9-16.3v-3.3h-84.7v3.3c0,5.9,1.4,11.4,3.9,16.3
				c2.6,5,6.3,9.3,10.8,12.5c1.4,0.8,2.3,2.3,2.3,4.1v139.9H452.9z"/>
			<path id="_313890000" class="st0" d="M458.1,193v81.8h-9.5v-84.1v0c0-1.5,0.7-2.9,2-3.9c3.7-2.4,7.3-6.8,9.3-10.7
				c2.1-4.1,3.3-8.7,3.3-13.6v-2.2h-71.3v2.2c0,4.9,1.2,9.5,3.3,13.6c2.2,4.2,5.3,7.7,9,10.5c1.4,0.8,2.3,2.3,2.3,4.1v84.1H397V193
				c-4.2-3.4-7.7-7.7-10.2-12.5c-2.8-5.4-4.4-11.5-4.4-18v-6.9c0-2.6,2.1-4.8,4.8-4.8H468c2.6,0,4.8,2.1,4.8,4.8v6.9
				c0,6.5-1.6,12.6-4.4,18C465.8,185.3,462.3,189.6,458.1,193L458.1,193z"/>
			<path id="_313889712" class="st0" d="M398.5,101.2l25-42.5c1.3-2.3,4.2-3,6.5-1.7c0.9,0.5,1.5,1.2,1.9,2.1l25,42.5
				c0.5,0.8,0.7,1.6,0.7,2.5v51.6H448v-50.4l-20.4-34.8l-20.4,34.8v50.4h-9.5v-51.7C397.6,102.9,397.9,101.9,398.5,101.2
				L398.5,101.2z"/>
		</g>
	</g>
</g>
</svg>
