<?xml version="1.0" encoding="utf-8"?>
<!-- Generator: Adobe Illustrator 26.0.0, SVG Export Plug-In . SVG Version: 6.00 Build 0)  -->
<svg version="1.1" id="Layer_1" xmlns="http://www.w3.org/2000/svg" xmlns:xlink="http://www.w3.org/1999/xlink" x="0px" y="0px"
	 viewBox="0 0 512 512" style="enable-background:new 0 0 512 512;" xml:space="preserve">
<style type="text/css">
	.st0{fill:#D90000;}
</style>
<g>
	<path d="M460.1,72H51.9C38.7,72,27.7,83,27.7,96.2v288.5c0,13.1,11.1,24.2,24.2,24.2H54v24.2c0,4.2,2.8,6.9,6.9,6.9h56.7
		c2.8,0,4.8-1.4,6.2-3.5l14.5-27.7h235.2l14.5,27.7c1.4,2.1,3.5,3.5,6.2,3.5h56.7c4.2,0,6.9-2.8,6.9-6.9v-24.2h1.4
		c13.1,0,24.2-11.1,24.2-24.2v-34.6V130.8V96.2C484.3,83,473.3,72,460.1,72L460.1,72z M113.5,426.2H67.8v-17.3h54.7L113.5,426.2z
		 M444.9,426.2h-45.7l-9-17.3h54.7V426.2z M460.1,395.1h-8.3l0,0h-74H135.6H60.9l0,0h-9c-5.5,0-10.4-4.8-10.4-10.4V96.2
		c0-5.5,4.8-10.4,10.4-10.4h408.2c5.5,0,10.4,4.8,10.4,10.4v27.7H384c-17.3,0-31.1,13.8-31.1,31.1v170.9c0,17.3,13.8,31.1,31.1,31.1
		h86.5v27.7C470.5,390.2,465.6,395.1,460.1,395.1z M470.5,343.2H384c-9.7,0-17.3-7.6-17.3-17.3V155c0-9.7,7.6-17.3,17.3-17.3h86.5
		V343.2z"/>
	<path class="st0" d="M188.9,113.5c-69.9,0-126.6,56.7-126.6,126.6S119,366.7,188.9,366.7S315.5,310,315.5,240.1
		C316.2,170.2,259.5,113.5,188.9,113.5L188.9,113.5z M188.9,353.6c-62.3,0-112.8-50.5-112.8-112.8S126.6,128,188.9,128
		s112.8,50.5,112.8,112.8C302.4,303,251.2,353.6,188.9,353.6z"/>
	<path class="st0" d="M213.1,217.9c-0.7-0.7-1.4-1.4-2.1-2.1c6.2-13.8,19.4-27,38.1-40.1c2.1-1.4,3.5-4.2,2.8-6.2
		c0-2.8-2.1-4.8-4.2-5.5c-31.1-13.1-54.7-14.5-68.5-3.5c-12.5,9.7-16.6,29.1-11.8,56c-0.7,0.7-1.4,1.4-2.1,2.1
		c-13.8-6.2-27-19.4-40.1-38.1c-1.4-2.1-4.2-3.5-6.2-2.8c-2.8,0-4.8,2.1-5.5,4.2c-13.1,31.1-14.5,54.7-3.5,68.5
		c7.6,9,19.4,13.8,36.7,13.8c6.2,0,12.5-0.7,19.4-2.1c0.7,0.7,1.4,1.4,2.1,2.1c-6.2,13.8-19.4,27-38.1,40.1
		c-2.1,1.4-3.5,4.2-2.8,6.2c0,2.8,2.1,4.8,4.2,5.5c17.3,6.9,31.8,11.1,43.6,11.1c9.7,0,18-2.8,24.9-7.6c12.5-9.7,16.6-29.1,11.8-56
		l2.1-2.1c13.8,6.2,27,19.4,40.1,38.1c1.4,2.1,3.5,2.8,5.5,2.8h0.7c2.8,0,4.8-2.1,5.5-4.2c13.1-31.1,14.5-54.7,3.5-68.5
		C258.8,217.9,240.1,213.8,213.1,217.9L213.1,217.9z M170.2,240.1c0-10.4,8.3-18.7,18.7-18.7c10.4,0,18.7,8.3,18.7,18.7
		c0,10.4-8.3,18.7-18.7,18.7C178.5,259.5,170.2,250.5,170.2,240.1z M187.5,171.6c8.3-6.2,22.8-6.2,42.9,0.7
		c-15.2,11.8-25.6,24.2-31.8,37.4c-2.8-0.7-6.2-1.4-9-1.4c-3.5,0-6.2,0.7-9.7,1.4C177.1,190.3,179.9,177.8,187.5,171.6L187.5,171.6z
		 M120.4,242.2c-6.2-8.3-6.2-22.8,0.7-42.9c11.8,15.2,24.2,25.6,37.4,31.8c-0.7,2.8-1.4,6.2-1.4,9c0,3.5,0.7,6.2,1.4,9.7
		C139.1,252.5,125.9,249.8,120.4,242.2z M191,309.3c-8.3,6.2-22.8,6.2-42.9-0.7c15.2-11.8,25.6-24.2,31.8-37.4
		c2.8,0.7,6.2,1.4,9.7,1.4s6.2-0.7,9.7-1.4C200.6,290.6,198.6,303,191,309.3L191,309.3z M257.4,281.6
		c-11.8-15.2-24.2-25.6-37.4-31.8c0.7-2.8,1.4-6.2,1.4-9c0-3.5-0.7-6.2-1.4-9.7c18.7-2.1,31.8,0,38.1,7.6
		C264.3,247,264.3,261.5,257.4,281.6z"/>
	<path class="st0" d="M395.8,280.2h45.7c4.2,0,6.9-2.8,6.9-6.9s-2.8-6.9-6.9-6.9h-45.7c-4.2,0-6.9,2.8-6.9,6.9
		S392.3,280.2,395.8,280.2L395.8,280.2z"/>
	<path class="st0" d="M395.8,214.5h45.7c4.2,0,6.9-2.8,6.9-6.9c0-4.2-2.8-6.9-6.9-6.9h-45.7c-4.2,0-6.9,2.8-6.9,6.9
		C388.8,211.7,392.3,214.5,395.8,214.5L395.8,214.5z"/>
	<path class="st0" d="M395.8,247.7h45.7c4.2,0,6.9-2.8,6.9-6.9s-2.8-6.9-6.9-6.9h-45.7c-4.2,0-6.9,2.8-6.9,6.9
		S392.3,247.7,395.8,247.7L395.8,247.7z"/>
	<path class="st0" d="M395.8,313.4h45.7c4.2,0,6.9-2.8,6.9-6.9s-2.8-6.9-6.9-6.9h-45.7c-4.2,0-6.9,2.8-6.9,6.9
		S392.3,313.4,395.8,313.4L395.8,313.4z"/>
	<path class="st0" d="M395.8,181.3h45.7c4.2,0,6.9-2.8,6.9-6.9s-2.8-6.9-6.9-6.9h-45.7c-4.2,0-6.9,2.8-6.9,6.9
		S392.3,181.3,395.8,181.3L395.8,181.3z"/>
</g>
</svg>
