<svg width="683" height="683" viewBox="0 0 683 683" fill="none" xmlns="http://www.w3.org/2000/svg">
<g clip-path="url(#clip0_1285_147)">
<path d="M89.0312 252.035H345.009" stroke="white" stroke-width="20" stroke-miterlimit="10" stroke-linecap="round" stroke-linejoin="round"/>
<path d="M89.0312 322.295H345.009" stroke="white" stroke-width="20" stroke-miterlimit="10" stroke-linecap="round" stroke-linejoin="round"/>
<path d="M89.0312 392.557H345.009" stroke="white" stroke-width="20" stroke-miterlimit="10" stroke-linecap="round" stroke-linejoin="round"/>
<path d="M89.0312 462.816H345.009" stroke="white" stroke-width="20" stroke-miterlimit="10" stroke-linecap="round" stroke-linejoin="round"/>
<path d="M89.0312 565.787H217.349" stroke="white" stroke-width="20" stroke-miterlimit="10" stroke-linecap="round" stroke-linejoin="round"/>
<mask id="mask0_1285_147" style="mask-type:luminance" maskUnits="userSpaceOnUse" x="0" y="0" width="683" height="683">
<path d="M0 -0.000610352H682.667V682.666H0V-0.000610352Z" fill="white"/>
</mask>
<g mask="url(#mask0_1285_147)">
<path d="M249.869 136.248H232.533C225.675 136.248 220.117 130.689 220.117 123.832V91.3867C220.117 84.5294 225.675 78.9707 232.533 78.9707H437.822C444.679 78.9707 450.238 84.5294 450.238 91.3867V123.832C450.238 130.689 444.679 136.248 437.822 136.248H296.615M535.002 182.624V49.5014C535.002 27.7 517.329 10.0267 495.526 10.0267H156.277C145.807 10.0267 135.766 14.1867 128.363 21.5894L25.2659 124.687C17.8632 132.089 13.7045 142.129 13.7045 152.599V633.219C13.7045 655.02 31.3779 672.693 53.1779 672.693H495.526C517.329 672.693 535.002 655.02 535.002 633.219V619.753" stroke="white" stroke-width="20" stroke-miterlimit="10" stroke-linecap="round" stroke-linejoin="round"/>
<path d="M475.34 486.642V587.647C475.34 596.429 484.969 601.809 492.448 597.205L529.119 574.63C530.923 573.519 532.963 572.965 535.001 572.965C537.041 572.965 539.083 573.519 540.885 574.63L577.556 597.205C585.035 601.809 594.663 596.429 594.663 587.647V486.642" stroke="white" stroke-width="20" stroke-miterlimit="10" stroke-linecap="round" stroke-linejoin="round"/>
<path d="M535.001 442.416C494.24 442.416 461.196 409.372 461.196 368.611C461.196 327.85 494.24 294.806 535.001 294.806C575.763 294.806 608.807 327.85 608.807 368.611C608.807 409.372 575.763 442.416 535.001 442.416ZM663.691 385.492C656.752 375.307 656.752 361.915 663.691 351.73C674.735 335.52 667.497 313.25 649.035 306.627C637.435 302.466 629.563 291.631 629.191 279.312C628.597 259.708 609.651 245.943 590.824 251.438C578.993 254.888 566.255 250.75 558.713 241.003C552.712 233.248 543.857 229.37 535.001 229.37C526.145 229.37 517.292 233.248 511.291 241.003C503.748 250.75 491.011 254.888 479.18 251.438C460.352 245.943 441.407 259.708 440.812 279.312C440.44 291.631 432.568 302.466 420.968 306.627C402.507 313.25 395.269 335.52 406.312 351.73C413.251 361.915 413.251 375.307 406.312 385.492C395.269 401.7 402.507 423.972 420.968 430.595C432.568 434.755 440.44 445.591 440.812 457.91C441.365 476.179 457.859 489.378 475.34 486.642C476.617 486.443 477.899 486.159 479.18 485.784C491.011 482.332 503.748 486.471 511.291 496.218C523.293 511.73 546.711 511.73 558.713 496.218C566.255 486.471 578.993 482.332 590.824 485.784C592.105 486.159 593.387 486.443 594.663 486.642C612.145 489.378 628.639 476.179 629.191 457.91C629.563 445.591 637.435 434.755 649.035 430.595C667.497 423.972 674.735 401.7 663.691 385.492Z" stroke="white" stroke-width="20" stroke-miterlimit="10" stroke-linecap="round" stroke-linejoin="round"/>
<path d="M535.001 294.805C494.24 294.805 461.196 327.849 461.196 368.611C461.196 409.373 494.24 442.416 535.001 442.416C575.763 442.416 608.807 409.373 608.807 368.611C608.807 327.849 575.763 294.805 535.001 294.805Z" stroke="white" stroke-width="20" stroke-miterlimit="10" stroke-linecap="round" stroke-linejoin="round"/>
<path d="M139.925 13.5734V111.775C139.925 125.292 128.967 136.248 115.453 136.248H17.2499" stroke="white" stroke-width="20" stroke-miterlimit="10" stroke-linecap="round" stroke-linejoin="round"/>
</g>
</g>
<defs>
<clipPath id="clip0_1285_147">
<rect width="682.667" height="682.667" fill="white"/>
</clipPath>
</defs>
</svg>
