<?xml version="1.0" encoding="utf-8"?>
<!-- Generator: Adobe Illustrator 26.0.0, SVG Export Plug-In . SVG Version: 6.00 Build 0)  -->
<svg version="1.1" id="Layer_1" xmlns="http://www.w3.org/2000/svg" xmlns:xlink="http://www.w3.org/1999/xlink" x="0px" y="0px"
	 viewBox="0 0 512 512" style="enable-background:new 0 0 512 512;" xml:space="preserve">
<style type="text/css">
	.st0{clip-path:url(#SVGID_00000007397120451039871520000002878311678006210437_);}
	.st1{fill:#FFFFFF;filter:url(#Adobe_OpacityMaskFilter);}
	.st2{mask:url(#mask0_379_491_00000142869698246483273990000014515920699916969899_);}
	.st3{fill:#B20000;}
	.st4{fill:#FFFFFF;filter:url(#Adobe_OpacityMaskFilter_00000067950600474699797870000017672018731360371618_);}
	.st5{mask:url(#mask1_379_491_00000034060534278887078200000001375561037356865698_);}
	.st6{fill:#D90000;}
	.st7{fill:#FFFFFF;filter:url(#Adobe_OpacityMaskFilter_00000126290164340345306990000003501784237130227855_);}
	.st8{mask:url(#mask2_379_491_00000052784097040375258520000017118813945998038686_);}
	.st9{fill:#FFFFFF;filter:url(#Adobe_OpacityMaskFilter_00000038383833765448916010000017736413227390114732_);}
	.st10{mask:url(#mask3_379_491_00000013183506815913115550000017230707310073285807_);}
	.st11{fill:#D58678;}
	.st12{fill:#FFFFFF;filter:url(#Adobe_OpacityMaskFilter_00000091699976645924812090000017496965084631148476_);}
	.st13{mask:url(#mask4_379_491_00000005981210815100930460000010489823018931732412_);}
	.st14{fill:#C76E59;}
	.st15{fill:#FFFFFF;filter:url(#Adobe_OpacityMaskFilter_00000181054485367453371720000017983451135567138749_);}
	.st16{mask:url(#mask5_379_491_00000091728953381899393130000008618023807764695219_);}
	.st17{fill:#FFFFFF;filter:url(#Adobe_OpacityMaskFilter_00000160189758283100952760000012207752176961067448_);}
	.st18{mask:url(#mask6_379_491_00000008110332364777702630000000506093632213186495_);}
	.st19{fill:#FFFFFF;filter:url(#Adobe_OpacityMaskFilter_00000103950368223770417010000006547339978433117110_);}
	.st20{mask:url(#mask7_379_491_00000026143652521816111490000004194149155864018098_);}
	.st21{fill:#FFCCBD;}
	.st22{fill:#FFFFFF;filter:url(#Adobe_OpacityMaskFilter_00000109732650167291417250000004947224944714849468_);}
	.st23{mask:url(#mask8_379_491_00000007404737024299635370000010169792901043398819_);}
	.st24{fill:#FFBDA9;}
	.st25{fill:#FFFFFF;filter:url(#Adobe_OpacityMaskFilter_00000145752282474560738490000014030389305881747355_);}
	.st26{mask:url(#mask9_379_491_00000154419180244521621160000008721200761583765664_);}
	.st27{fill:#FFFFFF;filter:url(#Adobe_OpacityMaskFilter_00000049185465349311504430000013968503996405531571_);}
	.st28{mask:url(#mask10_379_491_00000119114276134929826000000004913827573698421938_);}
	.st29{fill:#FFFFFF;filter:url(#Adobe_OpacityMaskFilter_00000048472238771494825620000004165361971996650653_);}
	.st30{mask:url(#mask11_379_491_00000072985221087642219500000017561187880314395788_);}
	.st31{fill:#FFFFFF;filter:url(#Adobe_OpacityMaskFilter_00000151545282386910311370000008105913894377545877_);}
	.st32{mask:url(#mask12_379_491_00000159455888032233414180000008817341125054990231_);}
	.st33{fill:#FFFFFF;filter:url(#Adobe_OpacityMaskFilter_00000171692029713714112450000004882120237770412206_);}
	.st34{mask:url(#mask13_379_491_00000178174448621109027140000016367857547682002817_);}
	.st35{fill:#0F0C0E;}
	.st36{fill:#FFFFFF;filter:url(#Adobe_OpacityMaskFilter_00000170270084932464471590000001032851341511299504_);}
	.st37{mask:url(#mask14_379_491_00000079446211834950528200000009188265458057548199_);}
	.st38{fill:#B3D9FF;}
	.st39{fill:#FFFFFF;filter:url(#Adobe_OpacityMaskFilter_00000114045224220505448180000008544737984689941651_);}
	.st40{mask:url(#mask15_379_491_00000052079128467184557040000009417997843255177398_);}
	.st41{fill:#FFFFFF;}
	.st42{fill:#FFFFFF;filter:url(#Adobe_OpacityMaskFilter_00000093886172953716903790000015690850402630549134_);}
	.st43{mask:url(#mask16_379_491_00000000904288727072615570000012744331193155166638_);}
</style>
<g>
	<defs>
		<rect id="SVGID_1_" width="512" height="512"/>
	</defs>
	<clipPath id="SVGID_00000057144726638473172340000002954944094175714972_">
		<use xlink:href="#SVGID_1_"  style="overflow:visible;"/>
	</clipPath>
	<g style="clip-path:url(#SVGID_00000057144726638473172340000002954944094175714972_);">
		<defs>
			<filter id="Adobe_OpacityMaskFilter" filterUnits="userSpaceOnUse" x="155" y="0" width="116" height="80.3">
				<feColorMatrix  type="matrix" values="1 0 0 0 0  0 1 0 0 0  0 0 1 0 0  0 0 0 1 0"/>
			</filter>
		</defs>
		
			<mask maskUnits="userSpaceOnUse" x="155" y="0" width="116" height="80.3" id="mask0_379_491_00000142869698246483273990000014515920699916969899_">
			<path class="st1" d="M512,0H0v512h512V0z"/>
		</mask>
		<g class="st2">
			<path class="st3" d="M256,16l15,14l-15,16c-16.7-0.1-33.3,1.8-49.3,5.6c7.9,3.9,11.1,13.8,6.4,21.4c-4.3,7.2-13.6,9.4-20.6,5.1
				l-30.2-18.2c-6.5-3.7-9.2-12.5-5.9-19.3l15-32c3.5-7.5,12.4-10.7,20-7.2c8.1,3.8,10.9,13.7,6.5,21.4
				C216.8,18.2,236.3,15.9,256,16z"/>
		</g>
		<defs>
			
				<filter id="Adobe_OpacityMaskFilter_00000173137706085264876050000006054120649121135763_" filterUnits="userSpaceOnUse" x="16.3" y="221.5" width="257.5" height="270.3">
				<feColorMatrix  type="matrix" values="1 0 0 0 0  0 1 0 0 0  0 0 1 0 0  0 0 0 1 0"/>
			</filter>
		</defs>
		
			<mask maskUnits="userSpaceOnUse" x="16.3" y="221.5" width="257.5" height="270.3" id="mask1_379_491_00000034060534278887078200000001375561037356865698_">
			<path style="fill:#FFFFFF;filter:url(#Adobe_OpacityMaskFilter_00000173137706085264876050000006054120649121135763_);" d="
				M512,0H0v512h512V0z"/>
		</mask>
		<g class="st5">
			<path class="st6" d="M256,461.8l17.8,16.6L256,491.8c-5.4,0-10.7-0.2-16.1-0.6c-64-4.4-122.4-33.4-164.5-81.7
				c-42.1-48.3-62.9-110.1-58.5-174.1c0.6-8.3,7.7-14.5,16-13.9s14.5,7.7,13.9,16C43,293.4,61.2,347.5,98,389.8
				c36.9,42.3,88,67.7,143.9,71.5C246.7,461.6,251.3,461.8,256,461.8z"/>
		</g>
		<defs>
			
				<filter id="Adobe_OpacityMaskFilter_00000122691619282398281360000017892235550280570250_" filterUnits="userSpaceOnUse" x="0" y="74.6" width="94.5" height="78.4">
				<feColorMatrix  type="matrix" values="1 0 0 0 0  0 1 0 0 0  0 0 1 0 0  0 0 0 1 0"/>
			</filter>
		</defs>
		
			<mask maskUnits="userSpaceOnUse" x="0" y="74.6" width="94.5" height="78.4" id="mask2_379_491_00000052784097040375258520000017118813945998038686_">
			<path style="fill:#FFFFFF;filter:url(#Adobe_OpacityMaskFilter_00000122691619282398281360000017892235550280570250_);" d="
				M512,0H0v512h512V0z"/>
		</mask>
		<g class="st8">
			<path class="st6" d="M60.3,74.6l34.2,48.8L60.3,153H15c-8.3,0-15-6.7-15-15v-3C0,101.6,27,74.6,60.3,74.6z"/>
		</g>
		<defs>
			
				<filter id="Adobe_OpacityMaskFilter_00000063625619090848094810000016576861357862900143_" filterUnits="userSpaceOnUse" x="23" y="0" width="61.3" height="74.6">
				<feColorMatrix  type="matrix" values="1 0 0 0 0  0 1 0 0 0  0 0 1 0 0  0 0 0 1 0"/>
			</filter>
		</defs>
		
			<mask maskUnits="userSpaceOnUse" x="23" y="0" width="61.3" height="74.6" id="mask3_379_491_00000013183506815913115550000017230707310073285807_">
			<path style="fill:#FFFFFF;filter:url(#Adobe_OpacityMaskFilter_00000063625619090848094810000016576861357862900143_);" d="
				M512,0H0v512h512V0z"/>
		</mask>
		<g class="st10">
			<path class="st11" d="M60.3,0l24,45.1l-24,29.5C39.7,74.6,23,57.9,23,37.3S39.7,0,60.3,0z"/>
		</g>
		<defs>
			
				<filter id="Adobe_OpacityMaskFilter_00000096034288255585144320000017254150780913023161_" filterUnits="userSpaceOnUse" x="60.3" y="0" width="37.3" height="74.6">
				<feColorMatrix  type="matrix" values="1 0 0 0 0  0 1 0 0 0  0 0 1 0 0  0 0 0 1 0"/>
			</filter>
		</defs>
		
			<mask maskUnits="userSpaceOnUse" x="60.3" y="0" width="37.3" height="74.6" id="mask4_379_491_00000005981210815100930460000010489823018931732412_">
			<path style="fill:#FFFFFF;filter:url(#Adobe_OpacityMaskFilter_00000096034288255585144320000017254150780913023161_);" d="
				M512,0H0v512h512V0z"/>
		</mask>
		<g class="st13">
			<path class="st14" d="M97.6,37.3c0,20.6-16.7,37.3-37.3,37.3V0C80.9,0,97.6,16.7,97.6,37.3z"/>
		</g>
		<defs>
			
				<filter id="Adobe_OpacityMaskFilter_00000167377756906264496670000014069018466347609994_" filterUnits="userSpaceOnUse" x="60.3" y="74.6" width="60.4" height="78.4">
				<feColorMatrix  type="matrix" values="1 0 0 0 0  0 1 0 0 0  0 0 1 0 0  0 0 0 1 0"/>
			</filter>
		</defs>
		
			<mask maskUnits="userSpaceOnUse" x="60.3" y="74.6" width="60.4" height="78.4" id="mask5_379_491_00000091728953381899393130000008618023807764695219_">
			<path style="fill:#FFFFFF;filter:url(#Adobe_OpacityMaskFilter_00000167377756906264496670000014069018466347609994_);" d="
				M512,0H0v512h512V0z"/>
		</mask>
		<g class="st16">
			<path class="st3" d="M120.7,135v3c0,8.3-6.7,15-15,15H60.3V74.6C77,74.6,92,81.4,103,92.3C113.9,103.2,120.7,118.3,120.7,135z"/>
		</g>
		<defs>
			
				<filter id="Adobe_OpacityMaskFilter_00000132046185276634692330000005772511005132635037_" filterUnits="userSpaceOnUse" x="391.4" y="433.6" width="94.5" height="78.4">
				<feColorMatrix  type="matrix" values="1 0 0 0 0  0 1 0 0 0  0 0 1 0 0  0 0 0 1 0"/>
			</filter>
		</defs>
		
			<mask maskUnits="userSpaceOnUse" x="391.4" y="433.6" width="94.5" height="78.4" id="mask6_379_491_00000008110332364777702630000000506093632213186495_">
			<path style="fill:#FFFFFF;filter:url(#Adobe_OpacityMaskFilter_00000132046185276634692330000005772511005132635037_);" d="
				M512,0H0v512h512V0z"/>
		</mask>
		<g class="st18">
			<path class="st6" d="M451.7,433.6l34.2,48.8L451.7,512h-45.3c-8.3,0-15-6.7-15-15v-3C391.3,460.6,418.3,433.6,451.7,433.6z"/>
		</g>
		<defs>
			
				<filter id="Adobe_OpacityMaskFilter_00000000209912122785487460000004473586979733431714_" filterUnits="userSpaceOnUse" x="414.4" y="359" width="61.3" height="74.6">
				<feColorMatrix  type="matrix" values="1 0 0 0 0  0 1 0 0 0  0 0 1 0 0  0 0 0 1 0"/>
			</filter>
		</defs>
		
			<mask maskUnits="userSpaceOnUse" x="414.4" y="359" width="61.3" height="74.6" id="mask7_379_491_00000026143652521816111490000004194149155864018098_">
			<path style="fill:#FFFFFF;filter:url(#Adobe_OpacityMaskFilter_00000000209912122785487460000004473586979733431714_);" d="
				M512,0H0v512h512V0z"/>
		</mask>
		<g class="st20">
			<path class="st21" d="M451.7,359l24,45.1l-24,29.5c-20.6,0-37.3-16.7-37.3-37.3C414.4,375.7,431.1,359,451.7,359z"/>
		</g>
		<defs>
			
				<filter id="Adobe_OpacityMaskFilter_00000074432463367669665270000004827212913227432889_" filterUnits="userSpaceOnUse" x="451.7" y="359" width="37.3" height="74.6">
				<feColorMatrix  type="matrix" values="1 0 0 0 0  0 1 0 0 0  0 0 1 0 0  0 0 0 1 0"/>
			</filter>
		</defs>
		
			<mask maskUnits="userSpaceOnUse" x="451.7" y="359" width="37.3" height="74.6" id="mask8_379_491_00000007404737024299635370000010169792901043398819_">
			<path style="fill:#FFFFFF;filter:url(#Adobe_OpacityMaskFilter_00000074432463367669665270000004827212913227432889_);" d="
				M512,0H0v512h512V0z"/>
		</mask>
		<g class="st23">
			<path class="st24" d="M489,396.3c0,20.6-16.7,37.3-37.3,37.3V359C472.3,359,489,375.7,489,396.3z"/>
		</g>
		<defs>
			
				<filter id="Adobe_OpacityMaskFilter_00000111182528906191766630000005425257056957878932_" filterUnits="userSpaceOnUse" x="451.7" y="433.6" width="60.3" height="78.4">
				<feColorMatrix  type="matrix" values="1 0 0 0 0  0 1 0 0 0  0 0 1 0 0  0 0 0 1 0"/>
			</filter>
		</defs>
		
			<mask maskUnits="userSpaceOnUse" x="451.7" y="433.6" width="60.3" height="78.4" id="mask9_379_491_00000154419180244521621160000008721200761583765664_">
			<path style="fill:#FFFFFF;filter:url(#Adobe_OpacityMaskFilter_00000111182528906191766630000005425257056957878932_);" d="
				M512,0H0v512h512V0z"/>
		</mask>
		<g class="st26">
			<path class="st3" d="M512,494v3c0,8.3-6.7,15-15,15h-45.3v-78.4c16.7,0,31.7,6.7,42.7,17.7C505.2,462.2,512,477.3,512,494z"/>
		</g>
		<defs>
			
				<filter id="Adobe_OpacityMaskFilter_00000139283155456692667320000004524535173223188909_" filterUnits="userSpaceOnUse" x="256.1" y="430.8" width="85.7" height="81.2">
				<feColorMatrix  type="matrix" values="1 0 0 0 0  0 1 0 0 0  0 0 1 0 0  0 0 0 1 0"/>
			</filter>
		</defs>
		
			<mask maskUnits="userSpaceOnUse" x="256.1" y="430.8" width="85.7" height="81.2" id="mask10_379_491_00000119114276134929826000000004913827573698421938_">
			<path style="fill:#FFFFFF;filter:url(#Adobe_OpacityMaskFilter_00000139283155456692667320000004524535173223188909_);" d="
				M512,0H0v512h512V0z"/>
		</mask>
		<g class="st28">
			<path class="st3" d="M340.7,472c-0.2,0.5-17.8,32.3-17.8,32.3c-2.7,4.9-7.9,7.7-13.1,7.7c-2.5,0-5-0.6-7.3-1.9
				c-7.9-4.3-10-14.5-5-21.8c-13.6,2.4-27.5,3.5-41.4,3.5v-30c11.6,0,23.2-0.9,34.5-2.8l-1.3-0.9c-6.8-4.8-8.5-14.1-3.7-20.9
				c4.8-6.8,14.1-8.4,20.9-3.7l28.9,20.2C341.1,457.7,343.4,465.6,340.7,472z"/>
		</g>
		<defs>
			
				<filter id="Adobe_OpacityMaskFilter_00000076603910664713323030000009598515136223242373_" filterUnits="userSpaceOnUse" x="256" y="16" width="239" height="255">
				<feColorMatrix  type="matrix" values="1 0 0 0 0  0 1 0 0 0  0 0 1 0 0  0 0 0 1 0"/>
			</filter>
		</defs>
		
			<mask maskUnits="userSpaceOnUse" x="256" y="16" width="239" height="255" id="mask11_379_491_00000072985221087642219500000017561187880314395788_">
			<path style="fill:#FFFFFF;filter:url(#Adobe_OpacityMaskFilter_00000076603910664713323030000009598515136223242373_);" d="
				M512,0H0v512h512V0z"/>
		</mask>
		<g class="st30">
			<path class="st6" d="M495,256c0,8.3-6.7,15-15,15s-15-6.7-15-15c0-115.5-93.7-209.5-209-210V16c63.7,0.3,123.6,25.2,168.7,70.3
				C470,131.6,495,191.9,495,256z"/>
		</g>
		<defs>
			
				<filter id="Adobe_OpacityMaskFilter_00000078747204950297680720000015387712103659429053_" filterUnits="userSpaceOnUse" x="119.9" y="119.9" width="181.1" height="272.1">
				<feColorMatrix  type="matrix" values="1 0 0 0 0  0 1 0 0 0  0 0 1 0 0  0 0 0 1 0"/>
			</filter>
		</defs>
		
			<mask maskUnits="userSpaceOnUse" x="119.9" y="119.9" width="181.1" height="272.1" id="mask12_379_491_00000159455888032233414180000008817341125054990231_">
			<path style="fill:#FFFFFF;filter:url(#Adobe_OpacityMaskFilter_00000078747204950297680720000015387712103659429053_);" d="
				M512,0H0v512h512V0z"/>
		</mask>
		<g class="st32">
			<path d="M256,120l45,136.5L256,392h-12c-8.2,0-14.9-6.3-15.5-14.5l-2.6-30.9c-4.4-1.5-8.6-3.2-12.7-5.3L189,362
				c-6.2,5.3-15.4,5-21.2-0.8l-17-17c-5.8-5.8-6.1-15-0.8-21.2l20.6-24.2c-2-4.1-3.8-8.3-5.3-12.7l-30.9-2.6
				c-8.1-0.6-14.5-7.4-14.5-15.5v-24c0-8.2,6.3-15,14.5-15.5l30.9-2.6c1.5-4.4,3.2-8.6,5.3-12.7L150,189c-5.3-6.2-5-15.4,0.8-21.2
				l17-17c5.8-5.8,15-6.1,21.2-0.8l24.2,20.6c4.1-2,8.3-3.8,12.7-5.3l2.6-30.9c0.6-8.1,7.4-14.5,15.5-14.5L256,120z"/>
		</g>
		<defs>
			
				<filter id="Adobe_OpacityMaskFilter_00000003796301036870471800000000328568460472652478_" filterUnits="userSpaceOnUse" x="256" y="120" width="136" height="272.1">
				<feColorMatrix  type="matrix" values="1 0 0 0 0  0 1 0 0 0  0 0 1 0 0  0 0 0 1 0"/>
			</filter>
		</defs>
		
			<mask maskUnits="userSpaceOnUse" x="256" y="120" width="136" height="272.1" id="mask13_379_491_00000178174448621109027140000016367857547682002817_">
			<path style="fill:#FFFFFF;filter:url(#Adobe_OpacityMaskFilter_00000003796301036870471800000000328568460472652478_);" d="
				M512,0H0v512h512V0z"/>
		</mask>
		<g class="st34">
			<path class="st35" d="M392,244v24c0,8.2-6.3,14.9-14.5,15.5l-30.9,2.6c-1.5,4.4-3.2,8.6-5.3,12.7L362,323
				c5.3,6.2,5,15.4-0.8,21.2l-17,17c-5.8,5.8-15,6.1-21.2,0.8l-24.2-20.6c-4.1,2-8.3,3.8-12.7,5.3l-2.6,30.9
				c-0.6,8.1-7.4,14.5-15.5,14.5h-12V120h12c8.2,0,14.9,6.3,15.5,14.5l2.6,30.9c4.4,1.5,8.6,3.2,12.7,5.3L323,150
				c6.2-5.3,15.4-5,21.2,0.8l17,17c5.8,5.8,6.1,15,0.8,21.2l-20.6,24.2c2,4.1,3.8,8.3,5.3,12.7l30.9,2.6
				C385.7,229,392,235.8,392,244z"/>
		</g>
		<defs>
			
				<filter id="Adobe_OpacityMaskFilter_00000077305925652301117880000001868190914163746468_" filterUnits="userSpaceOnUse" x="228" y="228.5" width="56" height="56">
				<feColorMatrix  type="matrix" values="1 0 0 0 0  0 1 0 0 0  0 0 1 0 0  0 0 0 1 0"/>
			</filter>
		</defs>
		
			<mask maskUnits="userSpaceOnUse" x="228" y="228.5" width="56" height="56" id="mask14_379_491_00000079446211834950528200000009188265458057548199_">
			<path style="fill:#FFFFFF;filter:url(#Adobe_OpacityMaskFilter_00000077305925652301117880000001868190914163746468_);" d="
				M512,0H0v512h512V0z"/>
		</mask>
		<g class="st37">
			<path class="st38" d="M256,228.5c15.5,0,28,12.5,28,28s-12.5,28-28,28s-28-12.5-28-28S240.5,228.5,256,228.5z"/>
		</g>
		<defs>
			
				<filter id="Adobe_OpacityMaskFilter_00000016061330758005313780000001150852786735386502_" filterUnits="userSpaceOnUse" x="211" y="211" width="57" height="90">
				<feColorMatrix  type="matrix" values="1 0 0 0 0  0 1 0 0 0  0 0 1 0 0  0 0 0 1 0"/>
			</filter>
		</defs>
		
			<mask maskUnits="userSpaceOnUse" x="211" y="211" width="57" height="90" id="mask15_379_491_00000052079128467184557040000009417997843255177398_">
			<path style="fill:#FFFFFF;filter:url(#Adobe_OpacityMaskFilter_00000016061330758005313780000001150852786735386502_);" d="
				M512,0H0v512h512V0z"/>
		</mask>
		<g class="st40">
			<path class="st41" d="M256,241l12-15.6L256,211c-24.8,0-45,20.2-45,45s20.2,45,45,45l12-19.2L256,271c-8.3,0-15-6.7-15-15
				C241,247.7,247.7,241,256,241z"/>
		</g>
		<defs>
			
				<filter id="Adobe_OpacityMaskFilter_00000057830032655993291050000008403155833280998540_" filterUnits="userSpaceOnUse" x="256" y="211" width="45" height="90">
				<feColorMatrix  type="matrix" values="1 0 0 0 0  0 1 0 0 0  0 0 1 0 0  0 0 0 1 0"/>
			</filter>
		</defs>
		
			<mask maskUnits="userSpaceOnUse" x="256" y="211" width="45" height="90" id="mask16_379_491_00000000904288727072615570000012744331193155166638_">
			<path style="fill:#FFFFFF;filter:url(#Adobe_OpacityMaskFilter_00000057830032655993291050000008403155833280998540_);" d="
				M512,0H0v512h512V0z"/>
		</mask>
		<g class="st43">
			<path class="st41" d="M301,256c0,24.8-20.2,45-45,45v-30c8.3,0,15-6.7,15-15c0-8.3-6.7-15-15-15v-30C280.8,211,301,231.2,301,256
				z"/>
		</g>
	</g>
</g>
</svg>
