<?xml version="1.0" encoding="utf-8"?>
<!-- Generator: Adobe Illustrator 26.0.0, SVG Export Plug-In . SVG Version: 6.00 Build 0)  -->
<svg version="1.1" id="Layer_1" xmlns="http://www.w3.org/2000/svg" xmlns:xlink="http://www.w3.org/1999/xlink" x="0px" y="0px"
	 viewBox="0 0 436 511" style="enable-background:new 0 0 436 511;" xml:space="preserve">
<style type="text/css">
	.st0{clip-path:url(#SVGID_00000024688247641247189640000016853630343236032656_);}
	.st1{fill:#FFFFFF;filter:url(#Adobe_OpacityMaskFilter);}
	.st2{mask:url(#mask0_379_427_00000167376015360285157780000014207162482759393184_);}
	.st3{fill:#D90000;}
	.st4{fill:#FFFFFF;filter:url(#Adobe_OpacityMaskFilter_00000079481855935857612250000005011705533338558133_);}
	.st5{mask:url(#mask1_379_427_00000071558727739352932700000008479315581286335113_);}
	.st6{fill:#B20000;}
	.st7{fill:#FFFFFF;filter:url(#Adobe_OpacityMaskFilter_00000067203449892303105900000003200292790501412996_);}
	.st8{mask:url(#mask2_379_427_00000052817973267116027660000016085062686083302273_);}
	.st9{fill:#FFFFFF;}
	.st10{fill:#FFFFFF;filter:url(#Adobe_OpacityMaskFilter_00000106854740205741668150000015456546941149769121_);}
	.st11{mask:url(#mask3_379_427_00000156583874955253753550000001756793447147011222_);}
	.st12{fill:#E1EBF0;}
	.st13{fill:#FFFFFF;filter:url(#Adobe_OpacityMaskFilter_00000077311735291854276780000009158315154618942633_);}
	.st14{mask:url(#mask4_379_427_00000179643993451547569120000014523116721423206064_);}
	.st15{fill:#B4D2D7;}
	.st16{fill:#FFFFFF;filter:url(#Adobe_OpacityMaskFilter_00000140719807379417304410000005146546291302579128_);}
	.st17{mask:url(#mask5_379_427_00000085222771757490436830000002226762246842641845_);}
	.st18{fill:#6FA5AA;}
</style>
<g>
	<defs>
		<rect id="SVGID_1_" width="435.2" height="511"/>
	</defs>
	<clipPath id="SVGID_00000003084862812776341270000004203433166005383320_">
		<use xlink:href="#SVGID_1_"  style="overflow:visible;"/>
	</clipPath>
	<g style="clip-path:url(#SVGID_00000003084862812776341270000004203433166005383320_);">
		<defs>
			<filter id="Adobe_OpacityMaskFilter" filterUnits="userSpaceOnUse" x="0" y="0" width="435.1" height="511">
				<feColorMatrix  type="matrix" values="1 0 0 0 0  0 1 0 0 0  0 0 1 0 0  0 0 0 1 0"/>
			</filter>
		</defs>
		
			<mask maskUnits="userSpaceOnUse" x="0" y="0" width="435.1" height="511" id="mask0_379_427_00000167376015360285157780000014207162482759393184_">
			<path class="st1" d="M435.2,0H0v511h435.2V0z"/>
		</mask>
		<g class="st2">
			<path class="st3" d="M412.2,341.2c-13.7,37.2-34.5,69.6-61.7,96.2c-31,30.3-71.6,54.3-120.7,71.5c-1.6,0.6-3.3,1-5,1.4
				c-2.2,0.4-4.5,0.7-6.7,0.7h-0.4c-2.4,0-4.8-0.2-7.2-0.7c-1.7-0.3-3.3-0.8-4.9-1.3c-49.1-17.1-89.8-41.2-120.8-71.5
				c-27.3-26.6-48-58.9-61.7-96.2C-2.1,273.6-0.6,199.1,0.5,139.2v-0.9c0.2-4.9,0.4-10.1,0.5-15.9c0.4-28.2,22.8-51.5,51-53.1
				C110.7,66,156.2,46.9,195,9l0.3-0.3c6.4-5.9,14.6-8.8,22.7-8.7c7.8,0.1,15.6,3,21.8,8.7l0.3,0.3c38.8,37.9,84.3,57,143,60.3
				c28.2,1.6,50.6,24.9,51,53.1c0.1,5.8,0.2,11,0.5,15.9v0.4C435.8,198.7,437.2,273.4,412.2,341.2z"/>
		</g>
		<defs>
			
				<filter id="Adobe_OpacityMaskFilter_00000150780518128059861460000001433934910033225352_" filterUnits="userSpaceOnUse" x="218.1" y="0" width="217.1" height="511">
				<feColorMatrix  type="matrix" values="1 0 0 0 0  0 1 0 0 0  0 0 1 0 0  0 0 0 1 0"/>
			</filter>
		</defs>
		
			<mask maskUnits="userSpaceOnUse" x="218.1" y="0" width="217.1" height="511" id="mask1_379_427_00000071558727739352932700000008479315581286335113_">
			<path style="fill:#FFFFFF;filter:url(#Adobe_OpacityMaskFilter_00000150780518128059861460000001433934910033225352_);" d="
				M435.2,0H0v511h435.2V0z"/>
		</mask>
		<g class="st5">
			<path class="st6" d="M412.2,341.2c-13.7,37.2-34.5,69.6-61.7,96.2c-31,30.3-71.6,54.3-120.7,71.5c-1.6,0.6-3.3,1-5,1.4
				c-2.2,0.4-4.5,0.7-6.7,0.7V0c7.8,0.1,15.6,3,21.8,8.7l0.3,0.3c38.8,37.9,84.3,57,143,60.3c28.2,1.6,50.6,24.9,51,53.1
				c0.1,5.8,0.2,11,0.5,15.9v0.4C435.8,198.7,437.2,273.4,412.2,341.2z"/>
		</g>
		<defs>
			
				<filter id="Adobe_OpacityMaskFilter_00000133524839239025667530000001714267466043072899_" filterUnits="userSpaceOnUse" x="90.2" y="128.1" width="254.7" height="254.8">
				<feColorMatrix  type="matrix" values="1 0 0 0 0  0 1 0 0 0  0 0 1 0 0  0 0 0 1 0"/>
			</filter>
		</defs>
		
			<mask maskUnits="userSpaceOnUse" x="90.2" y="128.1" width="254.7" height="254.8" id="mask2_379_427_00000052817973267116027660000016085062686083302273_">
			<path style="fill:#FFFFFF;filter:url(#Adobe_OpacityMaskFilter_00000133524839239025667530000001714267466043072899_);" d="
				M435.2,0H0v511h435.2V0z"/>
		</mask>
		<g class="st8">
			<path class="st9" d="M344.9,255.5c0,70.1-56.9,127.1-126.9,127.4h-0.4c-70.2,0-127.4-57.1-127.4-127.4
				c0-70.2,57.1-127.4,127.4-127.4h0.4C288,128.4,344.9,185.4,344.9,255.5z"/>
		</g>
		<defs>
			
				<filter id="Adobe_OpacityMaskFilter_00000106829602211498884110000014458122202336936625_" filterUnits="userSpaceOnUse" x="218" y="128.1" width="126.9" height="254.8">
				<feColorMatrix  type="matrix" values="1 0 0 0 0  0 1 0 0 0  0 0 1 0 0  0 0 0 1 0"/>
			</filter>
		</defs>
		
			<mask maskUnits="userSpaceOnUse" x="218" y="128.1" width="126.9" height="254.8" id="mask3_379_427_00000156583874955253753550000001756793447147011222_">
			<path style="fill:#FFFFFF;filter:url(#Adobe_OpacityMaskFilter_00000106829602211498884110000014458122202336936625_);" d="
				M435.2,0H0v511h435.2V0z"/>
		</mask>
		<g class="st11">
			<path class="st12" d="M344.9,255.5c0,70.1-56.9,127.1-126.9,127.4V128.1C288,128.4,344.9,185.4,344.9,255.5z"/>
		</g>
		<defs>
			
				<filter id="Adobe_OpacityMaskFilter_00000001662626828777050340000004592067113839623861_" filterUnits="userSpaceOnUse" x="153.4" y="211.5" width="126.4" height="99.8">
				<feColorMatrix  type="matrix" values="1 0 0 0 0  0 1 0 0 0  0 0 1 0 0  0 0 0 1 0"/>
			</filter>
		</defs>
		
			<mask maskUnits="userSpaceOnUse" x="153.4" y="211.5" width="126.4" height="99.8" id="mask4_379_427_00000179643993451547569120000014523116721423206064_">
			<path style="fill:#FFFFFF;filter:url(#Adobe_OpacityMaskFilter_00000001662626828777050340000004592067113839623861_);" d="
				M435.2,0H0v511h435.2V0z"/>
		</mask>
		<g class="st14">
			<path class="st15" d="M275.4,237.2L218,294.5l-12.4,12.4c-2.9,2.9-6.8,4.4-10.6,4.4s-7.7-1.5-10.6-4.4l-26.6-26.7
				c-5.9-5.9-5.9-15.3,0-21.2c5.8-5.9,15.3-5.9,21.2,0l16.1,16.1l59.2-59.2c5.9-5.9,15.4-5.9,21.2,0
				C281.2,221.8,281.2,231.3,275.4,237.2z"/>
		</g>
		<defs>
			
				<filter id="Adobe_OpacityMaskFilter_00000070798226843076599150000010937078735225822883_" filterUnits="userSpaceOnUse" x="218" y="211.5" width="61.8" height="83">
				<feColorMatrix  type="matrix" values="1 0 0 0 0  0 1 0 0 0  0 0 1 0 0  0 0 0 1 0"/>
			</filter>
		</defs>
		
			<mask maskUnits="userSpaceOnUse" x="218" y="211.5" width="61.8" height="83" id="mask5_379_427_00000085222771757490436830000002226762246842641845_">
			<path style="fill:#FFFFFF;filter:url(#Adobe_OpacityMaskFilter_00000070798226843076599150000010937078735225822883_);" d="
				M435.2,0H0v511h435.2V0z"/>
		</mask>
		<g class="st17">
			<path class="st18" d="M275.4,237.2L218,294.5v-42.4l36.2-36.2c5.9-5.9,15.4-5.9,21.2,0C281.2,221.8,281.2,231.3,275.4,237.2z"/>
		</g>
	</g>
</g>
</svg>
