<?xml version="1.0" encoding="utf-8"?>
<!-- Generator: Adobe Illustrator 26.0.0, SVG Export Plug-In . SVG Version: 6.00 Build 0)  -->
<svg version="1.1" id="Layer_1" xmlns="http://www.w3.org/2000/svg" xmlns:xlink="http://www.w3.org/1999/xlink" x="0px" y="0px"
	 viewBox="0 0 472 512" style="enable-background:new 0 0 472 512;" xml:space="preserve">
<style type="text/css">
	.st0{clip-path:url(#SVGID_00000166677567012046562700000017033259601507295127_);}
	.st1{fill:#FFFFFF;filter:url(#Adobe_OpacityMaskFilter);}
	.st2{mask:url(#mask0_379_561_00000023244893246916759530000017800852712462407829_);}
	.st3{fill:#E9F2FF;}
	.st4{fill:#FFFFFF;filter:url(#Adobe_OpacityMaskFilter_00000050657221469019935230000002346028095298928538_);}
	.st5{mask:url(#mask2_379_561_00000158743914642803215190000015065997892150140347_);}
	.st6{fill:#FFFFFF;filter:url(#Adobe_OpacityMaskFilter_00000068663142221563844050000007905060334834204565_);}
	.st7{mask:url(#mask4_379_561_00000123423520711332323030000003205628502587483071_);}
	.st8{fill:#FFFFFF;filter:url(#Adobe_OpacityMaskFilter_00000086671518385833089950000012961938915217574806_);}
	.st9{mask:url(#mask6_379_561_00000072261156544733260920000004326553949502816405_);}
	.st10{fill:#FFFFFF;filter:url(#Adobe_OpacityMaskFilter_00000017486664364022311810000004343177741391034516_);}
	.st11{mask:url(#mask8_379_561_00000171707064934280666790000016599838237957403030_);}
	.st12{fill:#FFFFFF;}
	.st13{fill:#FFFFFF;filter:url(#Adobe_OpacityMaskFilter_00000074410932145830463000000010656605369655651976_);}
	.st14{mask:url(#mask10_379_561_00000099628386271183618830000017925884811227234954_);}
	.st15{fill:#FFFFFF;filter:url(#Adobe_OpacityMaskFilter_00000094596228372685931410000004934481923771001235_);}
	.st16{mask:url(#mask12_379_561_00000008139483016789412530000004397692049070648255_);}
	.st17{fill:#FFFFFF;filter:url(#Adobe_OpacityMaskFilter_00000170980312418249928990000014838357758127695788_);}
	.st18{mask:url(#mask13_379_561_00000034803882253740530870000017901159106793992870_);}
	.st19{fill:#FFFFFF;filter:url(#Adobe_OpacityMaskFilter_00000127745003048873507030000002168293452391327128_);}
	.st20{mask:url(#mask14_379_561_00000060011468134426956110000000337669386732949646_);}
	.st21{fill:#8B8892;}
	.st22{fill:#FFFFFF;filter:url(#Adobe_OpacityMaskFilter_00000073000883209367428590000007715397207971123342_);}
	.st23{mask:url(#mask15_379_561_00000030460488302503766290000006573149028576566706_);}
	.st24{fill:#787780;}
</style>
<g>
	<defs>
		<rect id="SVGID_1_" width="472" height="512"/>
	</defs>
	<clipPath id="SVGID_00000052101545493997286610000005332332320554365110_">
		<use xlink:href="#SVGID_1_"  style="overflow:visible;"/>
	</clipPath>
	<g style="clip-path:url(#SVGID_00000052101545493997286610000005332332320554365110_);">
		<defs>
			<filter id="Adobe_OpacityMaskFilter" filterUnits="userSpaceOnUse" x="0" y="152.6" width="185.1" height="146.5">
				<feColorMatrix  type="matrix" values="1 0 0 0 0  0 1 0 0 0  0 0 1 0 0  0 0 0 1 0"/>
			</filter>
		</defs>
		
			<mask maskUnits="userSpaceOnUse" x="0" y="152.6" width="185.1" height="146.5" id="mask0_379_561_00000023244893246916759530000017800852712462407829_">
			<path class="st1" d="M472,0H0v512h472V0z"/>
		</mask>
		<g class="st2">
			<path class="st3" d="M185,299.1H0V197c0-24.5,19.9-44.4,44.4-44.4h96.3c24.5,0,44.4,19.9,44.4,44.4v102.1H185z"/>
		</g>
		<defs>
			
				<filter id="Adobe_OpacityMaskFilter_00000078741110351404746800000003629395460112609711_" filterUnits="userSpaceOnUse" x="39.8" y="24.4" width="105.4" height="105.4">
				<feColorMatrix  type="matrix" values="1 0 0 0 0  0 1 0 0 0  0 0 1 0 0  0 0 0 1 0"/>
			</filter>
		</defs>
		
			<mask maskUnits="userSpaceOnUse" x="39.8" y="24.4" width="105.4" height="105.4" id="mask2_379_561_00000158743914642803215190000015065997892150140347_">
			<path style="fill:#FFFFFF;filter:url(#Adobe_OpacityMaskFilter_00000078741110351404746800000003629395460112609711_);" d="
				M472,0H0v512h472V0z"/>
		</mask>
		<g class="st5">
			<path class="st3" d="M92.5,129.8c-29.1,0-52.7-23.6-52.7-52.7s23.6-52.7,52.7-52.7c29.1,0,52.7,23.6,52.7,52.7
				S121.6,129.8,92.5,129.8z"/>
		</g>
		<defs>
			
				<filter id="Adobe_OpacityMaskFilter_00000058589160698672354720000008693430712490494631_" filterUnits="userSpaceOnUse" x="286.4" y="152.6" width="185" height="146.5">
				<feColorMatrix  type="matrix" values="1 0 0 0 0  0 1 0 0 0  0 0 1 0 0  0 0 0 1 0"/>
			</filter>
		</defs>
		
			<mask maskUnits="userSpaceOnUse" x="286.4" y="152.6" width="185" height="146.5" id="mask4_379_561_00000123423520711332323030000003205628502587483071_">
			<path style="fill:#FFFFFF;filter:url(#Adobe_OpacityMaskFilter_00000058589160698672354720000008693430712490494631_);" d="
				M472,0H0v512h472V0z"/>
		</mask>
		<g class="st7">
			<path class="st3" d="M471.4,299.1h-185V197c0-24.5,19.9-44.4,44.4-44.4H427c24.5,0,44.4,19.9,44.4,44.4V299.1z"/>
		</g>
		<defs>
			
				<filter id="Adobe_OpacityMaskFilter_00000142167849414548341200000018368299172713967243_" filterUnits="userSpaceOnUse" x="326.2" y="24.4" width="105.4" height="105.4">
				<feColorMatrix  type="matrix" values="1 0 0 0 0  0 1 0 0 0  0 0 1 0 0  0 0 0 1 0"/>
			</filter>
		</defs>
		
			<mask maskUnits="userSpaceOnUse" x="326.2" y="24.4" width="105.4" height="105.4" id="mask6_379_561_00000072261156544733260920000004326553949502816405_">
			<path style="fill:#FFFFFF;filter:url(#Adobe_OpacityMaskFilter_00000142167849414548341200000018368299172713967243_);" d="
				M472,0H0v512h472V0z"/>
		</mask>
		<g class="st9">
			<path class="st3" d="M378.9,129.8c-29.1,0-52.7-23.6-52.7-52.7s23.6-52.7,52.7-52.7s52.7,23.6,52.7,52.7S407.9,129.8,378.9,129.8
				z"/>
		</g>
		<defs>
			
				<filter id="Adobe_OpacityMaskFilter_00000152970122485334670100000005436472208780050325_" filterUnits="userSpaceOnUse" x="135.3" y="139.6" width="201.4" height="159.5">
				<feColorMatrix  type="matrix" values="1 0 0 0 0  0 1 0 0 0  0 0 1 0 0  0 0 0 1 0"/>
			</filter>
		</defs>
		
			<mask maskUnits="userSpaceOnUse" x="135.3" y="139.6" width="201.4" height="159.5" id="mask8_379_561_00000171707064934280666790000016599838237957403030_">
			<path style="fill:#FFFFFF;filter:url(#Adobe_OpacityMaskFilter_00000152970122485334670100000005436472208780050325_);" d="
				M472,0H0v512h472V0z"/>
		</mask>
		<g class="st11">
			<path class="st12" d="M336.7,299.1H135.3V187.9c0-26.6,21.7-48.3,48.3-48.3h104.8c26.6,0,48.3,21.7,48.3,48.3V299.1z"/>
		</g>
		<defs>
			
				<filter id="Adobe_OpacityMaskFilter_00000034081693253942166510000015817547601804179599_" filterUnits="userSpaceOnUse" x="178.6" y="0" width="114.8" height="114.8">
				<feColorMatrix  type="matrix" values="1 0 0 0 0  0 1 0 0 0  0 0 1 0 0  0 0 0 1 0"/>
			</filter>
		</defs>
		
			<mask maskUnits="userSpaceOnUse" x="178.6" y="0" width="114.8" height="114.8" id="mask10_379_561_00000099628386271183618830000017925884811227234954_">
			<path style="fill:#FFFFFF;filter:url(#Adobe_OpacityMaskFilter_00000034081693253942166510000015817547601804179599_);" d="
				M472,0H0v512h472V0z"/>
		</mask>
		<g class="st14">
			<path class="st12" d="M236,114.8c-31.6,0-57.4-25.7-57.4-57.4S204.4,0,236,0s57.4,25.7,57.4,57.4S267.6,114.8,236,114.8z"/>
		</g>
		<defs>
			
				<filter id="Adobe_OpacityMaskFilter_00000002364683810552701350000004049117207088606630_" filterUnits="userSpaceOnUse" x="0" y="276" width="471.7" height="235.8">
				<feColorMatrix  type="matrix" values="1 0 0 0 0  0 1 0 0 0  0 0 1 0 0  0 0 0 1 0"/>
			</filter>
		</defs>
		
			<mask maskUnits="userSpaceOnUse" x="0" y="276" width="471.7" height="235.8" id="mask12_379_561_00000008139483016789412530000004397692049070648255_">
			<path style="fill:#FFFFFF;filter:url(#Adobe_OpacityMaskFilter_00000002364683810552701350000004049117207088606630_);" d="
				M472,0H0v512h472V0z"/>
		</mask>
		<g class="st16">
			<path class="st12" d="M0,276v33.9l67.9,7.2c4.2,17.4,11.1,33.7,20.1,48.6l-43,53.1l48,48l53.1-43c14.9,9,31.2,15.9,48.6,20.1
				l7.2,67.9h67.9l7.2-67.9c17.4-4.2,33.7-11.1,48.6-20.1l53.1,43l48-48l-43-53.1c9-14.9,15.9-31.2,20.1-48.6l67.9-7.2V276H0z"/>
		</g>
		<defs>
			
				<filter id="Adobe_OpacityMaskFilter_00000029014730802512558200000016030156951571022491_" filterUnits="userSpaceOnUse" x="236" y="276" width="235.8" height="236">
				<feColorMatrix  type="matrix" values="1 0 0 0 0  0 1 0 0 0  0 0 1 0 0  0 0 0 1 0"/>
			</filter>
		</defs>
		
			<mask maskUnits="userSpaceOnUse" x="236" y="276" width="235.8" height="236" id="mask13_379_561_00000034803882253740530870000017901159106793992870_">
			<path style="fill:#FFFFFF;filter:url(#Adobe_OpacityMaskFilter_00000029014730802512558200000016030156951571022491_);" d="
				M472,0H0v512h472V0z"/>
		</mask>
		<g class="st18">
			<path class="st12" d="M236,276v236h33.9l7.2-67.9c17.4-4.2,33.7-11.1,48.6-20.1l53.1,43l48-48l-43-53.1
				c9-14.9,15.9-31.2,20.1-48.6l67.9-7.2V276H236z"/>
		</g>
		<defs>
			
				<filter id="Adobe_OpacityMaskFilter_00000078027616221304260400000001501755583454143397_" filterUnits="userSpaceOnUse" x="135.3" y="276" width="201.4" height="100.7">
				<feColorMatrix  type="matrix" values="1 0 0 0 0  0 1 0 0 0  0 0 1 0 0  0 0 0 1 0"/>
			</filter>
		</defs>
		
			<mask maskUnits="userSpaceOnUse" x="135.3" y="276" width="201.4" height="100.7" id="mask14_379_561_00000060011468134426956110000000337669386732949646_">
			<path style="fill:#FFFFFF;filter:url(#Adobe_OpacityMaskFilter_00000078027616221304260400000001501755583454143397_);" d="
				M472,0H0v512h472V0z"/>
		</mask>
		<g class="st20">
			<path class="st21" d="M135.3,276c0,55.6,45.1,100.7,100.7,100.7S336.7,331.6,336.7,276H135.3z"/>
		</g>
		<defs>
			
				<filter id="Adobe_OpacityMaskFilter_00000127740540436195958080000013955307479588211359_" filterUnits="userSpaceOnUse" x="236" y="276" width="100.7" height="100.7">
				<feColorMatrix  type="matrix" values="1 0 0 0 0  0 1 0 0 0  0 0 1 0 0  0 0 0 1 0"/>
			</filter>
		</defs>
		
			<mask maskUnits="userSpaceOnUse" x="236" y="276" width="100.7" height="100.7" id="mask15_379_561_00000030460488302503766290000006573149028576566706_">
			<path style="fill:#FFFFFF;filter:url(#Adobe_OpacityMaskFilter_00000127740540436195958080000013955307479588211359_);" d="
				M472,0H0v512h472V0z"/>
		</mask>
		<g class="st23">
			<path class="st24" d="M236,276v100.7c55.6,0,100.7-45.1,100.7-100.7H236z"/>
		</g>
	</g>
</g>
</svg>
