<?xml version="1.0" encoding="utf-8"?>
<!-- Generator: Adobe Illustrator 26.0.0, SVG Export Plug-In . SVG Version: 6.00 Build 0)  -->
<svg version="1.1" id="Capa_1" xmlns="http://www.w3.org/2000/svg" xmlns:xlink="http://www.w3.org/1999/xlink" x="0px" y="0px"
	 viewBox="0 0 512 512" style="enable-background:new 0 0 512 512;" xml:space="preserve">
<style type="text/css">
	.st0{fill:#FFFFFF;}
	.st1{fill:#D90000;}
</style>
<g>
	<path class="st0" d="M104.8,286.6c-7.5,6.9-16.7,15.2-25.8,23.5c-34.4,31.3-32.3,26.5-31.7,71.1c0.2,18.2-0.3,36.5,1.2,54.6
		c1.4,17.1,16,29.7,31.8,29.7c117.8,0,235.5,0,353.3,0c16.8,0,31.3-14.6,31.3-31.6c0.1-26.3-0.4-52.7,0.2-79
		c0.3-12.1-4.2-21-12.7-28.9c-18.2-16.9-36.4-33.9-54.2-51.3c-3.1-3-5.4-8.3-5.5-12.6c-0.5-24.9-0.1-49.8-0.4-74.6
		c-0.1-5.7,1.9-8.5,6.8-11.4c5.8-3.4,11.4-8.2,15.5-13.5c18.4-23.8,10.5-61.6-16.2-73.4c0,12.5,0,24.5,0,36.5
		c0,5.7-16.7,21.6-22.3,21.3c-6.9-0.3-21.9-16.3-21.9-23.5c0-11.3,0-22.7,0-34.8c-33,17.4-35.1,65.1-4.5,84.6
		c9.3,5.9,11.5,12,10.7,21.5c-0.6,6.9-0.1,13.9-0.1,20.8c0,7.1,0,14.1,0,23.3c-5.9-5.3-9.8-9-14-12.5c-12.6-10.3-28.3-12.1-42-3.7
		c-6.6,4-12.2,9.7-18.1,14.7c-4.9,4.1-9.6,8.4-15.1,13.3c0-23.8,0-46,0-68.9c8,0,15.5,0,22.7,0c0.5-1.6,0.9-2.4,0.9-3.2
		c0-33.6,0.3-67.1-0.1-100.7c-0.2-12.8-7-22.5-18.1-28.8c-25.6-14.5-56,2.5-56.5,31.9c-0.5,31.5-0.1,63.1-0.1,94.6
		c0,1.9,0.6,3.8,1,6.5c8.1,0,15.8,0,23.5,0c0,22.9,0,44.8,0,68.5c-7.1-6.8-12.9-12.3-18.8-17.8c-21.5-20.3-39.6-20.5-61.4-0.7
		c-11,10-22.1,20-34.3,31.1c0-31.7,0-61.6,0-92.9c8.4,3.2,18.5-5.8,24.4,6.3c0.3,0.7,2.1,1,3.1,1c9.5,0.1,18.9,0,28.8,0
		c0-23.2,0-45.3,0-68.3c-10,0-19.5-0.1-29,0.1c-1.3,0-3.7,1.4-3.8,2.4c-0.8,6-5.2,4.4-8.6,4.4c-20.5,0.1-41.1-0.2-61.6,0.2
		c-17.6,0.4-29.4,16.9-24.9,33.9c3.6,13.4,12.8,20,28.5,20.2c14.5,0.2,13.3-1.8,13.3,13.7c0,30.4-0.1,60.8,0.2,91.1
		C100.3,279,102.8,282.1,104.8,286.6z"/>
	<path d="M104.8,286.6c-2-4.6-4.5-7.7-4.5-10.8c-0.3-30.4-0.2-60.8-0.2-91.1c0-15.5,1.2-13.5-13.3-13.7
		c-15.6-0.2-24.9-6.8-28.5-20.2c-4.6-17,7.2-33.5,24.9-33.9c20.5-0.4,41.1-0.1,61.6-0.2c3.4,0,7.9,1.5,8.6-4.4
		c0.1-1,2.5-2.4,3.8-2.4c9.5-0.2,19-0.1,29-0.1c0,23,0,45.1,0,68.3c-9.9,0-19.3,0-28.8,0c-1.1,0-2.8-0.3-3.1-1
		c-5.9-12.1-16-3.1-24.4-6.3c0,31.3,0,61.2,0,92.9c12.3-11.1,23.3-21.1,34.3-31.1c21.8-19.8,39.8-19.7,61.4,0.7
		c5.8,5.5,11.7,11.1,18.8,17.8c0-23.7,0-45.6,0-68.5c-7.7,0-15.4,0-23.5,0c-0.5-2.7-1-4.6-1-6.5c-0.1-31.5-0.4-63.1,0.1-94.6
		c0.5-29.4,31-46.5,56.5-31.9c11.1,6.3,17.9,15.9,18.1,28.8c0.4,33.6,0.1,67.1,0.1,100.7c0,0.8-0.4,1.6-0.9,3.2
		c-7.3,0-14.7,0-22.7,0c0,22.9,0,45.1,0,68.9c5.5-4.8,10.3-9.1,15.1-13.3c5.9-5,11.5-10.7,18.1-14.7c13.7-8.4,29.4-6.6,42,3.7
		c4.2,3.4,8.1,7.2,14,12.5c0-9.2,0-16.3,0-23.3c0-6.9-0.5-13.9,0.1-20.8c0.8-9.5-1.4-15.6-10.7-21.5c-30.7-19.5-28.5-67.2,4.5-84.6
		c0,12.1,0,23.5,0,34.8c0,7.2,14.9,23.2,21.9,23.5c5.6,0.2,22.2-15.6,22.3-21.3c0.1-12,0-24,0-36.5c26.7,11.9,34.6,49.6,16.2,73.4
		c-4.1,5.3-9.7,10.1-15.5,13.5c-4.9,2.9-6.9,5.7-6.8,11.4c0.3,24.9-0.1,49.8,0.4,74.6c0.1,4.3,2.4,9.6,5.5,12.6
		c17.8,17.4,36,34.4,54.2,51.3c8.5,7.9,13,16.8,12.7,28.9c-0.6,26.3-0.2,52.7-0.2,79c0,17-14.5,31.6-31.3,31.6
		c-117.8,0-235.5,0-353.3,0c-15.8,0-30.4-12.6-31.8-29.7c-1.5-18.1-0.9-36.4-1.2-54.6c-0.6-44.6-2.7-39.8,31.7-71.1
		C88.1,301.9,97.2,293.5,104.8,286.6z M192.4,446.9c35,0,70,0,104.9,0c13.8,0,20.1-6.4,20.1-20.2c0.1-21.1-0.4-42.2,0.2-63.3
		c0.3-10.8-3-18.7-11.1-25.8c-20.5-18.1-40.8-36.5-60.7-55.2c-13-12.2-25.1-25.4-37.9-37.8c-9-8.7-17-9-26-0.9
		c-36,32.6-72,65.2-107.6,98.3c-3.8,3.5-6.8,9.8-6.9,14.9c-0.7,23.1-0.3,46.2-0.1,69.4c0.1,14.3,6.5,20.5,20.8,20.5
		C123,447,157.7,446.9,192.4,446.9z M339.1,370.2c0,26,0,51,0,76.7c28.3,0,57.5,0,86.7,0c13.8,0,20.2-6.4,20.3-20.1
		c0.1-22.6-0.1-45.1,0.1-67.7c0.1-7.5-2.5-13.3-8-18.3c-10.7-9.8-21.1-19.8-31.6-29.7c-23.4-22-46.8-44-70.1-66.1
		c-6.5-6.2-14.3-10.1-21.8-4.3c-13.2,10.1-25.1,21.7-37.9,32.9c15.4,14.6,30.4,27.4,43.8,41.8c7.2,7.8,12.7,17.7,17.1,27.4
		c2.3,5,3.8,7.2,9.4,7.2c18.7-0.3,37.5-0.1,56.3-0.1c0,7.3,0,13.7,0,20.5C382.1,370.2,361.5,370.2,339.1,370.2z"/>
	<path class="st0" d="M192.4,446.9c-34.7,0-69.4,0-104.1,0c-14.3,0-20.7-6.3-20.8-20.5c-0.2-23.1-0.6-46.3,0.1-69.4
		c0.1-5.1,3.2-11.4,6.9-14.9c35.6-33.1,71.5-65.7,107.6-98.3c9-8.1,17-7.9,26,0.9c12.8,12.4,24.9,25.6,37.9,37.8
		c19.9,18.7,40.2,37.2,60.7,55.2c8.1,7.1,11.4,15,11.1,25.8c-0.7,21.1-0.1,42.2-0.2,63.3c-0.1,13.8-6.4,20.2-20.1,20.2
		C262.4,447,227.4,446.9,192.4,446.9z"/>
	<path class="st0" d="M339.1,370.2c22.5,0,43,0,64.2,0c0-6.8,0-13.2,0-20.5c-18.8,0-37.5-0.2-56.3,0.1c-5.6,0.1-7.1-2.1-9.4-7.2
		c-4.5-9.8-9.9-19.7-17.1-27.4c-13.4-14.4-28.3-27.2-43.8-41.8c12.8-11.2,24.8-22.8,37.9-32.9c7.5-5.7,15.3-1.8,21.8,4.3
		c23.3,22.1,46.7,44.1,70.1,66.1c10.5,9.9,21,19.9,31.6,29.7c5.5,5,8.1,10.8,8,18.3c-0.3,22.6,0,45.1-0.1,67.7
		c-0.1,13.7-6.5,20.1-20.3,20.1c-29.2,0.1-58.4,0-86.7,0C339.1,421.2,339.1,396.2,339.1,370.2z"/>
</g>
<path class="st1" d="M392.3,205.2c0-6.4,0-12.9-0.1-19.3c-0.1-5.7,1.9-8.5,6.8-11.4c5.8-3.4,11.4-8.2,15.5-13.5
	c18.4-23.8,10.5-61.6-16.2-73.4c0,12.5,0,24.5,0,36.5c0,5.7-16.7,21.6-22.3,21.3c-6.9-0.3-21.9-16.3-21.9-23.5c0-11.3,0-22.7,0-34.8
	c-33,17.4-35.1,65.1-4.5,84.6c9.3,5.9,11.5,12,10.7,21.5c-0.3,3.9-0.3,7.9-0.2,11.9H271c0-8.3,0-16.5,0-24.9c8,0,15.5,0,22.7,0
	c0.5-1.6,0.9-2.4,0.9-3.2c0-33.6,0.3-67.1-0.1-100.7c-0.2-12.8-7-22.5-18.1-28.8c-25.5-14.5-56,2.5-56.5,31.9
	c-0.5,31.5-0.1,63.1-0.1,94.6c0,1.9,0.6,3.8,1,6.5c8.1,0,15.8,0,23.5,0c0,8.2,0,16.3,0,24.4H129.9c0-12,0-24,0-36.2
	c8.4,3.2,18.5-5.8,24.4,6.3c0.3,0.7,2.1,1,3.1,1c9.5,0.1,18.9,0,28.8,0c0-23.2,0-45.3,0-68.3c-10,0-19.5-0.1-29,0.1
	c-1.3,0-3.7,1.4-3.8,2.4c-0.8,6-5.2,4.4-8.6,4.4c-20.5,0.1-41.1-0.2-61.6,0.2C65.6,115.5,53.7,132,58.3,149
	c3.6,13.4,12.8,20,28.5,20.2c14.5,0.2,13.3-1.8,13.3,13.7c0,7.4,0,14.8,0,22.2"/>
</svg>
