<?xml version="1.0" encoding="utf-8"?>
<!-- Generator: Adobe Illustrator 26.0.0, SVG Export Plug-In . SVG Version: 6.00 Build 0)  -->
<svg version="1.1" id="Layer_1" xmlns="http://www.w3.org/2000/svg" xmlns:xlink="http://www.w3.org/1999/xlink" x="0px" y="0px"
	 viewBox="0 0 342 512" style="enable-background:new 0 0 342 512;" xml:space="preserve">
<style type="text/css">
	.st0{fill:#D90000;}
</style>
<path d="M176.8,368.6h20.5c12,0,21.7-9.7,21.7-21.7s-9.7-21.7-21.7-21.7h-4.7v-88.3c14.8-0.8,26.3-13,26.3-27.8v-90.6
	c0-3-2.5-5.5-5.5-5.5s-5.5,2.5-5.5,5.5v90.6c0,9.3-7.6,16.9-16.9,16.9h-14.3V118.8c0-3-2.5-5.5-5.5-5.5h-29.8c-3,0-5.5,2.5-5.5,5.5
	v107.4h-10.3c-3,0-5.5,2.5-5.5,5.5c0,0,0,0,0,0v93.7h-4.7c-12,0-21.7,9.7-21.7,21.7s9.7,21.7,21.7,21.7h20.5 M181.6,275.7h-50.4
	v-13.8h50.4V275.7z M131.2,286.8h50.4v13.8h-50.4V286.8z M147.1,124.3h18.7v101.9h-18.7V124.3z M131.2,237.1h50.4v13.8h-50.4V237.1z
	 M147.1,368.6h18.7 M208,347c0,5.9-4.8,10.6-10.6,10.6h-81.8c-5.9,0-10.6-4.8-10.6-10.6s4.8-10.6,10.6-10.6h81.8
	C203.2,336.4,208,341.1,208,347z M131.2,325.3v-13.8h50.4v13.8H131.2z"/>
<path class="st0" d="M165.8,367.8v16l-9.4,13.9l-9.4-13.9v-16h-11v17.7c0,1.1,0.3,2.2,0.9,3.1l14.9,22.1c1.7,2.5,5.1,3.2,7.7,1.5
	c0.6-0.4,1.1-0.9,1.5-1.5l14.9-22.1c0.6-0.9,0.9-2,0.9-3.1v-17.7H165.8z"/>
</svg>
