<?xml version="1.0" encoding="utf-8"?>
<!-- Generator: Adobe Illustrator 26.0.0, SVG Export Plug-In . SVG Version: 6.00 Build 0)  -->
<svg version="1.1" id="Layer_1" xmlns="http://www.w3.org/2000/svg" xmlns:xlink="http://www.w3.org/1999/xlink" x="0px" y="0px"
	 viewBox="0 0 683 683" style="enable-background:new 0 0 683 683;" xml:space="preserve">
<style type="text/css">
	.st0{clip-path:url(#SVGID_00000124162506971659663520000016389119937925194907_);}
	.st1{fill:#FFFFFF;filter:url(#Adobe_OpacityMaskFilter);}
	.st2{mask:url(#mask0_370_3_00000157310089582996850210000012009631460677575058_);}
	.st3{fill:#D90000;}
	.st4{fill:#FFFFFF;filter:url(#Adobe_OpacityMaskFilter_00000146491254480617164260000010556600341096162450_);}
	.st5{mask:url(#mask1_370_3_00000018944816074307906480000015314138266048127676_);}
	.st6{fill:#FFFFFF;filter:url(#Adobe_OpacityMaskFilter_00000052825926380943360260000002679721593000650931_);}
	.st7{mask:url(#mask2_370_3_00000173848268794248625330000015711452279706194829_);}
	.st8{fill:#FFFFFF;filter:url(#Adobe_OpacityMaskFilter_00000115517054343812244420000010511081167451530647_);}
	.st9{mask:url(#mask3_370_3_00000000907653350267825380000010686531759687167140_);}
	.st10{fill:#FFFFFF;filter:url(#Adobe_OpacityMaskFilter_00000044859636227479237680000011692568269145647021_);}
	.st11{mask:url(#mask4_370_3_00000146458801576578656480000010158855802718188439_);}
	.st12{fill:#FFFFFF;filter:url(#Adobe_OpacityMaskFilter_00000056428614324723753200000007407109363040834187_);}
	.st13{mask:url(#mask5_370_3_00000018942015832960219290000008589682341432269963_);}
	.st14{fill:#FFFFFF;filter:url(#Adobe_OpacityMaskFilter_00000160149067744987239040000008118265384872238514_);}
	.st15{mask:url(#mask6_370_3_00000050627119102358873530000004380982077236415641_);}
</style>
<g>
	<defs>
		<rect id="SVGID_1_" width="682.7" height="682.7"/>
	</defs>
	<clipPath id="SVGID_00000064338648024866806840000000473748885445890750_">
		<use xlink:href="#SVGID_1_"  style="overflow:visible;"/>
	</clipPath>
	<g style="clip-path:url(#SVGID_00000064338648024866806840000000473748885445890750_);">
		<defs>
			<filter id="Adobe_OpacityMaskFilter" filterUnits="userSpaceOnUse" x="506.6" y="42.7" width="112" height="112">
				<feColorMatrix  type="matrix" values="1 0 0 0 0  0 1 0 0 0  0 0 1 0 0  0 0 0 1 0"/>
			</filter>
		</defs>
		
			<mask maskUnits="userSpaceOnUse" x="506.6" y="42.7" width="112" height="112" id="mask0_370_3_00000157310089582996850210000012009631460677575058_">
			<path class="st1" d="M682.7,0H0v682.7h682.7V0z"/>
		</mask>
		<g class="st2">
			<path class="st3" d="M562.6,154.7c-15,0-29-5.8-39.6-16.4c-10.6-10.6-16.4-24.6-16.4-39.6c0-15,5.8-29,16.4-39.6
				s24.6-16.4,39.6-16.4s29,5.8,39.6,16.4c10.6,10.6,16.4,24.6,16.4,39.6c0,15-5.8,29-16.4,39.6
				C591.6,148.9,577.6,154.7,562.6,154.7z M562.6,69.4c-7.8,0-15.2,3.1-20.7,8.6s-8.6,12.9-8.6,20.7c0,7.8,3.1,15.2,8.6,20.7
				s12.9,8.6,20.7,8.6c7.8,0,15.2-3.1,20.7-8.6s8.6-12.9,8.6-20.7c0-7.8-3.1-15.2-8.6-20.7S570.4,69.4,562.6,69.4z"/>
		</g>
		<defs>
			
				<filter id="Adobe_OpacityMaskFilter_00000004534279485759890960000017583646155010327964_" filterUnits="userSpaceOnUse" x="64.1" y="528" width="112" height="112">
				<feColorMatrix  type="matrix" values="1 0 0 0 0  0 1 0 0 0  0 0 1 0 0  0 0 0 1 0"/>
			</filter>
		</defs>
		
			<mask maskUnits="userSpaceOnUse" x="64.1" y="528" width="112" height="112" id="mask1_370_3_00000018944816074307906480000015314138266048127676_">
			<path style="fill:#FFFFFF;filter:url(#Adobe_OpacityMaskFilter_00000004534279485759890960000017583646155010327964_);" d="
				M682.7,0H0v682.7h682.7V0z"/>
		</mask>
		<g class="st5">
			<path class="st3" d="M120.1,639.9c-15,0-29-5.8-39.6-16.4s-16.4-24.6-16.4-39.6s5.8-29,16.4-39.6c21.8-21.8,57.4-21.8,79.2,0
				c10.6,10.6,16.4,24.6,16.4,39.6s-5.8,29-16.4,39.6C149.1,634.1,135,639.9,120.1,639.9z M120.1,554.6c-7.5,0-15,2.9-20.7,8.6
				c-5.5,5.5-8.6,12.9-8.6,20.7c0,7.8,3.1,15.2,8.6,20.7s12.9,8.6,20.7,8.6s15.2-3.1,20.7-8.6s8.6-12.9,8.6-20.7
				c0-7.8-3.1-15.2-8.6-20.7C135.1,557.5,127.6,554.6,120.1,554.6z"/>
		</g>
		<defs>
			
				<filter id="Adobe_OpacityMaskFilter_00000154407217051590456330000014237329436111841932_" filterUnits="userSpaceOnUse" x="263.3" y="119.6" width="419.4" height="563.1">
				<feColorMatrix  type="matrix" values="1 0 0 0 0  0 1 0 0 0  0 0 1 0 0  0 0 0 1 0"/>
			</filter>
		</defs>
		
			<mask maskUnits="userSpaceOnUse" x="263.3" y="119.6" width="419.4" height="563.1" id="mask2_370_3_00000173848268794248625330000015711452279706194829_">
			<path style="fill:#FFFFFF;filter:url(#Adobe_OpacityMaskFilter_00000154407217051590456330000014237329436111841932_);" d="
				M682.7,0H0v682.7h682.7V0z"/>
		</mask>
		<g class="st7">
			<path class="st3" d="M341.3,682.7c-22.6,0-45.3-2.2-67.3-6.6c-7.2-1.4-11.9-8.5-10.5-15.7c1.4-7.2,8.5-11.9,15.7-10.5
				c20.3,4.1,41.2,6.1,62.1,6.1c84,0,163.1-32.7,222.5-92.2c59.4-59.4,92.2-138.5,92.2-222.5c0-37.1-6.4-73.4-19-108
				c-12.2-33.4-29.9-64.3-52.5-91.8c-4.7-5.7-3.9-14.1,1.8-18.8c5.7-4.7,14.1-3.9,18.8,1.8c24.6,29.9,43.8,63.4,57,99.6
				c13.7,37.5,20.6,76.9,20.6,117.1c0,46.1-9,90.8-26.8,132.9c-17.2,40.6-41.8,77.1-73.1,108.5c-31.3,31.3-67.8,56-108.5,73.1
				C432.1,673.6,387.4,682.7,341.3,682.7z"/>
		</g>
		<defs>
			
				<filter id="Adobe_OpacityMaskFilter_00000044147218710160163260000016411077117422564529_" filterUnits="userSpaceOnUse" x="0" y="0" width="419.9" height="562.9">
				<feColorMatrix  type="matrix" values="1 0 0 0 0  0 1 0 0 0  0 0 1 0 0  0 0 0 1 0"/>
			</filter>
		</defs>
		
			<mask maskUnits="userSpaceOnUse" x="0" y="0" width="419.9" height="562.9" id="mask3_370_3_00000000907653350267825380000010686531759687167140_">
			<path style="fill:#FFFFFF;filter:url(#Adobe_OpacityMaskFilter_00000044147218710160163260000016411077117422564529_);" d="
				M682.7,0H0v682.7h682.7V0z"/>
		</mask>
		<g class="st9">
			<path class="st3" d="M87.9,562.9c-3.8,0-7.7-1.7-10.3-4.9c-24.6-29.9-43.8-63.4-57-99.6C6.9,421,0,381.6,0,341.3
				c0-46.1,9-90.8,26.8-132.9C44,167.8,68.6,131.3,100,100c31.3-31.3,67.8-56,108.5-73.1C250.6,9,295.3,0,341.3,0
				c22.9,0,45.7,2.3,67.9,6.8c7.2,1.5,11.9,8.5,10.4,15.7s-8.5,11.9-15.7,10.4c-20.5-4.1-41.6-6.2-62.7-6.2
				c-84,0-163.1,32.7-222.5,92.2c-59.4,59.4-92.2,138.5-92.2,222.5c0,37.1,6.4,73.4,19,108c12.2,33.4,29.9,64.3,52.5,91.8
				c4.7,5.7,3.9,14.1-1.8,18.8C93.9,561.9,90.9,562.9,87.9,562.9z"/>
		</g>
		<defs>
			
				<filter id="Adobe_OpacityMaskFilter_00000102504852256173123230000016855098045080062110_" filterUnits="userSpaceOnUse" x="98.7" y="98.7" width="485.3" height="485.3">
				<feColorMatrix  type="matrix" values="1 0 0 0 0  0 1 0 0 0  0 0 1 0 0  0 0 0 1 0"/>
			</filter>
		</defs>
		
			<mask maskUnits="userSpaceOnUse" x="98.7" y="98.7" width="485.3" height="485.3" id="mask4_370_3_00000146458801576578656480000010158855802718188439_">
			<path style="fill:#FFFFFF;filter:url(#Adobe_OpacityMaskFilter_00000102504852256173123230000016855098045080062110_);" d="
				M682.7,0H0v682.7h682.7V0z"/>
		</mask>
		<g class="st11">
			<path d="M383,584h-83.4c-7.4,0-13.3-6-13.3-13.3v-25.8c-17.5-4.7-34.3-11.7-50-20.7L218,542.3c-2.5,2.5-5.9,3.9-9.4,3.9
				s-6.9-1.4-9.4-3.9l-58.9-59c-5.2-5.2-5.2-13.6,0-18.9l18.2-18.2c-9.1-15.7-16-32.5-20.7-50H112c-3.5,0-6.9-1.4-9.4-3.9
				s-3.9-5.9-3.9-9.4v-83.4c0-7.4,6-13.3,13.3-13.3h25.7c4.7-17.5,11.7-34.3,20.7-50L140.3,218c-2.5-2.5-3.9-5.9-3.9-9.4
				s1.4-6.9,3.9-9.4l59-58.9c5.2-5.2,13.6-5.2,18.9,0l18.1,18.1c15.7-9.1,32.5-16,50-20.7V112c0-7.4,6-13.3,13.3-13.3H383
				c7.4,0,13.3,6,13.3,13.3v25.6c17.5,4.7,34.3,11.7,50,20.7l18.1-18.1c5.2-5.2,13.6-5.2,18.9,0l59,58.9c2.5,2.5,3.9,5.9,3.9,9.4
				s-1.4,6.9-3.9,9.4L524.2,236c9.1,15.7,16,32.5,20.7,50h25.8c7.4,0,13.3,6,13.3,13.3v83.4c0,7.4-6,13.3-13.3,13.3h-25.8
				c-4.7,17.5-11.7,34.3-20.7,50l18.2,18.2c5.2,5.2,5.2,13.6,0,18.9l-58.9,59c-2.5,2.5-5.9,3.9-9.4,3.9s-6.9-1.4-9.4-3.9l-18.2-18.2
				c-15.7,9.1-32.5,16-50,20.7v25.8C396.4,578,390.4,584,383,584z M313,557.3h56.7v-23c0-6.3,4.4-11.7,10.5-13
				c21.7-4.7,42.2-13.2,60.9-25.3c5.3-3.4,12.2-2.7,16.7,1.8L474,514l40.1-40.1l-16.2-16.2c-4.4-4.4-5.2-11.4-1.8-16.7
				c12.1-18.7,20.6-39.2,25.3-60.9c1.3-6.1,6.8-10.5,13-10.5h22.9v-56.7h-22.9c-6.3,0-11.7-4.4-13-10.5
				c-4.7-21.7-13.2-42.2-25.3-60.9c-3.4-5.3-2.7-12.2,1.8-16.7l16.1-16.1l-40.1-40.1l-16.1,16.1c-4.4,4.4-11.4,5.2-16.7,1.8
				c-18.7-12.1-39.2-20.6-60.9-25.3c-6.1-1.3-10.5-6.8-10.5-13v-22.8H313v22.8c0,6.3-4.4,11.7-10.5,13
				c-21.7,4.7-42.2,13.2-60.9,25.3c-5.3,3.4-12.2,2.7-16.7-1.8l-16.1-16.1l-40.1,40.1l16.1,16.1c4.4,4.4,5.2,11.4,1.8,16.7
				c-12.1,18.7-20.6,39.2-25.3,60.9c-1.3,6.1-6.8,10.5-13,10.5h-22.9v56.7h22.9c6.3,0,11.7,4.4,13,10.5
				c4.7,21.7,13.2,42.2,25.3,60.9c3.4,5.3,2.7,12.2-1.8,16.7l-16.2,16.2l40.1,40.1l16.2-16.2c4.4-4.4,11.4-5.2,16.7-1.8
				c18.7,12.1,39.2,20.6,60.9,25.3c6.1,1.3,10.5,6.8,10.5,13V557.3z M341.3,451.5c-60.8,0-110.2-49.4-110.2-110.2
				c0-60.7,49.4-110.2,110.2-110.2s110.2,49.4,110.2,110.2S402.1,451.5,341.3,451.5z M341.3,257.8c-46,0-83.5,37.5-83.5,83.5
				s37.5,83.5,83.5,83.5s83.5-37.5,83.5-83.5S387.4,257.8,341.3,257.8z"/>
		</g>
		<defs>
			
				<filter id="Adobe_OpacityMaskFilter_00000111170340008008154490000012727221585026849153_" filterUnits="userSpaceOnUse" x="450.6" y="23.5" width="27" height="26.9">
				<feColorMatrix  type="matrix" values="1 0 0 0 0  0 1 0 0 0  0 0 1 0 0  0 0 0 1 0"/>
			</filter>
		</defs>
		
			<mask maskUnits="userSpaceOnUse" x="450.6" y="23.5" width="27" height="26.9" id="mask5_370_3_00000018942015832960219290000008589682341432269963_">
			<path style="fill:#FFFFFF;filter:url(#Adobe_OpacityMaskFilter_00000111170340008008154490000012727221585026849153_);" d="
				M682.7,0H0v682.7h682.7V0z"/>
		</mask>
		<g class="st13">
			<path class="st3" d="M464.1,50.4c-0.4,0-0.9,0-1.3-0.1c-0.4,0-0.9-0.1-1.3-0.2c-0.9-0.2-1.7-0.4-2.5-0.8
				c-0.8-0.3-1.6-0.8-2.3-1.2c-0.4-0.2-0.7-0.5-1.1-0.8c-0.3-0.3-0.7-0.6-1-0.9c-0.3-0.3-0.6-0.6-0.9-1c-0.3-0.3-0.5-0.7-0.8-1.1
				c-0.5-0.7-0.9-1.5-1.2-2.3c-0.3-0.8-0.6-1.6-0.8-2.5c-0.1-0.4-0.2-0.9-0.2-1.3c-0.1-0.4-0.1-0.9-0.1-1.3c0-0.4,0-0.9,0.1-1.3
				c0-0.4,0.1-0.9,0.2-1.3c0.2-0.9,0.4-1.7,0.8-2.5c0.3-0.8,0.8-1.6,1.2-2.3c0.2-0.4,0.5-0.7,0.8-1c0.3-0.3,0.6-0.7,0.9-1
				c0.3-0.3,0.6-0.6,1-0.9c0.3-0.3,0.7-0.5,1.1-0.8c0.7-0.5,1.5-0.9,2.3-1.2c0.8-0.3,1.6-0.6,2.5-0.8c0.4-0.1,0.9-0.2,1.3-0.2
				c0.9-0.1,1.8-0.1,2.6,0c0.4,0,0.9,0.1,1.3,0.2c0.9,0.2,1.7,0.4,2.5,0.8c0.8,0.3,1.6,0.8,2.3,1.2c0.4,0.2,0.7,0.5,1.1,0.8
				c0.3,0.3,0.7,0.6,1,0.9c0.3,0.3,0.6,0.6,0.9,1c0.3,0.3,0.5,0.7,0.8,1c0.5,0.7,0.9,1.5,1.2,2.3s0.6,1.6,0.8,2.5
				c0.1,0.4,0.1,0.9,0.2,1.3c0,0.4,0.1,0.9,0.1,1.3c0,0.4,0,0.9-0.1,1.3c0,0.4-0.1,0.9-0.2,1.3c-0.2,0.9-0.4,1.7-0.8,2.5
				c-0.3,0.8-0.8,1.6-1.2,2.3c-0.2,0.4-0.5,0.7-0.8,1.1c-0.3,0.3-0.6,0.7-0.9,1c-0.3,0.3-0.6,0.6-1,0.9c-0.3,0.3-0.7,0.5-1.1,0.8
				c-0.7,0.5-1.5,0.9-2.3,1.2c-0.8,0.3-1.6,0.6-2.5,0.8c-0.4,0.1-0.9,0.1-1.3,0.2C465,50.4,464.5,50.4,464.1,50.4z"/>
		</g>
		<defs>
			
				<filter id="Adobe_OpacityMaskFilter_00000007418465964325886870000000763139639579376300_" filterUnits="userSpaceOnUse" x="205.7" y="632.1" width="27" height="27">
				<feColorMatrix  type="matrix" values="1 0 0 0 0  0 1 0 0 0  0 0 1 0 0  0 0 0 1 0"/>
			</filter>
		</defs>
		
			<mask maskUnits="userSpaceOnUse" x="205.7" y="632.1" width="27" height="27" id="mask6_370_3_00000050627119102358873530000004380982077236415641_">
			<path style="fill:#FFFFFF;filter:url(#Adobe_OpacityMaskFilter_00000007418465964325886870000000763139639579376300_);" d="
				M682.7,0H0v682.7h682.7V0z"/>
		</mask>
		<g class="st15">
			<path class="st3" d="M219.2,659.1c-0.4,0-0.9,0-1.3-0.1c-0.4,0-0.9-0.1-1.3-0.2c-0.9-0.2-1.7-0.4-2.5-0.8
				c-0.8-0.3-1.6-0.8-2.3-1.2c-0.4-0.2-0.7-0.5-1.1-0.8c-0.3-0.3-0.7-0.6-1-0.9c-0.3-0.3-0.6-0.6-0.9-1c-0.3-0.3-0.5-0.7-0.8-1.1
				c-0.5-0.7-0.9-1.5-1.2-2.3s-0.6-1.6-0.8-2.5c-0.1-0.4-0.2-0.9-0.2-1.3c-0.1-0.4-0.1-0.9-0.1-1.3c0-0.4,0-0.9,0.1-1.3
				c0-0.4,0.1-0.9,0.2-1.3c0.2-0.9,0.4-1.7,0.8-2.5c0.3-0.8,0.8-1.6,1.2-2.3c0.2-0.4,0.5-0.7,0.8-1.1c0.3-0.3,0.6-0.7,0.9-1
				c0.3-0.3,0.6-0.6,1-0.9c0.3-0.3,0.7-0.5,1.1-0.8c0.7-0.5,1.5-0.9,2.3-1.2c0.8-0.3,1.6-0.6,2.5-0.8c0.4-0.1,0.9-0.2,1.3-0.2
				c0.9-0.1,1.8-0.1,2.6,0c0.4,0,0.9,0.1,1.3,0.2c0.9,0.2,1.7,0.4,2.5,0.8c0.8,0.3,1.6,0.8,2.3,1.2c0.4,0.2,0.7,0.5,1.1,0.8
				c0.3,0.3,0.7,0.6,1,0.9c0.3,0.3,0.6,0.6,0.9,1c0.3,0.3,0.5,0.7,0.8,1.1c0.5,0.7,0.9,1.5,1.2,2.3c0.3,0.8,0.6,1.6,0.8,2.5
				c0.1,0.4,0.1,0.9,0.2,1.3c0.1,0.4,0.1,0.9,0.1,1.3c0,0.4,0,0.9-0.1,1.3c0,0.4-0.1,0.9-0.2,1.3c-0.2,0.8-0.4,1.7-0.8,2.5
				c-0.3,0.8-0.8,1.6-1.2,2.3c-0.2,0.4-0.5,0.7-0.8,1.1c-0.3,0.3-0.6,0.7-0.9,1c-0.3,0.3-0.6,0.6-1,0.9c-0.3,0.3-0.7,0.5-1.1,0.8
				c-0.7,0.5-1.5,0.9-2.3,1.2s-1.6,0.6-2.5,0.8c-0.4,0.1-0.9,0.2-1.3,0.2C220,659.1,219.6,659.1,219.2,659.1z"/>
		</g>
	</g>
</g>
</svg>
