<?xml version="1.0" encoding="utf-8"?>
<!-- Generator: Adobe Illustrator 26.0.0, SVG Export Plug-In . SVG Version: 6.00 Build 0)  -->
<svg version="1.1" id="Layer_1" xmlns="http://www.w3.org/2000/svg" xmlns:xlink="http://www.w3.org/1999/xlink" x="0px" y="0px"
	 viewBox="0 0 698 704" style="enable-background:new 0 0 698 704;" xml:space="preserve">
<style type="text/css">
	.st0{clip-path:url(#SVGID_00000182489378218313382020000011369475261587901629_);}
	.st1{fill:#FFFFFF;filter:url(#Adobe_OpacityMaskFilter);}
	.st2{mask:url(#mask0_370_33_00000151509190291660336770000014461715581766182579_);}
	.st3{fill:#FFFFFF;filter:url(#Adobe_OpacityMaskFilter_00000031892420358344434600000003826277370904624776_);}
	.st4{mask:url(#mask1_370_33_00000152955015832227268320000002596218535970348701_);}
	.st5{fill:#FFFFFF;filter:url(#Adobe_OpacityMaskFilter_00000167388635735899039230000011375235547277948325_);}
	.st6{mask:url(#mask2_370_33_00000076593533894128371380000017836148330300432051_);}
	.st7{fill:#D90000;}
	.st8{fill:#FFFFFF;filter:url(#Adobe_OpacityMaskFilter_00000153705124138318955830000014003263923972091578_);}
	.st9{mask:url(#mask3_370_33_00000151525004967776002220000003164079715629706673_);}
	.st10{fill:#FFFFFF;filter:url(#Adobe_OpacityMaskFilter_00000073000997538887953620000013357715161616080799_);}
	.st11{mask:url(#mask4_370_33_00000089533004664411904910000002222323001162859665_);}
	.st12{fill:#FFFFFF;filter:url(#Adobe_OpacityMaskFilter_00000133509313252523451730000000196438128105369234_);}
	.st13{mask:url(#mask5_370_33_00000083771586318171306960000008558743573479129766_);}
	.st14{fill:#FFFFFF;filter:url(#Adobe_OpacityMaskFilter_00000015351776470733620290000014381057967245643189_);}
	.st15{mask:url(#mask6_370_33_00000165229452768217170320000011291995543025817234_);}
	.st16{fill:#FFFFFF;filter:url(#Adobe_OpacityMaskFilter_00000089553191558226632710000002052481246325475224_);}
	.st17{mask:url(#mask7_370_33_00000010306631147815128050000009495966709524358046_);}
	.st18{fill:#FFFFFF;filter:url(#Adobe_OpacityMaskFilter_00000174571732949504797680000010798800255638098312_);}
	.st19{mask:url(#mask8_370_33_00000156580977557311638430000009793727878434345637_);}
	.st20{fill:#FFFFFF;filter:url(#Adobe_OpacityMaskFilter_00000050635224371090389900000017591355123590541490_);}
	.st21{mask:url(#mask9_370_33_00000183954439956400622010000000974994425486639769_);}
	.st22{fill:#FFFFFF;filter:url(#Adobe_OpacityMaskFilter_00000008125431177427029620000010412997838181133186_);}
	.st23{mask:url(#mask10_370_33_00000147942934668020050910000005781081826191994794_);}
	.st24{fill:#FFFFFF;filter:url(#Adobe_OpacityMaskFilter_00000034801774077621652040000013145390827206603948_);}
	.st25{mask:url(#mask11_370_33_00000020375011594201177170000002437957598098976647_);}
	.st26{fill:#FFFFFF;filter:url(#Adobe_OpacityMaskFilter_00000055675570609560260450000009261895028932848801_);}
	.st27{mask:url(#mask12_370_33_00000155140507266728907890000008342009907552322741_);}
	.st28{fill:#FFFFFF;filter:url(#Adobe_OpacityMaskFilter_00000053524857353248960680000006851907561451968163_);}
	.st29{mask:url(#mask13_370_33_00000030481648603260822700000015317361109480358538_);}
	.st30{fill:#FFFFFF;filter:url(#Adobe_OpacityMaskFilter_00000139972941749192057970000003126658088921125283_);}
	.st31{mask:url(#mask14_370_33_00000106138610986484422030000016855160679643687336_);}
	.st32{fill:#FFFFFF;filter:url(#Adobe_OpacityMaskFilter_00000145743770477954768580000007695512810294673556_);}
	.st33{mask:url(#mask15_370_33_00000146469187548664417970000013994580107558587553_);}
	.st34{fill:#FFFFFF;filter:url(#Adobe_OpacityMaskFilter_00000050633925147251414340000005851505542115753880_);}
	.st35{mask:url(#mask16_370_33_00000116923331039653239370000012405512907068683416_);}
	.st36{fill:#FFFFFF;filter:url(#Adobe_OpacityMaskFilter_00000145019056383362365280000018309887839599634362_);}
	.st37{mask:url(#mask17_370_33_00000162352039394861736980000016154400785467727030_);}
	.st38{fill:#FFFFFF;filter:url(#Adobe_OpacityMaskFilter_00000070084624393976197130000013146640535905357459_);}
	.st39{mask:url(#mask18_370_33_00000036945937187457623640000009531058690138668218_);}
	.st40{fill:#FFFFFF;filter:url(#Adobe_OpacityMaskFilter_00000172439784343608518850000012678355265155039903_);}
	.st41{mask:url(#mask19_370_33_00000076592759059773127670000007850789299825154185_);}
	.st42{fill:#FFFFFF;filter:url(#Adobe_OpacityMaskFilter_00000111180799191719379090000006133739919252970374_);}
	.st43{mask:url(#mask20_370_33_00000016765271406536788230000014726205181175908738_);}
	.st44{fill:#FFFFFF;filter:url(#Adobe_OpacityMaskFilter_00000124135584708475012180000006205675702329261733_);}
	.st45{mask:url(#mask21_370_33_00000182497917147368087480000013381104847820403379_);}
	.st46{fill:#FFFFFF;filter:url(#Adobe_OpacityMaskFilter_00000021825976631241296730000000954212612741404034_);}
	.st47{mask:url(#mask22_370_33_00000057112361452367513440000008531630846859915172_);}
	.st48{fill:#FFFFFF;filter:url(#Adobe_OpacityMaskFilter_00000064337175457336658390000002795013942545984913_);}
	.st49{mask:url(#mask23_370_33_00000029005138381947466800000015737207331668322695_);}
	.st50{fill:#FFFFFF;filter:url(#Adobe_OpacityMaskFilter_00000077302577878009624930000002475838193888466837_);}
	.st51{mask:url(#mask24_370_33_00000098180802787893815430000011584984769979654798_);}
	.st52{fill:#FFFFFF;filter:url(#Adobe_OpacityMaskFilter_00000083079947883136449570000002483734194787553412_);}
	.st53{mask:url(#mask25_370_33_00000032607634273549540200000015822461700499823236_);}
	.st54{fill:#FFFFFF;filter:url(#Adobe_OpacityMaskFilter_00000119099767564403607140000017578312255850284985_);}
	.st55{mask:url(#mask26_370_33_00000097494135769935163730000004165492303261151920_);}
	.st56{fill:#FFFFFF;filter:url(#Adobe_OpacityMaskFilter_00000032615603859740471350000001025877491257966211_);}
	.st57{mask:url(#mask27_370_33_00000161610721184128091430000018317199534020074126_);}
</style>
<g>
	<defs>
		<rect id="SVGID_1_" width="698" height="704"/>
	</defs>
	<clipPath id="SVGID_00000024692161143744118860000002199915941486808192_">
		<use xlink:href="#SVGID_1_"  style="overflow:visible;"/>
	</clipPath>
	<g style="clip-path:url(#SVGID_00000024692161143744118860000002199915941486808192_);">
		<defs>
			<filter id="Adobe_OpacityMaskFilter" filterUnits="userSpaceOnUse" x="246.7" y="58.7" width="375.8" height="388.3">
				<feColorMatrix  type="matrix" values="1 0 0 0 0  0 1 0 0 0  0 0 1 0 0  0 0 0 1 0"/>
			</filter>
		</defs>
		
			<mask maskUnits="userSpaceOnUse" x="246.7" y="58.7" width="375.8" height="388.3" id="mask0_370_33_00000151509190291660336770000014461715581766182579_">
			<path class="st1" d="M698,0H0v704h698V0z"/>
		</mask>
		<g class="st2">
			<path d="M602,416.2c0.8,0.1,1.7,0.3,2.5,0.3c4.8,0,9.2-3.3,10.3-8.2c5.1-21.5,7.7-43.5,7.7-65.7c0-156.5-127.3-283.8-283.8-283.8
				c-28.7,0-57.2,4.3-84.4,12.8c-5.6,1.8-8.8,7.7-7,13.3c1.8,5.6,7.7,8.8,13.3,7C285.7,84,312,80,338.7,80
				c50.1,0,96.9,14.2,136.7,38.5c-20.5,29.6-38,53.1-41.8,57.1c-6.9,6.3-62.3,27.2-109.7,43c-0.7,0.3-1.5,0.6-2.1,1l-56.9,34.1
				c-4,2.5-6,7.2-4.8,11.7c0.1,0.5,3,12.1,7.4,23.9c5.4,14.2,12.4,28.7,24.3,29.7c3.4,2.8,9.8,14.6,13.6,26.1l11.3,67.4
				c0.8,5.1,5.4,8.9,10.6,8.9h91c5.9,0,10.7-4.8,10.7-10.7c0-5.9-4.8-10.7-10.7-10.7h-82l-9.9-59.4c-0.1-0.6-0.3-1.1-0.4-1.7
				c-5-14.7-15.3-39-30.7-41.2c-3.3-3.6-8.5-16.4-12.7-30l49-29.4c5.2-1.8,28.2-9.5,51.8-18.3c56.2-20.8,62.2-26.7,65-29.4
				c6.2-6.2,26.4-34.1,44.6-60.2c10.5,7.6,20.2,15.9,29.4,25l-22,33.4c-0.8,1.2-1.4,2.6-1.7,4.1l-9.9,59.4h-59.3
				c-5.1,0-9.5,3.6-10.4,8.5l-11.4,56.9c-0.7,3.2,0.1,6.5,2.2,8.9L467,395c1.2,1.5,2.9,2.6,4.8,3.3c12.2,4.1,34.4,13.2,41.4,20.2
				c2.2,2.2,7.8,7.3,31.4,26.1c1.9,1.5,4.3,2.3,6.7,2.3c3.2,0,6.2-1.4,8.4-4c3.7-4.5,2.9-11.3-1.6-15c-22-17.7-28.1-23.1-29.7-24.6
				c-11.1-11.1-37.5-21-46.8-24.3l-51.7-62l8.7-43.3h59.5c5.2,0,9.6-3.7,10.6-8.9l11-66l18-27.1c39.6,45.9,63.5,105.7,63.5,171
				c0,20.5-2.3,41-7,60.8C592.8,409.1,596.2,414.8,602,416.2z"/>
		</g>
		<defs>
			
				<filter id="Adobe_OpacityMaskFilter_00000011014652271633679790000018199935336609875128_" filterUnits="userSpaceOnUse" x="55" y="87.2" width="334.8" height="539.1">
				<feColorMatrix  type="matrix" values="1 0 0 0 0  0 1 0 0 0  0 0 1 0 0  0 0 0 1 0"/>
			</filter>
		</defs>
		
			<mask maskUnits="userSpaceOnUse" x="55" y="87.2" width="334.8" height="539.1" id="mask1_370_33_00000152955015832227268320000002596218535970348701_">
			<path style="fill:#FFFFFF;filter:url(#Adobe_OpacityMaskFilter_00000011014652271633679790000018199935336609875128_);" d="
				M698,0H0v704h698V0z"/>
		</mask>
		<g class="st4">
			<path d="M389.7,611c-0.8-5.8-6.3-9.9-12.1-8.9c-12.8,1.9-25.9,2.9-38.8,2.9c-63.9,0-122.7-23.1-168.3-61.2l45.1-8.7
				c2.8-0.6,5.1-2.1,6.7-4.3l56.9-79.6c1.5-2.2,2.2-4.8,1.9-7.4l-11.4-102.4c-0.1-1.4-0.6-2.8-1.2-4L211.6,235
				c-0.7-1.4-1.8-2.5-2.9-3.3l-45.5-34.1c-1.8-1.4-4.1-2.2-6.5-2.2h-35.6c24.9-36.7,59.3-67.2,100.9-88c5.2-2.6,7.4-9.1,4.8-14.3
				c-2.6-5.2-9.1-7.4-14.3-4.8C166,111.4,126.6,147,98.7,191C70.1,236.4,55,288.8,55,342.5C55,499,182.3,626.3,338.8,626.3
				c14,0,28.2-1.1,41.9-3C386.5,622.3,390.5,617,389.7,611z M76.3,342.5c0-45.1,11.3-88.1,31.9-125.8h45l40.8,30.7l54.7,98.6
				l10.7,96.2l-52,72.9l-55.1,10.6c-0.4,0.1-0.8,0.1-1.1,0.3C104.8,478.5,76.3,413.7,76.3,342.5z"/>
		</g>
		<defs>
			
				<filter id="Adobe_OpacityMaskFilter_00000044160456934760983610000015253711859893485215_" filterUnits="userSpaceOnUse" x="398.1" y="404.1" width="299.9" height="299.7">
				<feColorMatrix  type="matrix" values="1 0 0 0 0  0 1 0 0 0  0 0 1 0 0  0 0 0 1 0"/>
			</filter>
		</defs>
		
			<mask maskUnits="userSpaceOnUse" x="398.1" y="404.1" width="299.9" height="299.7" id="mask2_370_33_00000076593533894128371380000017836148330300432051_">
			<path style="fill:#FFFFFF;filter:url(#Adobe_OpacityMaskFilter_00000044160456934760983610000015253711859893485215_);" d="
				M698,0H0v704h698V0z"/>
		</mask>
		<g class="st6">
			<path class="st7" d="M645.5,519.9l28.2-28.2c16.4-16.4,35.5-60.1,16.1-79.5c-19.4-19.4-63.1-0.3-79.5,16.1l-28.2,28.2
				l-157.4-29.1c-3.4-0.7-7,0.4-9.5,2.9l-14,14c-4.4,4.4-4,12,0.8,15.8l97.5,79.1l-34.4,34.4l-39.3-3.6c-3.2-0.3-6.3,0.8-8.5,3
				L401.1,589c-4.5,4.5-4,12.5,1.4,16.2l54.9,39.2l39.2,54.9c3.7,5.2,11.7,5.9,16.2,1.4l16.1-16.1c2.2-2.2,3.3-5.4,3-8.5l-3.6-39.3
				l34.4-34.4l79.1,97.3c4,4.8,11.4,5.2,15.8,0.8l14-14c2.5-2.5,3.6-6,2.9-9.5L645.5,519.9z M625.4,443.4c9.9-9.9,30.7-18,42.4-18
				c3.2,0,5.6,0.6,7,1.9c6.3,6.3-3.6,36.7-16.1,49.2L505.8,629.5c-6.5,6.5-15.7,8.4-23.8,5.8l30.8-30.8c4.1-4.1,4.1-10.9,0-15.1
				c-4.1-4.1-10.9-4.1-15.1,0l-30.8,30.8c-0.7-2.3-1.1-4.7-1.1-7.3c0-6.3,2.5-12.1,6.9-16.6L625.4,443.4z M424.6,451.1l1.8-1.8
				l137.5,25.4L514.7,524L424.6,451.1z M428.8,591.8l19.9,1.8c-2.3,5-3.7,10.2-4.3,15.7L425,595.4L428.8,591.8z M506.6,676.9
				l-13.9-19.4c5.4-0.4,10.7-1.8,15.7-4.3l1.8,19.9L506.6,676.9z M650.8,677.5l-73-89.9l49.2-49.2l25.4,137.5L650.8,677.5z"/>
		</g>
		<defs>
			
				<filter id="Adobe_OpacityMaskFilter_00000163785974081523020210000003988872704935861930_" filterUnits="userSpaceOnUse" x="386.8" y="652.9" width="32.4" height="23.5">
				<feColorMatrix  type="matrix" values="1 0 0 0 0  0 1 0 0 0  0 0 1 0 0  0 0 0 1 0"/>
			</filter>
		</defs>
		
			<mask maskUnits="userSpaceOnUse" x="386.8" y="652.9" width="32.4" height="23.5" id="mask3_370_33_00000151525004967776002220000003164079715629706673_">
			<path style="fill:#FFFFFF;filter:url(#Adobe_OpacityMaskFilter_00000163785974081523020210000003988872704935861930_);" d="
				M698,0H0v704h698V0z"/>
		</mask>
		<g class="st9">
			<path class="st7" d="M406.5,653.1c-3.6,0.8-7.3,1.5-10.9,2.1c-5.8,1-9.6,6.6-8.7,12.4c1,5.2,5.4,8.8,10.5,8.8
				c0.5,0,1.2,0,1.8-0.1c3.8-0.7,7.7-1.4,11.6-2.2c5.8-1.2,9.5-6.9,8.2-12.7C417.9,655.6,412.3,651.9,406.5,653.1z"/>
		</g>
		<defs>
			
				<filter id="Adobe_OpacityMaskFilter_00000034790225294439980870000007967003214641804949_" filterUnits="userSpaceOnUse" x="654.5" y="272.5" width="24.4" height="43.9">
				<feColorMatrix  type="matrix" values="1 0 0 0 0  0 1 0 0 0  0 0 1 0 0  0 0 0 1 0"/>
			</filter>
		</defs>
		
			<mask maskUnits="userSpaceOnUse" x="654.5" y="272.5" width="24.4" height="43.9" id="mask4_370_33_00000089533004664411904910000002222323001162859665_">
			<path style="fill:#FFFFFF;filter:url(#Adobe_OpacityMaskFilter_00000034790225294439980870000007967003214641804949_);" d="
				M698,0H0v704h698V0z"/>
		</mask>
		<g class="st11">
			<path class="st7" d="M654.7,285c1.2,7.3,2.3,14.6,3,21.9c0.5,5.8,5.9,10,11.7,9.5c5.8-0.5,10-5.9,9.5-11.7
				c-0.8-7.8-1.9-15.7-3.3-23.4c-1-5.8-6.6-9.6-12.4-8.7C657.6,273.6,653.6,279.1,654.7,285z"/>
		</g>
		<defs>
			
				<filter id="Adobe_OpacityMaskFilter_00000179621324636852404810000006994739002091585950_" filterUnits="userSpaceOnUse" x="310.1" y="0" width="44.2" height="21.9">
				<feColorMatrix  type="matrix" values="1 0 0 0 0  0 1 0 0 0  0 0 1 0 0  0 0 0 1 0"/>
			</filter>
		</defs>
		
			<mask maskUnits="userSpaceOnUse" x="310.1" y="0" width="44.2" height="21.9" id="mask5_370_33_00000083771586318171306960000008558743573479129766_">
			<path style="fill:#FFFFFF;filter:url(#Adobe_OpacityMaskFilter_00000179621324636852404810000006994739002091585950_);" d="
				M698,0H0v704h698V0z"/>
		</mask>
		<g class="st13">
			<path class="st7" d="M320.5,21.9c0.3,0,0.4,0,0.7,0c7.3-0.4,14.9-0.5,22.1-0.5h0.1c5.9,0,10.6-4.7,10.7-10.6
				c0-5.9-4.7-10.7-10.6-10.7c-7.8-0.1-15.8,0.1-23.5,0.5c-5.8,0.3-10.3,5.4-10,11.1C310.1,17.3,314.9,21.9,320.5,21.9z"/>
		</g>
		<defs>
			
				<filter id="Adobe_OpacityMaskFilter_00000165232365972793784490000007489133949522122674_" filterUnits="userSpaceOnUse" x="178.7" y="26.6" width="41.9" height="31.2">
				<feColorMatrix  type="matrix" values="1 0 0 0 0  0 1 0 0 0  0 0 1 0 0  0 0 0 1 0"/>
			</filter>
		</defs>
		
			<mask maskUnits="userSpaceOnUse" x="178.7" y="26.6" width="41.9" height="31.2" id="mask6_370_33_00000165229452768217170320000011291995543025817234_">
			<path style="fill:#FFFFFF;filter:url(#Adobe_OpacityMaskFilter_00000165232365972793784490000007489133949522122674_);" d="
				M698,0H0v704h698V0z"/>
		</mask>
		<g class="st15">
			<path class="st7" d="M189.2,57.9c1.6,0,3.3-0.4,4.9-1.2c6.5-3.3,13.2-6.6,19.9-9.5c5.4-2.3,8-8.7,5.6-14c-2.3-5.4-8.7-8-14-5.6
				c-7.2,3.2-14.3,6.5-21.3,10c-4.3,2.2-6.5,7-5.5,11.6C179.7,54.2,184.1,57.9,189.2,57.9z"/>
		</g>
		<defs>
			
				<filter id="Adobe_OpacityMaskFilter_00000173139517788403043290000018083039086146372482_" filterUnits="userSpaceOnUse" x="72.8" y="105.2" width="36.4" height="38.6">
				<feColorMatrix  type="matrix" values="1 0 0 0 0  0 1 0 0 0  0 0 1 0 0  0 0 0 1 0"/>
			</filter>
		</defs>
		
			<mask maskUnits="userSpaceOnUse" x="72.8" y="105.2" width="36.4" height="38.6" id="mask7_370_33_00000010306631147815128050000009495966709524358046_">
			<path style="fill:#FFFFFF;filter:url(#Adobe_OpacityMaskFilter_00000173139517788403043290000018083039086146372482_);" d="
				M698,0H0v704h698V0z"/>
		</mask>
		<g class="st17">
			<path class="st7" d="M76.9,141.5c4.5,3.7,11.4,2.9,15-1.5c4.7-5.8,9.5-11.3,14.6-16.8c4-4.3,3.7-11-0.5-15.1
				c-4.3-4-11-3.7-15.1,0.6c-5.4,5.8-10.6,11.7-15.5,17.9C71.5,131,72.2,137.8,76.9,141.5z"/>
		</g>
		<defs>
			
				<filter id="Adobe_OpacityMaskFilter_00000054987826038662186050000011640633682250738579_" filterUnits="userSpaceOnUse" x="121.2" y="60.3" width="39.5" height="35">
				<feColorMatrix  type="matrix" values="1 0 0 0 0  0 1 0 0 0  0 0 1 0 0  0 0 0 1 0"/>
			</filter>
		</defs>
		
			<mask maskUnits="userSpaceOnUse" x="121.2" y="60.3" width="39.5" height="35" id="mask8_370_33_00000156580977557311638430000009793727878434345637_">
			<path style="fill:#FFFFFF;filter:url(#Adobe_OpacityMaskFilter_00000054987826038662186050000011640633682250738579_);" d="
				M698,0H0v704h698V0z"/>
		</mask>
		<g class="st19">
			<path class="st7" d="M131.9,95.3c2.3,0,4.8-0.8,6.7-2.3c5.6-4.7,11.7-9.1,17.6-13.3c4.8-3.4,5.9-10,2.6-14.8
				c-3.4-4.8-10-5.9-14.9-2.6c-6.5,4.5-12.8,9.3-18.8,14.3c-3.3,2.8-4.7,7.3-3.4,11.4C123.1,92.3,127.2,95.3,131.9,95.3z"/>
		</g>
		<defs>
			
				<filter id="Adobe_OpacityMaskFilter_00000039113711746904376650000006668173787197068946_" filterUnits="userSpaceOnUse" x="378.3" y="3.6" width="43.8" height="25.4">
				<feColorMatrix  type="matrix" values="1 0 0 0 0  0 1 0 0 0  0 0 1 0 0  0 0 0 1 0"/>
			</filter>
		</defs>
		
			<mask maskUnits="userSpaceOnUse" x="378.3" y="3.6" width="43.8" height="25.4" id="mask9_370_33_00000183954439956400622010000000974994425486639769_">
			<path style="fill:#FFFFFF;filter:url(#Adobe_OpacityMaskFilter_00000039113711746904376650000006668173787197068946_);" d="
				M698,0H0v704h698V0z"/>
		</mask>
		<g class="st21">
			<path class="st7" d="M387.4,24.8c7.3,1.1,14.6,2.5,21.7,4c0.8,0.1,1.5,0.3,2.3,0.3c5,0,9.4-3.4,10.5-8.4
				c1.2-5.8-2.3-11.4-8.1-12.7c-7.7-1.7-15.4-3.2-23.2-4.3c-5.8-0.8-11.3,3.2-12.1,8.9C377.5,18.6,381.6,23.9,387.4,24.8z"/>
		</g>
		<defs>
			
				<filter id="Adobe_OpacityMaskFilter_00000045613452847113638570000004364227635437183899_" filterUnits="userSpaceOnUse" x="242.4" y="6.4" width="43.6" height="26.6">
				<feColorMatrix  type="matrix" values="1 0 0 0 0  0 1 0 0 0  0 0 1 0 0  0 0 0 1 0"/>
			</filter>
		</defs>
		
			<mask maskUnits="userSpaceOnUse" x="242.4" y="6.4" width="43.6" height="26.6" id="mask10_370_33_00000147942934668020050910000005781081826191994794_">
			<path style="fill:#FFFFFF;filter:url(#Adobe_OpacityMaskFilter_00000045613452847113638570000004364227635437183899_);" d="
				M698,0H0v704h698V0z"/>
		</mask>
		<g class="st23">
			<path class="st7" d="M252.9,33c1,0,1.9-0.1,2.9-0.4c7-1.9,14.3-3.7,21.6-5.1c5.8-1.1,9.5-6.7,8.4-12.5c-1.1-5.8-6.7-9.5-12.5-8.4
				c-7.7,1.5-15.4,3.3-23,5.4c-5.1,1.4-8.4,6.3-7.8,11.6C243,28.9,247.7,33,252.9,33z"/>
		</g>
		<defs>
			
				<filter id="Adobe_OpacityMaskFilter_00000115513846453392009700000010815207080715788981_" filterUnits="userSpaceOnUse" x="635.6" y="206.6" width="29.2" height="42.7">
				<feColorMatrix  type="matrix" values="1 0 0 0 0  0 1 0 0 0  0 0 1 0 0  0 0 0 1 0"/>
			</filter>
		</defs>
		
			<mask maskUnits="userSpaceOnUse" x="635.6" y="206.6" width="29.2" height="42.7" id="mask11_370_33_00000020375011594201177170000002437957598098976647_">
			<path style="fill:#FFFFFF;filter:url(#Adobe_OpacityMaskFilter_00000115513846453392009700000010815207080715788981_);" d="
				M698,0H0v704h698V0z"/>
		</mask>
		<g class="st25">
			<path class="st7" d="M636.4,221.2c2.8,6.9,5.2,13.8,7.6,20.8c1.9,5.8,8.4,8.8,14,6.6c5.2-2.1,8-8,6.3-13.2
				c-2.5-7.4-5.1-15-8.1-22.1c-2.2-5.5-8.4-8.1-13.9-5.9C636.9,209.6,634.2,215.9,636.4,221.2z"/>
		</g>
		<defs>
			
				<filter id="Adobe_OpacityMaskFilter_00000136390437408700658300000011631499420153506486_" filterUnits="userSpaceOnUse" x="603.5" y="146.1" width="33.5" height="40.7">
				<feColorMatrix  type="matrix" values="1 0 0 0 0  0 1 0 0 0  0 0 1 0 0  0 0 0 1 0"/>
			</filter>
		</defs>
		
			<mask maskUnits="userSpaceOnUse" x="603.5" y="146.1" width="33.5" height="40.7" id="mask12_370_33_00000155140507266728907890000008342009907552322741_">
			<path style="fill:#FFFFFF;filter:url(#Adobe_OpacityMaskFilter_00000136390437408700658300000011631499420153506486_);" d="
				M698,0H0v704h698V0z"/>
		</mask>
		<g class="st27">
			<path class="st7" d="M617.1,181.5c3.2,5.5,10.5,7,15.5,3.3c4.3-3.2,5.6-9.2,2.9-13.9c-3.9-6.7-8.1-13.5-12.5-20.1
				c-3.3-5-9.9-6.2-14.9-2.9c-5,3.3-6.2,9.9-2.9,14.9C609.6,168.9,613.4,175.2,617.1,181.5z"/>
		</g>
		<defs>
			
				<filter id="Adobe_OpacityMaskFilter_00000098941168978322267920000008610496370210056064_" filterUnits="userSpaceOnUse" x="559.7" y="93.6" width="37.2" height="37.7">
				<feColorMatrix  type="matrix" values="1 0 0 0 0  0 1 0 0 0  0 0 1 0 0  0 0 0 1 0"/>
			</filter>
		</defs>
		
			<mask maskUnits="userSpaceOnUse" x="559.7" y="93.6" width="37.2" height="37.7" id="mask13_370_33_00000030481648603260822700000015317361109480358538_">
			<path style="fill:#FFFFFF;filter:url(#Adobe_OpacityMaskFilter_00000098941168978322267920000008610496370210056064_);" d="
				M698,0H0v704h698V0z"/>
		</mask>
		<g class="st29">
			<path class="st7" d="M578.2,127.9c4.1,4.7,11.7,4.7,16,0c3.6-4,3.6-10.2,0-14.2c-5.2-5.8-10.7-11.5-16.4-17
				c-4.3-4.1-11-4-15.1,0.1c-4.1,4.3-4,11,0.1,15.1C568.2,117,573.4,122.4,578.2,127.9z"/>
		</g>
		<defs>
			
				<filter id="Adobe_OpacityMaskFilter_00000028300067008674675060000011503388885682797219_" filterUnits="userSpaceOnUse" x="444.6" y="20.5" width="42.5" height="30.1">
				<feColorMatrix  type="matrix" values="1 0 0 0 0  0 1 0 0 0  0 0 1 0 0  0 0 0 1 0"/>
			</filter>
		</defs>
		
			<mask maskUnits="userSpaceOnUse" x="444.6" y="20.5" width="42.5" height="30.1" id="mask14_370_33_00000106138610986484422030000016855160679643687336_">
			<path style="fill:#FFFFFF;filter:url(#Adobe_OpacityMaskFilter_00000028300067008674675060000011503388885682797219_);" d="
				M698,0H0v704h698V0z"/>
		</mask>
		<g class="st31">
			<path class="st7" d="M451.6,41.2c6.9,2.6,13.8,5.4,20.5,8.4c5.6,2.6,12.5-0.4,14.4-6.2c1.8-5.1-0.7-11-5.6-13.2
				c-7.2-3.3-14.4-6.3-21.9-9.1c-5.5-2.1-11.7,0.7-13.8,6.3C443.2,33.1,446.1,39.2,451.6,41.2z"/>
		</g>
		<defs>
			
				<filter id="Adobe_OpacityMaskFilter_00000037675668220247394440000005633290209611656083_" filterUnits="userSpaceOnUse" x="506" y="51.1" width="40.2" height="34.2">
				<feColorMatrix  type="matrix" values="1 0 0 0 0  0 1 0 0 0  0 0 1 0 0  0 0 0 1 0"/>
			</filter>
		</defs>
		
			<mask maskUnits="userSpaceOnUse" x="506" y="51.1" width="40.2" height="34.2" id="mask15_370_33_00000146469187548664417970000013994580107558587553_">
			<path style="fill:#FFFFFF;filter:url(#Adobe_OpacityMaskFilter_00000037675668220247394440000005633290209611656083_);" d="
				M698,0H0v704h698V0z"/>
		</mask>
		<g class="st33">
			<path class="st7" d="M511,70.8c6.2,4,12.4,8.1,18.3,12.5c5.1,3.7,12.5,2.1,15.7-3.4c2.6-4.7,1.2-10.6-3-13.8
				c-6.3-4.7-12.9-9.1-19.5-13.3c-5-3.2-11.6-1.6-14.7,3.3C504.5,61,506,67.7,511,70.8z"/>
		</g>
		<defs>
			
				<filter id="Adobe_OpacityMaskFilter_00000098179941139017033800000007333551285509793408_" filterUnits="userSpaceOnUse" x="35.5" y="159.9" width="32.4" height="41.3">
				<feColorMatrix  type="matrix" values="1 0 0 0 0  0 1 0 0 0  0 0 1 0 0  0 0 0 1 0"/>
			</filter>
		</defs>
		
			<mask maskUnits="userSpaceOnUse" x="35.5" y="159.9" width="32.4" height="41.3" id="mask16_370_33_00000116923331039653239370000012405512907068683416_">
			<path style="fill:#FFFFFF;filter:url(#Adobe_OpacityMaskFilter_00000098179941139017033800000007333551285509793408_);" d="
				M698,0H0v704h698V0z"/>
		</mask>
		<g class="st35">
			<path class="st7" d="M41.4,200.1c5.2,2.6,11.7,0.6,14.3-4.7c3.3-6.6,7-13.1,10.7-19.4c3-5.1,1.4-11.6-3.6-14.6
				c-5.1-3-11.6-1.4-14.6,3.6c-4,6.7-8,13.6-11.4,20.6C34,191,36,197.4,41.4,200.1z"/>
		</g>
		<defs>
			
				<filter id="Adobe_OpacityMaskFilter_00000170237382956174208090000002327487731042836364_" filterUnits="userSpaceOnUse" x="78.4" y="544.1" width="36.7" height="38">
				<feColorMatrix  type="matrix" values="1 0 0 0 0  0 1 0 0 0  0 0 1 0 0  0 0 0 1 0"/>
			</filter>
		</defs>
		
			<mask maskUnits="userSpaceOnUse" x="78.4" y="544.1" width="36.7" height="38" id="mask17_370_33_00000162352039394861736980000016154400785467727030_">
			<path style="fill:#FFFFFF;filter:url(#Adobe_OpacityMaskFilter_00000170237382956174208090000002327487731042836364_);" d="
				M698,0H0v704h698V0z"/>
		</mask>
		<g class="st37">
			<path class="st7" d="M97.1,547.8c-3.7-4.4-10.6-5-15-1.2c-4.4,3.7-5,10.6-1.2,15c5.1,5.9,10.5,11.8,16,17.5
				c4.4,4.4,11.8,4.1,15.8-0.6c3.4-4.1,3.3-10.4-0.6-14.3C106.8,558.8,101.9,553.3,97.1,547.8z"/>
		</g>
		<defs>
			
				<filter id="Adobe_OpacityMaskFilter_00000051360724624925251120000014829934562489157557_" filterUnits="userSpaceOnUse" x="127.9" y="591.2" width="39.9" height="34.6">
				<feColorMatrix  type="matrix" values="1 0 0 0 0  0 1 0 0 0  0 0 1 0 0  0 0 0 1 0"/>
			</filter>
		</defs>
		
			<mask maskUnits="userSpaceOnUse" x="127.9" y="591.2" width="39.9" height="34.6" id="mask18_370_33_00000036945937187457623640000009531058690138668218_">
			<path style="fill:#FFFFFF;filter:url(#Adobe_OpacityMaskFilter_00000051360724624925251120000014829934562489157557_);" d="
				M698,0H0v704h698V0z"/>
		</mask>
		<g class="st39">
			<path class="st7" d="M163.1,606.4c-6.1-4.1-12.1-8.4-18-12.9c-4.7-3.6-11.4-2.8-15,1.9c-3.6,4.7-2.8,11.4,1.9,15
				c6.2,4.8,12.7,9.5,19.1,13.8c5.2,3.4,12.5,1.7,15.4-4C169.1,615.5,167.5,609.4,163.1,606.4z"/>
		</g>
		<defs>
			
				<filter id="Adobe_OpacityMaskFilter_00000084527912686409982760000010637955667674279102_" filterUnits="userSpaceOnUse" x="186.1" y="627.3" width="42.3" height="30.6">
				<feColorMatrix  type="matrix" values="1 0 0 0 0  0 1 0 0 0  0 0 1 0 0  0 0 0 1 0"/>
			</filter>
		</defs>
		
			<mask maskUnits="userSpaceOnUse" x="186.1" y="627.3" width="42.3" height="30.6" id="mask19_370_33_00000076592759059773127670000007850789299825154185_">
			<path style="fill:#FFFFFF;filter:url(#Adobe_OpacityMaskFilter_00000084527912686409982760000010637955667674279102_);" d="
				M698,0H0v704h698V0z"/>
		</mask>
		<g class="st41">
			<path class="st7" d="M221.7,637.3c-6.9-2.8-13.6-5.8-20.2-8.9c-5.4-2.6-11.7-0.3-14.3,5c-2.6,5.4-0.3,11.7,4.9,14.3
				c7,3.4,14.3,6.6,21.6,9.5c1.2,0.5,2.6,0.8,4,0.8c4.3,0,8.3-2.5,9.9-6.7C229.9,645.7,227.2,639.5,221.7,637.3z"/>
		</g>
		<defs>
			
				<filter id="Adobe_OpacityMaskFilter_00000134940380197817486210000018057105708388558256_" filterUnits="userSpaceOnUse" x="250.7" y="650.5" width="43.7" height="26">
				<feColorMatrix  type="matrix" values="1 0 0 0 0  0 1 0 0 0  0 0 1 0 0  0 0 0 1 0"/>
			</filter>
		</defs>
		
			<mask maskUnits="userSpaceOnUse" x="250.7" y="650.5" width="43.7" height="26" id="mask20_370_33_00000016765271406536788230000014726205181175908738_">
			<path style="fill:#FFFFFF;filter:url(#Adobe_OpacityMaskFilter_00000134940380197817486210000018057105708388558256_);" d="
				M698,0H0v704h698V0z"/>
		</mask>
		<g class="st43">
			<path class="st7" d="M285.5,655.3c-7.3-1.2-14.6-2.8-21.6-4.5c-5.8-1.4-11.6,2.1-12.9,7.8c-1.4,5.8,2.1,11.5,7.8,12.9
				c7.6,1.9,15.4,3.4,23.1,4.8c5.8,1,11.4-3,12.4-8.9C295.1,661.8,291.1,656.3,285.5,655.3z"/>
		</g>
		<defs>
			
				<filter id="Adobe_OpacityMaskFilter_00000180362647945398552990000003094219452492081544_" filterUnits="userSpaceOnUse" x="318.5" y="659.7" width="44.3" height="21.5">
				<feColorMatrix  type="matrix" values="1 0 0 0 0  0 1 0 0 0  0 0 1 0 0  0 0 0 1 0"/>
			</filter>
		</defs>
		
			<mask maskUnits="userSpaceOnUse" x="318.5" y="659.7" width="44.3" height="21.5" id="mask21_370_33_00000182497917147368087480000013381104847820403379_">
			<path style="fill:#FFFFFF;filter:url(#Adobe_OpacityMaskFilter_00000180362647945398552990000003094219452492081544_);" d="
				M698,0H0v704h698V0z"/>
		</mask>
		<g class="st45">
			<path class="st7" d="M351.6,659.7c-7.3,0.3-14.9,0.3-22.1,0c-5.9-0.3-10.9,4.4-11,10.3c-0.1,5.9,4.4,10.9,10.3,11
				c3.7,0.1,7.6,0.1,11.4,0.1c4.1,0,8.3-0.1,12.2-0.3c5.9-0.3,10.5-5.1,10.3-11C362.5,664.1,357.5,659.6,351.6,659.7z"/>
		</g>
		<defs>
			
				<filter id="Adobe_OpacityMaskFilter_00000132778988805607294770000004423996305168428678_" filterUnits="userSpaceOnUse" x="-0.1" y="288.7" width="23.3" height="44.1">
				<feColorMatrix  type="matrix" values="1 0 0 0 0  0 1 0 0 0  0 0 1 0 0  0 0 0 1 0"/>
			</filter>
		</defs>
		
			<mask maskUnits="userSpaceOnUse" x="-0.1" y="288.7" width="23.3" height="44.1" id="mask22_370_33_00000057112361452367513440000008531630846859915172_">
			<path style="fill:#FFFFFF;filter:url(#Adobe_OpacityMaskFilter_00000132778988805607294770000004423996305168428678_);" d="
				M698,0H0v704h698V0z"/>
		</mask>
		<g class="st47">
			<path class="st7" d="M10,332.8c0.1,0,0.4,0,0.6,0c5.6,0,10.3-4.4,10.6-10c0.4-7.3,1.1-14.7,1.9-22c0.7-5.9-3.4-11.1-9.2-12
				c-5.9-0.7-11.1,3.4-12,9.2c-1,7.7-1.7,15.7-2.1,23.5C-0.3,327.4,4.3,332.5,10,332.8z"/>
		</g>
		<defs>
			
				<filter id="Adobe_OpacityMaskFilter_00000146500385003818505630000003367449643774843796_" filterUnits="userSpaceOnUse" x="39.5" y="487.6" width="32.9" height="41">
				<feColorMatrix  type="matrix" values="1 0 0 0 0  0 1 0 0 0  0 0 1 0 0  0 0 0 1 0"/>
			</filter>
		</defs>
		
			<mask maskUnits="userSpaceOnUse" x="39.5" y="487.6" width="32.9" height="41" id="mask23_370_33_00000029005138381947466800000015737207331668322695_">
			<path style="fill:#FFFFFF;filter:url(#Adobe_OpacityMaskFilter_00000146500385003818505630000003367449643774843796_);" d="
				M698,0H0v704h698V0z"/>
		</mask>
		<g class="st49">
			<path class="st7" d="M59.5,493.2c-2.8-5.2-9.4-7.2-14.4-4.3c-5.2,2.8-7.2,9.3-4.3,14.4c3.7,6.9,7.8,13.8,12,20.3
				c3.3,5.2,10.6,6.5,15.5,2.6c4.3-3.3,5.4-9.6,2.5-14.2C66.8,506,63,499.7,59.5,493.2z"/>
		</g>
		<defs>
			
				<filter id="Adobe_OpacityMaskFilter_00000092420905230705599480000014203823879430953863_" filterUnits="userSpaceOnUse" x="10.8" y="221.9" width="28" height="43.3">
				<feColorMatrix  type="matrix" values="1 0 0 0 0  0 1 0 0 0  0 0 1 0 0  0 0 0 1 0"/>
			</filter>
		</defs>
		
			<mask maskUnits="userSpaceOnUse" x="10.8" y="221.9" width="28" height="43.3" id="mask24_370_33_00000098180802787893815430000011584984769979654798_">
			<path style="fill:#FFFFFF;filter:url(#Adobe_OpacityMaskFilter_00000092420905230705599480000014203823879430953863_);" d="
				M698,0H0v704h698V0z"/>
		</mask>
		<g class="st51">
			<path class="st7" d="M18.7,264.8c5.6,1.5,11.6-1.9,13.1-7.6c1.9-7.1,4.1-14.2,6.5-21.2c1.9-5.5-1-11.7-6.6-13.6
				c-5.5-1.9-11.7,1-13.6,6.6c-2.6,7.4-5,15-6.9,22.6C9.6,257.4,13.1,263.3,18.7,264.8z"/>
		</g>
		<defs>
			
				<filter id="Adobe_OpacityMaskFilter_00000009587072630953187670000017028647915976404110_" filterUnits="userSpaceOnUse" x="0.5" y="357.2" width="24.1" height="44">
				<feColorMatrix  type="matrix" values="1 0 0 0 0  0 1 0 0 0  0 0 1 0 0  0 0 0 1 0"/>
			</filter>
		</defs>
		
			<mask maskUnits="userSpaceOnUse" x="0.5" y="357.2" width="24.1" height="44" id="mask25_370_33_00000032607634273549540200000015822461700499823236_">
			<path style="fill:#FFFFFF;filter:url(#Adobe_OpacityMaskFilter_00000009587072630953187670000017028647915976404110_);" d="
				M698,0H0v704h698V0z"/>
		</mask>
		<g class="st53">
			<path class="st7" d="M15.5,401.1c5.8-0.8,9.8-6.3,8.9-12.1c-1.1-7.3-1.9-14.6-2.6-22c-0.4-5.9-5.6-10.2-11.6-9.8
				c-5.9,0.4-10.2,5.6-9.8,11.5c0.7,7.8,1.5,15.7,2.8,23.4C4.3,397.8,9.8,401.9,15.5,401.1z"/>
		</g>
		<defs>
			
				<filter id="Adobe_OpacityMaskFilter_00000181781657319335181700000006004099915502561417_" filterUnits="userSpaceOnUse" x="13.2" y="424.6" width="28.6" height="43.1">
				<feColorMatrix  type="matrix" values="1 0 0 0 0  0 1 0 0 0  0 0 1 0 0  0 0 0 1 0"/>
			</filter>
		</defs>
		
			<mask maskUnits="userSpaceOnUse" x="13.2" y="424.6" width="28.6" height="43.1" id="mask26_370_33_00000097494135769935163730000004165492303261151920_">
			<path style="fill:#FFFFFF;filter:url(#Adobe_OpacityMaskFilter_00000181781657319335181700000006004099915502561417_);" d="
				M698,0H0v704h698V0z"/>
		</mask>
		<g class="st55">
			<path class="st7" d="M41.1,453.1c-2.6-6.9-5-13.9-7-20.9c-1.7-5.6-7.6-8.8-13.3-7.1c-5.6,1.6-8.8,7.6-7.2,13.3
				c2.2,7.6,4.8,15,7.6,22.4c2.1,5.6,8.8,8.4,14.3,6C40.6,464.2,43.2,458.3,41.1,453.1z"/>
		</g>
		<defs>
			
				<filter id="Adobe_OpacityMaskFilter_00000105385306921670451090000018099678208271470984_" filterUnits="userSpaceOnUse" x="658.8" y="341.3" width="21.9" height="32.8">
				<feColorMatrix  type="matrix" values="1 0 0 0 0  0 1 0 0 0  0 0 1 0 0  0 0 0 1 0"/>
			</filter>
		</defs>
		
			<mask maskUnits="userSpaceOnUse" x="658.8" y="341.3" width="21.9" height="32.8" id="mask27_370_33_00000161610721184128091430000018317199534020074126_">
			<path style="fill:#FFFFFF;filter:url(#Adobe_OpacityMaskFilter_00000105385306921670451090000018099678208271470984_);" d="
				M698,0H0v704h698V0z"/>
		</mask>
		<g class="st57">
			<path class="st7" d="M670.4,341.3c-5.9-0.3-10.9,4.4-11,10.3c-0.1,3.7-0.3,7.4-0.5,11c-0.4,5.8,4.1,11,9.9,11.4
				c5.8,0.4,11-4.1,11.4-9.9c0.3-3.9,0.4-7.8,0.5-11.7C680.8,346.5,676.3,341.5,670.4,341.3z"/>
		</g>
	</g>
</g>
</svg>
