<svg width="512" height="426" viewBox="0 0 512 426" fill="none" xmlns="http://www.w3.org/2000/svg">
<g clip-path="url(#clip0_379_453)">
<mask id="mask0_379_453" style="mask-type:luminance" maskUnits="userSpaceOnUse" x="0" y="0" width="512" height="426">
<path d="M512 0H0V425.5H512V0Z" fill="white"/>
</mask>
<g mask="url(#mask0_379_453)">
<path d="M56.0001 259.7L52.2001 255.9C-4.0999 199.6 -4.0999 108.4 52.2001 52.2C108.5 -4.00004 199.7 -4.10004 255.9 52.2L256.1 52.4L256.3 52.6L316.9 137.7L429.6 250.4C440.4 261.2 440.4 278.7 429.6 289.6C418.8 300.4 401.3 300.4 390.4 289.6C401.2 300.4 401.2 317.9 390.4 328.8C379.6 339.6 362.1 339.6 351.2 328.8C362 339.6 362 357.1 351.2 368C340.4 378.8 322.9 378.8 312 368L270.4 326.4L270 326.8L311.6 368.4C322.4 379.2 322.4 396.7 311.6 407.6C300.8 418.4 283.3 418.4 272.4 407.6L249 383.7L56.0001 259.7Z" fill="#FCC69D"/>
</g>
<mask id="mask1_379_453" style="mask-type:luminance" maskUnits="userSpaceOnUse" x="0" y="0" width="512" height="426">
<path d="M512 0H0V425.5H512V0Z" fill="white"/>
</mask>
<g mask="url(#mask1_379_453)">
<path d="M353.4 112.2L345.2 120.4C334.1 131.5 319.1 137.7 303.5 137.7H264.1L233.9 167.9C221 180.8 200.1 180.8 187.3 167.9C174.4 155 174.4 134.1 187.3 121.3L256.2 52.4C312.4 -3.99997 403.6 -3.99997 459.9 52.3C516.2 108.6 516.2 199.8 459.9 256L440.5 275.4L435.8 259.7L317.8 141.8" fill="#FCC69D"/>
</g>
<mask id="mask2_379_453" style="mask-type:luminance" maskUnits="userSpaceOnUse" x="0" y="0" width="512" height="426">
<path d="M512 0H0V425.5H512V0Z" fill="white"/>
</mask>
<g mask="url(#mask2_379_453)">
<path d="M203.7 346.1L186.5 363.3C175.7 374.1 175.7 391.6 186.5 402.5C197.3 413.3 214.8 413.3 225.7 402.5L242.9 385.3C253.7 374.5 253.7 357 242.9 346.1C232 335.3 214.5 335.3 203.7 346.1Z" fill="#FCC69D"/>
</g>
<mask id="mask3_379_453" style="mask-type:luminance" maskUnits="userSpaceOnUse" x="0" y="0" width="512" height="426">
<path d="M512 0H0V425.5H512V0Z" fill="white"/>
</mask>
<g mask="url(#mask3_379_453)">
<path d="M164.6 306.9L147.4 324.1C136.6 334.9 136.6 352.4 147.4 363.3C158.2 374.1 175.7 374.1 186.6 363.3L203.8 346.1C214.6 335.3 214.6 317.8 203.8 306.9C192.9 296.1 175.4 296.1 164.6 306.9Z" fill="#FCC69D"/>
</g>
<mask id="mask4_379_453" style="mask-type:luminance" maskUnits="userSpaceOnUse" x="0" y="0" width="512" height="426">
<path d="M512 0H0V425.5H512V0Z" fill="white"/>
</mask>
<g mask="url(#mask4_379_453)">
<path d="M125.4 267.8L108.2 285C97.4001 295.8 97.4001 313.3 108.2 324.2C119 335 136.5 335 147.4 324.2L164.6 307C175.4 296.2 175.4 278.7 164.6 267.8C153.8 256.9 136.2 257 125.4 267.8Z" fill="#FCC69D"/>
</g>
<mask id="mask5_379_453" style="mask-type:luminance" maskUnits="userSpaceOnUse" x="0" y="0" width="512" height="426">
<path d="M512 0H0V425.5H512V0Z" fill="white"/>
</mask>
<g mask="url(#mask5_379_453)">
<path d="M86.1999 228.6L68.9999 245.9C58.1999 256.7 58.1999 274.2 68.9999 285.1C79.7999 295.9 97.2999 295.9 108.2 285.1L125.4 267.9C136.2 257.1 136.2 239.6 125.4 228.7C114.6 217.8 97.0999 217.8 86.1999 228.6Z" fill="#FCC69D"/>
</g>
<mask id="mask6_379_453" style="mask-type:luminance" maskUnits="userSpaceOnUse" x="0" y="0" width="512" height="426">
<path d="M512 0H0V425.5H512V0Z" fill="white"/>
</mask>
<g mask="url(#mask6_379_453)">
<path d="M460.7 41.9C458.1 41.9 455.5 43 453.6 44.8C451.7 46.7 450.7 49.2 450.7 51.9C450.7 54.5 451.8 57.1 453.6 59C455.5 60.9 458 61.9 460.7 61.9C463.3 61.9 465.9 60.8 467.8 59C469.7 57.1 470.7 54.6 470.7 51.9C470.7 49.3 469.6 46.7 467.8 44.8C465.9 43 463.3 41.9 460.7 41.9Z" fill="black"/>
</g>
<mask id="mask7_379_453" style="mask-type:luminance" maskUnits="userSpaceOnUse" x="0" y="0" width="512" height="426">
<path d="M512 0H0V425.5H512V0Z" fill="white"/>
</mask>
<g mask="url(#mask7_379_453)">
<path d="M231 277.4C228.4 277.4 225.8 278.5 223.9 280.3C222 282.2 221 284.7 221 287.4C221 290 222.1 292.6 223.9 294.5C225.8 296.4 228.3 297.4 231 297.4C233.6 297.4 236.2 296.3 238.1 294.5C240 292.6 241 290.1 241 287.4C241 284.8 239.9 282.2 238.1 280.3C236.2 278.5 233.6 277.4 231 277.4Z" fill="black"/>
</g>
<mask id="mask8_379_453" style="mask-type:luminance" maskUnits="userSpaceOnUse" x="0" y="0" width="512" height="426">
<path d="M512 0H0V425.5H512V0Z" fill="white"/>
</mask>
<g mask="url(#mask8_379_453)">
<path d="M492 78.1C489.3 73.3 483.2 71.6 478.4 74.3C473.6 77 471.9 83.1 474.7 87.9C504.4 140.1 495.4 206.3 452.9 248.9L445.3 256.5C443.5 251.7 440.6 247.2 436.8 243.3L333.9 140.6C340.6 137.3 346.8 132.9 352.3 127.4L372 107.7C375.9 103.8 375.9 97.5 372 93.6C368.1 89.7 361.8 89.7 357.9 93.6L338.2 113.3C328.9 122.6 316.6 127.7 303.5 127.7H264.1C261.4 127.7 258.9 128.8 257 130.6L226.8 160.8C217.8 169.8 203.3 169.8 194.3 160.8C185.3 151.8 185.3 137.3 194.3 128.3L263.2 59.4C305.3 17.3 371 8 423 36.9C427.8 39.6 433.9 37.8 436.6 33C439.3 28.2 437.5 22.1 432.7 19.4C404 3.5 370.2 -2.9 337.6 1.5C307 5.5 279 18.3 256.1 38.6C227.9 13.7 192 0 154 0C112.9 0 74.2 16 45.1 45.1C16 74.2 0 112.9 0 154C0 195.1 16 233.9 45.1 263L48.9 266.8C49.6 267.5 50.3 268 51.1 268.4C51.8 277.1 55.4 285.5 62 292.1C69.3 299.4 79 303.1 88.6 303.1C89.1 303.1 89.6 303.1 90.1 303.1C90.1 303.6 90.1 304.1 90.1 304.6C90.1 314.7 94 324.1 101.1 331.2C108.4 338.5 118.1 342.2 127.7 342.2C128.2 342.2 128.7 342.2 129.2 342.2C129.2 342.7 129.2 343.2 129.2 343.7C129.2 353.8 133.1 363.2 140.2 370.3C147.5 377.6 157.2 381.3 166.8 381.3C167.3 381.3 167.8 381.3 168.3 381.3C167.9 391.5 171.6 401.7 179.3 409.5C186.4 416.6 195.9 420.5 205.9 420.5C216 420.5 225.4 416.6 232.5 409.5L246.5 395.5L265.4 414.4C272.5 421.5 282 425.4 292 425.4C302.1 425.4 311.5 421.5 318.6 414.4C326.4 406.6 330.1 396.1 329.6 385.9C330.2 385.9 330.9 385.9 331.5 385.9C341.2 385.9 350.8 382.2 358.1 374.9C365.8 367.2 369.5 356.9 369.1 346.7C369.6 346.7 370.1 346.7 370.6 346.7C380.7 346.7 390.1 342.8 397.2 335.7C404.9 328 408.6 317.7 408.2 307.5C408.7 307.5 409.2 307.5 409.7 307.5C419.8 307.5 429.2 303.6 436.3 296.5C439.9 292.9 442.6 288.7 444.5 284.3C445.5 283.8 446.4 283.2 447.2 282.4L466.6 263C515.8 214.2 526.1 138.1 492 78.1ZM88.6 283.1C83.9 283.1 79.4 281.3 76.1 277.9C72.8 274.6 70.9 270.1 70.9 265.4C70.9 260.7 72.7 256.2 76.1 252.9L93.3 235.7C96.6 232.4 101.1 230.5 105.8 230.5C110.5 230.5 115 232.3 118.3 235.7C125.2 242.6 125.2 253.8 118.3 260.7L101.1 277.9C97.8 281.3 93.3 283.1 88.6 283.1ZM115.2 317.1C111.9 313.8 110 309.3 110 304.6C110 299.9 111.8 295.4 115.2 292.1L132.4 274.9C135.7 271.6 140.2 269.7 144.9 269.7C149.6 269.7 154.1 271.5 157.4 274.9C164.3 281.8 164.3 293 157.4 299.9L140.2 317.1C133.3 324 122.1 324 115.2 317.1ZM154.4 356.2C151.1 352.9 149.2 348.4 149.2 343.7C149.2 339 151 334.5 154.4 331.2L171.6 314C174.9 310.7 179.4 308.8 184.1 308.8C188.8 308.8 193.3 310.6 196.6 314C203.5 320.9 203.5 332.1 196.6 339L179.4 356.2C172.5 363.1 161.3 363.1 154.4 356.2ZM218.6 395.4C215.3 398.7 210.8 400.6 206.1 400.6C201.4 400.6 196.9 398.8 193.6 395.4C186.7 388.5 186.7 377.3 193.6 370.4L210.8 353.2C214.1 349.9 218.6 348 223.3 348C228 348 232.5 349.8 235.8 353.2C239.1 356.5 241 361 241 365.7C241 370.4 239.2 374.9 235.8 378.2L218.6 395.4ZM422.5 282.5C419.2 285.8 414.7 287.7 410 287.7C405.3 287.7 400.8 285.9 397.5 282.5L355.9 240.9L316.7 201.7C312.8 197.8 306.5 197.8 302.6 201.7C298.7 205.6 298.7 211.9 302.6 215.8L383.4 296.6C390.3 303.5 390.3 314.7 383.4 321.6C380.1 324.9 375.6 326.8 370.9 326.8C366.2 326.8 361.7 325 358.4 321.6L277.6 240.8C273.7 236.9 267.4 236.9 263.5 240.8C259.6 244.7 259.6 251 263.5 254.9L302.6 294L344.2 335.6C351.1 342.5 351.1 353.7 344.2 360.6C337.3 367.5 326.1 367.5 319.2 360.6L277.6 319C276.8 318.2 276 317.6 275 317.2L263.1 305.3C259.2 301.4 252.9 301.4 249 305.3C245.1 309.2 245.1 315.5 249 319.4L304.7 375.1C311.6 382 311.6 393.2 304.7 400.1C301.4 403.4 296.9 405.3 292.2 405.3C287.5 405.3 283 403.5 279.7 400.1L258.5 378.9C260.1 374.7 261 370.1 261 365.5C261 355.4 257.1 346 250 338.9C242.9 331.8 233.4 327.9 223.4 327.9C222.9 327.9 222.4 327.9 221.9 327.9C222.3 317.8 218.6 307.5 210.9 299.7C203.8 292.6 194.3 288.7 184.3 288.7C183.8 288.7 183.3 288.7 182.8 288.7C183.2 278.6 179.5 268.3 171.8 260.5C164.7 253.4 155.2 249.5 145.2 249.5C144.7 249.5 144.2 249.5 143.7 249.5C144.1 239.4 140.4 229.1 132.7 221.3C118 206.6 94.1 206.6 79.4 221.3L62.2 238.5C60 240.7 58.2 243.1 56.7 245.6C32.9 220.9 20 188.5 20 154C20 118.2 33.9 84.5 59.3 59.2C84.6 33.9 118.2 20 154 20C186.5 20 217.3 31.5 241.6 52.6L180.1 114.1C172 122.2 167.5 133 167.5 144.5C167.5 156 172 166.8 180.1 174.9C188.5 183.3 199.5 187.5 210.5 187.5C221.5 187.5 232.5 183.3 240.9 174.9L268.1 147.7H303.4C306.3 147.7 309.2 147.5 312 147.1L422.4 257.5C429.4 264.4 429.4 275.6 422.5 282.5Z" fill="black"/>
</g>
</g>
<defs>
<clipPath id="clip0_379_453">
<rect width="512" height="425.5" fill="white"/>
</clipPath>
</defs>
</svg>
