<?xml version="1.0" encoding="utf-8"?>
<!-- Generator: Adobe Illustrator 26.0.0, SVG Export Plug-In . SVG Version: 6.00 Build 0)  -->
<svg version="1.1" id="svg3240" xmlns:svg="http://www.w3.org/2000/svg"
	 xmlns="http://www.w3.org/2000/svg" xmlns:xlink="http://www.w3.org/1999/xlink" x="0px" y="0px" viewBox="0 0 682.7 682.7"
	 style="enable-background:new 0 0 682.7 682.7;" xml:space="preserve">
<style type="text/css">
	.st0{fill:none;stroke:#000000;stroke-width:14;stroke-linecap:round;stroke-linejoin:round;stroke-miterlimit:13.3333;}
	.st1{fill:none;stroke:#D90000;stroke-width:14;stroke-linecap:round;stroke-linejoin:round;stroke-miterlimit:13.3333;}
</style>
<g id="g3246" transform="matrix(1.3333333,0,0,-1.3333333,0,682.66667)">
	<g id="g3248">
		<g>
			<g id="g3250">
				<g id="g3256" transform="translate(194.665,105.6582)">
					<path id="path3258" class="st0" d="M0,0c1.3-18.5,16.6-33.2,35-34c10.1-0.4,19.4,3.2,26.3,9.5v-71.1h-163.9
						c-15,0-27.2,12.2-27.2,27.2V95.4H61.3V29.9c-6.5,5.9-15.2,9.5-24.7,9.5C15.5,39.5-1.5,21.5,0,0z"/>
				</g>
				<g id="g3260" transform="translate(394.1475,10.002)">
					<path id="path3262" class="st0" d="M0,0h25.8c15,0,27.2,12.2,27.2,27.2v163.9h-66.8c5,6.7,7.7,15.1,7.2,24.1
						c-1.1,18.3-15.8,33.2-34.1,34.5c-21.5,1.5-39.4-15.5-39.4-36.7c0-8.2,2.7-15.8,7.3-21.9h-65.3v-65.5
						c-6.9,6.3-16.2,9.9-26.4,9.5c-18.5-0.8-33.7-15.7-35-34.1c-1.5-21.5,15.5-39.4,36.7-39.4c9.5,0,18.1,3.6,24.7,9.5V0h49.8"/>
				</g>
				<g id="g3264" transform="translate(275.2051,494.0449)">
					<path id="path3266" class="st1" d="M0,0l115.9-115.9l-47.3-47.3c-1.2,8.2-5.2,16.1-12,22.1C43-128.8,22-128.7,8.2-140.7
						C-8-154.9-8.7-179.5,6.3-194.5c5.8-5.8,13.1-9.3,20.7-10.4L-19.2-251l-48.2,48.2c-0.4-8.8-4-17.4-10.7-24.2
						c-14.4-14.4-37.7-14.3-52.1,0.1c-14.4,14.4-14.4,37.7-0.1,52.1c6.7,6.7,15.4,10.3,24.2,10.7l-48.2,48.2L-38.4,0
						C-27.8,10.6-10.6,10.6,0,0z"/>
				</g>
				<g id="g3268" transform="translate(350.418,10.002)">
					<path id="path3270" class="st0" d="M0,0L0,0"/>
				</g>
			</g>
		</g>
	</g>
</g>
</svg>
