<svg width="683" height="592" viewBox="0 0 683 592" fill="none" xmlns="http://www.w3.org/2000/svg">
<g clip-path="url(#clip0_369_59)">
<mask id="mask0_369_59" style="mask-type:luminance" maskUnits="userSpaceOnUse" x="0" y="0" width="683" height="592">
<path d="M682.7 0H0V592H682.7V0Z" fill="white"/>
</mask>
<g mask="url(#mask0_369_59)">
<path d="M327.3 484.3C323.5 484.3 319.7 484.1 316 483.7C282.7 480.1 252.4 460.6 235.2 443.5C207 415.6 182.2 371 168.9 324.2C154.9 277.6 152 227.5 161.1 190.3C166.7 167.4 182.4 136.3 209.6 117.9C224.3 107.9 243.6 101.1 260 100.2C275.9 99.3 288 102.9 296.2 110.9C310 124.5 309 146.6 308.2 166.2V166.8C307.7 202.1 302 220.4 271 229C270.2 229.2 269.5 229.3 268.7 229.4C267.7 230.1 264.4 233.8 262.2 243.8C259.9 254.3 259.9 267.1 262.1 279.7C263.2 286 264.8 292.6 266.7 299.4C268.7 306.2 271 312.6 273.5 318.6C285.6 347.5 303.6 359.8 307.8 359.8C308.5 359.5 309.3 359.2 310.1 359C341.1 352.5 355.9 365.5 375.3 395.4L376.7 397.5C388.5 414.6 400.7 432.2 395.8 450.1C392.8 460.9 384.1 469.4 369.4 476.1C357.5 481.3 342.2 484.3 327.3 484.3ZM264.8 120C263.6 120 262.4 120 261.1 120.1C248.3 120.9 232.5 126.5 220.8 134.4C198.3 149.7 185 176.6 180.5 195.1C172.1 229 175 275.1 188 318.5V318.6C200.4 362.2 223.3 403.6 249.2 429.2C263.4 443.3 289.9 460.8 318.1 463.8C332.9 465.4 349.3 463.1 361 457.8C369.9 453.8 375.1 449.4 376.4 444.7C378.8 435.9 369.3 422.2 360.1 408.9L358.6 406.7C358.5 406.6 358.5 406.5 358.4 406.5C340.2 378.4 332.6 374.9 315.1 378.4C311.5 379.9 306.2 380.7 299.2 378.2C283.2 372.5 265.3 351.6 254.8 326.3C252 319.7 249.5 312.5 247.3 305.1C245.1 297.6 243.4 290.2 242.1 283.2C237.4 256.6 241.5 230.2 252.1 217.6C257 211.7 262.4 209.9 266.4 209.6C282.3 205 287.5 200.1 287.9 166.5C287.9 166.4 287.9 166.3 287.9 166.2V165.5C288.6 149.3 289.3 132.6 281.9 125.3C278.6 121.7 272.8 120 264.8 120Z" fill="#D90000"/>
</g>
<mask id="mask1_369_59" style="mask-type:luminance" maskUnits="userSpaceOnUse" x="0" y="0" width="683" height="592">
<path d="M682.7 0H0V592H682.7V0Z" fill="white"/>
</mask>
<g mask="url(#mask1_369_59)">
<path d="M590.5 119.9H455.5C450 119.9 445.5 115.4 445.5 109.9C445.5 104.4 450 99.9 455.5 99.9H590.5C596 99.9 600.5 104.4 600.5 109.9C600.5 115.5 596 119.9 590.5 119.9Z" fill="#D90000"/>
</g>
<mask id="mask2_369_59" style="mask-type:luminance" maskUnits="userSpaceOnUse" x="0" y="0" width="683" height="592">
<path d="M682.7 0H0V592H682.7V0Z" fill="white"/>
</mask>
<g mask="url(#mask2_369_59)">
<path d="M590.5 172.7H455.5C450 172.7 445.5 168.2 445.5 162.7C445.5 157.2 450 152.7 455.5 152.7H590.5C596 152.7 600.5 157.2 600.5 162.7C600.5 168.3 596 172.7 590.5 172.7Z" fill="#D90000"/>
</g>
<mask id="mask3_369_59" style="mask-type:luminance" maskUnits="userSpaceOnUse" x="0" y="0" width="683" height="592">
<path d="M682.7 0H0V592H682.7V0Z" fill="white"/>
</mask>
<g mask="url(#mask3_369_59)">
<path d="M418.8 310.9C416.5 310.9 414.7 310.3 413.7 309.8C409 307.7 406.1 302.8 406.1 297.2V294.8C406.1 294.4 406.1 294 406.2 293.6L411.7 247.2C373.7 220.6 352.1 181.8 352.1 139.9C352.1 102.3 369.5 67 401.2 40.6C432.3 14.6 473.6 0.299988 517.4 0.299988C554.2 0.299988 588.9 10.3 618 29.1C622.6 32.1 624 38.3 621 42.9C618 47.5 611.8 48.9 607.2 45.9C581.4 29.2 550.3 20.3 517.5 20.3C437.4 20.3 372.2 73.9 372.2 139.8C372.2 176.7 392.5 211 427.9 233.9C431.4 236.2 433.1 240.3 432.3 244.3L427.8 281.6L462.3 254.8C464.8 252.9 468.1 252.2 471.1 253.1C486 257.2 501.6 259.3 517.4 259.3C597.5 259.3 662.7 205.7 662.7 139.8C662.7 115.8 654.1 92.7 637.8 72.9C634.3 68.6 634.9 62.3 639.2 58.8C643.5 55.3 649.8 55.9 653.3 60.2C672.6 83.6 682.8 111.1 682.8 139.8C682.8 177.4 665.4 212.7 633.7 239.1C602.6 265.1 561.3 279.4 517.5 279.4C501.6 279.4 485.8 277.5 470.7 273.7L433.7 302.4C432.3 303.7 431.5 304.4 430.9 304.9C430.3 305.4 429.8 305.9 429 306.6C425.1 310 421.6 310.9 418.8 310.9Z" fill="black"/>
</g>
<mask id="mask4_369_59" style="mask-type:luminance" maskUnits="userSpaceOnUse" x="0" y="0" width="683" height="592">
<path d="M682.7 0H0V592H682.7V0Z" fill="white"/>
</mask>
<g mask="url(#mask4_369_59)">
<path d="M296 592C216.9 592 142.6 561.2 86.7 505.3C30.8 449.4 0 375.1 0 296C0 234 18.9 174.7 54.7 124.4C57.9 119.9 64.1 118.9 68.6 122.1C73.1 125.3 74.1 131.5 70.9 136C37.5 182.9 19.9 238.2 19.9 296C19.9 369.7 48.6 439 100.7 491.2C153 543.3 222.3 572 296 572C369.7 572 439 543.3 491.2 491.2C543.3 439 572 369.7 572 296C572 284 571.2 271.9 569.7 259.9C569 254.4 572.8 249.4 578.3 248.7C583.8 248 588.8 251.8 589.5 257.3C591.2 270.1 592 283.1 592 296C592 375.1 561.2 449.4 505.3 505.3C449.4 561.2 375.1 592 296 592ZM92.2 105.3C89.7 105.3 87.1 104.3 85.2 102.4C81.3 98.5 81.2 92.2 85.1 88.3C112.9 60.1 145.4 38.1 181.7 22.9C217.9 7.7 256.4 0 296 0C341.3 0 384.7 9.9 425.1 29.6C430.1 32 432.1 38 429.7 43C427.3 48 421.3 50 416.3 47.6C378.7 29.3 338.2 20 296 20C259.1 20 223.2 27.2 189.3 41.4C155.5 55.6 125.2 76.1 99.3 102.4C97.4 104.4 94.8 105.3 92.2 105.3Z" fill="black"/>
</g>
</g>
<defs>
<clipPath id="clip0_369_59">
<rect width="682.7" height="592" fill="white"/>
</clipPath>
</defs>
</svg>
