<svg width="595" height="591" viewBox="0 0 595 591" fill="none" xmlns="http://www.w3.org/2000/svg">
<g clip-path="url(#clip0_369_95)">
<mask id="mask0_369_95" style="mask-type:luminance" maskUnits="userSpaceOnUse" x="0" y="0" width="595" height="591">
<path d="M595 0H0V591H595V0Z" fill="white"/>
</mask>
<g mask="url(#mask0_369_95)">
<path d="M595 262.295V541.44C595 568.822 572.811 591 545.417 591H49.5833C22.1885 591 0 568.822 0 541.44V262.295C0 247.799 6.32188 234.046 17.3542 224.63L33.2208 211.001C37.4354 207.408 43.6333 207.903 47.2281 212.116C50.8229 216.204 50.3271 222.523 46.1125 226.116L30.2458 239.745C28.6344 241.232 27.0229 242.843 25.7833 244.577L286.592 467.968C293.038 473.172 302.21 473.172 308.532 467.968L569.341 244.577C567.977 242.843 566.49 241.232 564.878 239.745L549.011 226.116C544.921 222.523 544.425 216.328 548.02 212.116C551.615 208.027 557.813 207.531 562.027 211.001L577.894 224.63C588.678 234.046 595 247.799 595 262.295ZM575.167 541.44V265.516L403.608 412.585L571.076 556.184C573.679 551.6 575.167 546.52 575.167 541.44ZM191.392 412.585L19.8333 265.516V541.44C19.8333 546.644 21.3208 551.724 23.924 556.184L191.392 412.585ZM545.417 571.176C549.011 571.176 552.482 570.433 555.829 569.194L388.361 425.594L321.424 482.96C307.665 494.73 287.335 494.73 273.576 482.96L206.639 425.594L39.1708 569.194C42.5177 570.433 45.9885 571.176 49.5833 571.176H545.417ZM79.3333 261.18C84.7875 261.18 89.25 256.719 89.25 251.268V105.314C89.25 88.9597 102.638 75.5786 119 75.5786H476C492.363 75.5786 505.75 88.9597 505.75 105.314V251.268C505.75 256.719 510.213 261.18 515.667 261.18C521.121 261.18 525.583 256.719 525.583 251.268V105.314C525.583 77.9327 503.395 55.7547 476 55.7547H119C91.6052 55.7547 69.4167 77.9327 69.4167 105.314V251.268C69.4167 256.719 73.8792 261.18 79.3333 261.18Z" fill="black"/>
</g>
<mask id="mask1_369_95" style="mask-type:luminance" maskUnits="userSpaceOnUse" x="0" y="0" width="595" height="591">
<path d="M595 0H0V591H595V0Z" fill="white"/>
</mask>
<g mask="url(#mask1_369_95)">
<path d="M188.417 322.882V269.853C157.427 258.95 141.188 225.001 152.097 194.026C160.526 170.238 182.962 154.379 208.25 154.379H238C301.095 154.379 328.118 120.058 329.233 118.696C332.58 114.359 338.778 113.492 343.117 116.837C345.596 118.696 346.959 121.669 346.959 124.643V184.114H356.876C373.362 184.114 386.626 197.372 386.626 213.85C386.626 230.329 373.362 243.586 356.876 243.586H346.959V303.058C346.959 308.509 342.497 312.97 337.043 312.97C333.944 312.97 330.969 311.483 329.109 309.005C328.118 307.642 303.822 277.039 247.793 273.694V322.882C247.793 339.36 234.529 352.618 218.043 352.618C201.804 352.618 188.417 339.36 188.417 322.882ZM347.083 203.938V223.762H357C362.454 223.762 366.917 219.302 366.917 213.85C366.917 208.399 362.454 203.938 357 203.938H347.083ZM228.083 322.882V273.322H208.25V322.882C208.25 328.333 212.712 332.794 218.167 332.794C223.621 332.794 228.083 328.333 228.083 322.882ZM247.917 173.831V253.994C276.427 254.861 303.946 264.153 327.25 280.508V147.316C303.946 163.671 276.427 172.964 247.917 173.831ZM208.25 253.498H228.083V174.203H208.25C186.309 174.203 168.583 191.92 168.583 213.85C168.583 235.781 186.309 253.498 208.25 253.498ZM436.333 203.938H416.5C411.046 203.938 406.583 208.399 406.583 213.85C406.583 219.302 411.046 223.762 416.5 223.762H436.333C441.787 223.762 446.25 219.302 446.25 213.85C446.25 208.399 441.787 203.938 436.333 203.938ZM420.962 244.701C416.128 242.223 410.054 244.206 407.699 249.162C405.22 253.994 407.203 260.065 412.161 262.419L431.995 272.331C436.953 274.809 442.903 272.826 445.258 267.87C447.737 263.038 445.754 257.091 440.796 254.613L420.962 244.701ZM416.5 184.114C417.987 184.114 419.599 183.743 420.962 183.123L440.796 173.211C445.63 170.733 447.613 164.786 445.258 159.954C442.779 155.122 436.829 153.14 431.995 155.494L412.161 165.406C407.203 167.884 405.22 173.831 407.699 178.663C409.31 182.008 412.781 184.114 416.5 184.114Z" fill="#D90000"/>
</g>
<mask id="mask2_369_95" style="mask-type:luminance" maskUnits="userSpaceOnUse" x="0" y="0" width="595" height="591">
<path d="M595 0H0V591H595V0Z" fill="white"/>
</mask>
<g mask="url(#mask2_369_95)">
<path d="M250.272 35.9308C246.677 31.7182 247.173 25.5233 251.388 21.9302L267.006 8.54906C280.89 -2.84969 300.971 -2.84969 314.854 8.54906L330.473 21.9302C334.564 25.5233 335.059 31.7182 331.465 35.9308C327.87 40.0195 321.672 40.5151 317.581 37.0459L301.839 23.5409C295.393 18.3371 286.22 18.3371 279.898 23.5409L264.279 36.922C260.189 40.5151 253.867 40.0195 250.272 35.9308Z" fill="#D90000"/>
</g>
</g>
<defs>
<clipPath id="clip0_369_95">
<rect width="595" height="591" fill="white"/>
</clipPath>
</defs>
</svg>
