<?xml version="1.0" encoding="utf-8"?>
<!-- Generator: Adobe Illustrator 26.0.0, SVG Export Plug-In . SVG Version: 6.00 Build 0)  -->
<svg version="1.1" id="Layer_1" xmlns="http://www.w3.org/2000/svg" xmlns:xlink="http://www.w3.org/1999/xlink" x="0px" y="0px"
	 viewBox="0 0 512 512" style="enable-background:new 0 0 512 512;" xml:space="preserve">
<style type="text/css">
	.st0{clip-path:url(#SVGID_00000127750077430315191600000016448619877754023319_);}
	.st1{fill:#FFFFFF;filter:url(#Adobe_OpacityMaskFilter);}
	.st2{mask:url(#mask0_378_265_00000020372551464527220070000001909431966622045330_);}
	.st3{fill:#FFFFFF;filter:url(#Adobe_OpacityMaskFilter_00000111176951917835267090000014097869515481211065_);}
	.st4{mask:url(#mask1_378_265_00000115513541266986698670000010492540971551093944_);}
	.st5{fill:#D90000;}
	.st6{fill:#FFFFFF;filter:url(#Adobe_OpacityMaskFilter_00000161627862706351076360000005333327825961220269_);}
	.st7{mask:url(#mask2_378_265_00000077301191409448799970000001381904466922480829_);}
	.st8{fill:#FFFFFF;filter:url(#Adobe_OpacityMaskFilter_00000067196532812989823230000014591439500390738085_);}
	.st9{mask:url(#mask3_378_265_00000069378503614791061930000018169505114334289043_);}
	.st10{fill:#FFFFFF;filter:url(#Adobe_OpacityMaskFilter_00000175301091159666389180000004829333066426887097_);}
	.st11{mask:url(#mask4_378_265_00000006687322560681091730000009013297491653648792_);}
	.st12{fill:#FFFFFF;filter:url(#Adobe_OpacityMaskFilter_00000011000668511310961730000003845622422883315903_);}
	.st13{mask:url(#mask5_378_265_00000051349351027472558570000008759147185401696919_);}
	.st14{fill:#FFFFFF;filter:url(#Adobe_OpacityMaskFilter_00000144318152844367062420000001124096327480233393_);}
	.st15{mask:url(#mask6_378_265_00000158015247510970051780000012331606597468102316_);}
	.st16{fill:#FFFFFF;filter:url(#Adobe_OpacityMaskFilter_00000023969332144592287510000015344904584183630782_);}
	.st17{mask:url(#mask7_378_265_00000100344739030942367790000016502050337876348336_);}
	.st18{fill:#FFFFFF;filter:url(#Adobe_OpacityMaskFilter_00000129173662823441370910000010258728274911383683_);}
	.st19{mask:url(#mask8_378_265_00000073680868305539558960000011872039719527478705_);}
	.st20{fill:#FFFFFF;filter:url(#Adobe_OpacityMaskFilter_00000005254668990627452940000001334958634394200468_);}
	.st21{mask:url(#mask9_378_265_00000018206220491143105200000008756315436747051932_);}
	.st22{fill:#FFFFFF;}
</style>
<g>
	<defs>
		<rect id="SVGID_1_" width="512" height="512"/>
	</defs>
	<clipPath id="SVGID_00000087409281348884455310000015984636364901424318_">
		<use xlink:href="#SVGID_1_"  style="overflow:visible;"/>
	</clipPath>
	<g style="clip-path:url(#SVGID_00000087409281348884455310000015984636364901424318_);">
		<defs>
			<filter id="Adobe_OpacityMaskFilter" filterUnits="userSpaceOnUse" x="0" y="0" width="511.9" height="512">
				<feColorMatrix  type="matrix" values="1 0 0 0 0  0 1 0 0 0  0 0 1 0 0  0 0 0 1 0"/>
			</filter>
		</defs>
		
			<mask maskUnits="userSpaceOnUse" x="0" y="0" width="511.9" height="512" id="mask0_378_265_00000020372551464527220070000001909431966622045330_">
			<path class="st1" d="M512,0H0v512h512V0z"/>
		</mask>
		<g class="st2">
			<path d="M47.9,288.1c-2.3,0-4.4-0.1-6.5,0c-1.2,0-1.6-0.4-1.6-1.6c0-20.3,0-40.6,0-61c0-1.5,0.7-1.5,1.8-1.5
				c11.4,0,22.8,0,34.2,0c0.7,0,1.3,0,2.3,0c-0.3-0.7-0.6-1.2-0.8-1.7c-3.8-6.4-6.4-13.3-7.9-20.6c-0.2-1-0.3-1.7-1.6-1.7
				c-6.2,0.1-12.4,0-18.7,0c-0.3,0-0.6,0.1-1.1,0.2v7.7H0v-79.8h47.9v7.8c0.9,0,1.5,0,2.1,0c13.5,0,27,0,40.5,0
				c3.1,0,5.4-2.3,5.4-5.4c0-8.1,0-16.1,0-24.2v-2.3c-2.3,0-4.3-0.1-6.4,0c-1.3,0.1-1.7-0.4-1.7-1.7c0-26.2-0.1-52.4,0.1-78.5
				C88,10.3,98.8,0,112.4,0c15.8,0,31.5,0,47.3,0c13.5,0,24.2,10.5,24.3,24.1c0.1,26.1,0,52.1,0,78.2c0,0.6-0.1,1.1-0.1,1.8H176v2.2
				c0,8.3,0,16.6,0,25c0,2,2.4,4.7,4.4,4.8c14.3,0,28.6,0,42.9,0c0.1,0,0.2-0.1,0.6-0.2v-7.6h24v-15.9h16.1V128h24v7.8h24
				c0-0.8,0-1.5,0-2.3c0-6.5,0.1-13.1,0-19.6c0-1.7,0.5-2,2.1-2c22.4,0,44.9,0,67.3,0c0.8,0,1.6,0,2.6,0V80.2H432c0,0.8,0,1.5,0,2.2
				c0,9.1,0,18.1,0,27.2c0,2.4,0,2.4,2.4,2.4c1.8,0,3.7,0,5.7,0v23.8h23.9v-7.6h48v79.8H464v-7.7h-23.9V224c0.8,0,1.5,0.1,2.2,0.1
				c9.2,0,18.5,0,27.7,0c1.7,0,2,0.5,2,2.1c0,20,0,40,0,60c0,1.5-0.4,2.1-1.9,2c-2-0.1-3.9,0-6.1,0v2.5c0,39.5,0.1,79.1,0,118.6
				c0,16-4.6,30.6-15,43c-8.7,10.4-19.9,17.2-32.5,21.6c-17.7,6.1-35.9,7.2-54.4,5.6c-12.7-1.1-24.9-4-36.4-9.7
				c-21.6-10.8-34.2-28-37.2-52c-0.4-3.7-0.6-7.5-0.6-11.2c0-38.6,0-77.2,0-115.8v-2.5H280v-64h31.7v-23.9H288v7.8h-23.9V224h-16.2
				v-15.9c-1.1,0-2,0-3,0c-6.2,0-12.4,0-18.7,0c-2.4,0-2.4,0-2.4-2.4c0-1.8,0-3.6,0-5.6c-1.3,0-2.4,0-3.4,0c-5.4,0-10.7,0-16.1,0
				c-0.8,0-1.5-0.1-1.8,1.1c-1.6,7.9-4.4,15.2-8.5,22.1c-0.1,0.1-0.1,0.3-0.1,0.7h37.9v64H224v2.7c0,38.8,0,77.6,0,116.4
				c0,10.2-1.5,20.3-5.7,29.7c-7.2,16.5-19.7,27.5-36,34.6c-6.6,2.9-13.5,4.9-20.6,6.2c-1.4,0.3-1.8,0.8-1.8,2.1c0,10,0,20,0,30
				c0,0.7,0,1.4,0,2.3h-48.1c0-0.8,0-1.5,0-2.2c0-9.9,0-19.8,0-29.8c0-1.5-0.3-2.1-1.9-2.4c-11.2-2.1-21.8-5.8-31.4-11.9
				c-18.2-11.6-28.1-28.3-30.3-49.7c-0.3-2.7-0.4-5.4-0.4-8.1c0-39,0-78.1,0-117.1V288.1z M304.1,288.1c0,0.6-0.1,1-0.1,1.4
				c0,40.2-0.2,80.4,0.1,120.7c0.2,20.7,10.2,35.8,28.9,44.9c10.4,5.1,21.5,7.4,32.9,8.4c16.3,1.4,32.2-0.2,47.6-6.1
				c22.3-8.5,34.4-25.4,34.4-48.2c0.1-39.7,0-79.4,0-119.2c0-0.7-0.1-1.3-0.1-2L304.1,288.1L304.1,288.1z M64,288.2
				c0,0.8,0,1.3,0,1.9c0,39.9,0,79.7,0,119.5c0,6.7,1.2,13.2,3.7,19.5c5,12.5,14.2,20.9,26.2,26.5c10.2,4.8,21,7.1,32.1,8
				c16.2,1.3,32.1-0.3,47.4-6c10.2-3.8,19-9.6,25.4-18.6c6.8-9.4,9.1-20.1,9.1-31.4c0-39.1,0-78.2,0-117.3c0-0.7,0-1.3,0-2.1
				L64,288.2L64,288.2z M136.2,240c29.4-0.7,52.6-24.4,51.7-53.1c-0.9-30.1-25.3-51.2-52.6-50.8c-28.6,0.4-51.7,23.5-51.3,52.7
				C84.5,217.5,107.6,239.8,136.2,240z M423.9,128.3h-95.7v95.6h95.7V128.3z M167.9,87.9c0-0.6,0.1-0.9,0.1-1.3
				c0-20.7,0-41.5,0-62.2c0-4.8-3.4-8.2-8.3-8.2c-15.6,0-31.2,0-46.7,0c-5.7,0-8.9,3.1-8.9,8.9c0,20.3,0,40.5,0,60.8v2.1H167.9z
				 M312,256.2h16.1v15.7H368v-15.7h16.1v15.8h39.9v-15.8h16.1v15.7h15.7v-31.7H296.1v31.7H312V256.2z M128,272c0-5.3,0-10.3,0-15.3
				c0-1.2-0.8-1.1-1.6-1.3c-12.4-1.8-23.4-6.6-33.1-14.4c-0.7-0.6-1.8-0.9-2.7-0.9c-10.9-0.1-21.8,0-32.7,0c-0.6,0-1.2,0.1-1.7,0.1
				v31.7h15.8v-15.8H88v15.8L128,272L128,272z M215.9,240.3c-0.3-0.1-0.6-0.2-0.8-0.2c-11.5,0-22.9,0-34.4,0c-0.6,0-1.3,0.3-1.8,0.7
				c-9.8,7.9-21,12.8-33.5,14.5c-1.1,0.1-1.4,0.6-1.4,1.7c0,3.9,0,7.8,0,11.6c0,1.1,0,2.1,0,3.2h40v-15.7h16v15.8h15.8L215.9,240.3
				L215.9,240.3z M271.9,144.2h-31.7v47.7h31.7V144.2z M159.8,104.3h-47.7v20.1c15.9-5.8,31.8-5.8,47.7,0V104.3z M16.1,191.9h15.7
				v-47.7H16.1V191.9z M480.2,192h15.6v-47.7h-15.6V192z M463.9,152.2h-23.7v31.7h23.7V152.2z M78.2,152.2H48.1v31.7h20
				C68.9,172.6,72.2,162.1,78.2,152.2z M311.8,152.2h-23.7v31.7h23.7V152.2z M193.8,152.2c6,9.9,9.3,20.4,10.1,31.7h20v-31.7H193.8z
				 M128.2,495.8h15.6V480h-15.6V495.8z M400.2,96.1v15.8H416c0-5,0-9.9,0-14.7c0-0.3-0.6-1-0.9-1C410.1,96.1,405.2,96.1,400.2,96.1
				z"/>
		</g>
		<defs>
			
				<filter id="Adobe_OpacityMaskFilter_00000003095437479748675020000009995857334882670499_" filterUnits="userSpaceOnUse" x="368" y="304" width="48.1" height="136.1">
				<feColorMatrix  type="matrix" values="1 0 0 0 0  0 1 0 0 0  0 0 1 0 0  0 0 0 1 0"/>
			</filter>
		</defs>
		
			<mask maskUnits="userSpaceOnUse" x="368" y="304" width="48.1" height="136.1" id="mask1_378_265_00000115513541266986698670000010492540971551093944_">
			<path style="fill:#FFFFFF;filter:url(#Adobe_OpacityMaskFilter_00000003095437479748675020000009995857334882670499_);" d="
				M512,0H0v512h512V0z"/>
		</mask>
		<g class="st4">
			<path class="st5" d="M416.1,372.1c0,14.5,0,29.1,0,43.6c0,13.3-10.3,24-23.4,24.4c-13,0.4-23.9-9.8-24.6-23c0-0.6,0-1.1,0-1.7
				c0-28.9,0-57.8,0-86.7c0-13.4,9.7-23.8,22.8-24.7c13.5-0.8,25.3,10.1,25.3,23.7C416.1,342.6,416.1,357.4,416.1,372.1z M400,372.1
				c0-4.1,0-8.2,0-12.4c0-10.5,0-21.1,0-31.6c0-3.4-1.6-5.9-4.7-7.3c-3-1.4-5.9-0.9-8.4,1.3c-2.3,1.9-2.8,4.5-2.8,7.3
				c0,28.4,0,56.8,0,85.2c0,0.9,0,1.8,0.2,2.8c0.4,2.3,1.6,4.1,3.5,5.4c2.6,1.6,5.4,1.8,8.1,0.3c2.8-1.6,4.1-4.1,4.1-7.3
				C399.9,401.1,400,386.6,400,372.1z"/>
		</g>
		<defs>
			
				<filter id="Adobe_OpacityMaskFilter_00000080928449098095491140000016403137428953578638_" filterUnits="userSpaceOnUse" x="144" y="304" width="48.1" height="136.1">
				<feColorMatrix  type="matrix" values="1 0 0 0 0  0 1 0 0 0  0 0 1 0 0  0 0 0 1 0"/>
			</filter>
		</defs>
		
			<mask maskUnits="userSpaceOnUse" x="144" y="304" width="48.1" height="136.1" id="mask2_378_265_00000077301191409448799970000001381904466922480829_">
			<path style="fill:#FFFFFF;filter:url(#Adobe_OpacityMaskFilter_00000080928449098095491140000016403137428953578638_);" d="
				M512,0H0v512h512V0z"/>
		</mask>
		<g class="st7">
			<path class="st5" d="M144,372c0-14.6,0-29.2,0-43.8c0-13.3,10.1-23.7,23.6-24.2c12.6-0.4,23.6,9.7,24.4,22.6
				c0.1,1.4,0.1,2.8,0.1,4.3c0,28.1,0,56.3,0,84.5c0,14.6-11.6,25.7-25.7,24.7c-12.7-0.9-22.4-11.3-22.4-24
				C144,401.3,144,386.7,144,372z M160,372c0,9.3,0,18.6,0,27.9c0,5.4-0.1,10.8,0,16.3c0,4,3,7.2,6.9,7.7c3.9,0.5,7.6-1.8,8.7-5.6
				c0.4-1.3,0.4-2.7,0.4-4c0-28.1,0-56.3,0-84.4c0-1,0-2-0.1-3c-0.4-3.2-2.8-5.8-6-6.5c-5.2-1.2-9.8,2.6-9.8,8.1
				C160,343,160,357.5,160,372z"/>
		</g>
		<defs>
			
				<filter id="Adobe_OpacityMaskFilter_00000088115147560092571560000008544516252968411830_" filterUnits="userSpaceOnUse" x="80.1" y="336.1" width="47.8" height="15.9">
				<feColorMatrix  type="matrix" values="1 0 0 0 0  0 1 0 0 0  0 0 1 0 0  0 0 0 1 0"/>
			</filter>
		</defs>
		
			<mask maskUnits="userSpaceOnUse" x="80.1" y="336.1" width="47.8" height="15.9" id="mask3_378_265_00000069378503614791061930000018169505114334289043_">
			<path style="fill:#FFFFFF;filter:url(#Adobe_OpacityMaskFilter_00000088115147560092571560000008544516252968411830_);" d="
				M512,0H0v512h512V0z"/>
		</mask>
		<g class="st9">
			<path class="st5" d="M128,336.1H80.1v15.9H128V336.1z"/>
		</g>
		<defs>
			
				<filter id="Adobe_OpacityMaskFilter_00000062881024187174932330000005320266133492504996_" filterUnits="userSpaceOnUse" x="80.1" y="400.1" width="31.8" height="15.8">
				<feColorMatrix  type="matrix" values="1 0 0 0 0  0 1 0 0 0  0 0 1 0 0  0 0 0 1 0"/>
			</filter>
		</defs>
		
			<mask maskUnits="userSpaceOnUse" x="80.1" y="400.1" width="31.8" height="15.8" id="mask4_378_265_00000006687322560681091730000009013297491653648792_">
			<path style="fill:#FFFFFF;filter:url(#Adobe_OpacityMaskFilter_00000062881024187174932330000005320266133492504996_);" d="
				M512,0H0v512h512V0z"/>
		</mask>
		<g class="st11">
			<path class="st5" d="M111.9,400.1H80.1V416h31.8V400.1z"/>
		</g>
		<defs>
			
				<filter id="Adobe_OpacityMaskFilter_00000139988039833021873270000010560414527974301105_" filterUnits="userSpaceOnUse" x="112.1" y="368.1" width="15.8" height="15.9">
				<feColorMatrix  type="matrix" values="1 0 0 0 0  0 1 0 0 0  0 0 1 0 0  0 0 0 1 0"/>
			</filter>
		</defs>
		
			<mask maskUnits="userSpaceOnUse" x="112.1" y="368.1" width="15.8" height="15.9" id="mask5_378_265_00000051349351027472558570000008759147185401696919_">
			<path style="fill:#FFFFFF;filter:url(#Adobe_OpacityMaskFilter_00000139988039833021873270000010560414527974301105_);" d="
				M512,0H0v512h512V0z"/>
		</mask>
		<g class="st13">
			<path class="st5" d="M127.9,368.1h-15.8v15.9h15.8V368.1z"/>
		</g>
		<defs>
			
				<filter id="Adobe_OpacityMaskFilter_00000038386087602039253170000001212596635122353296_" filterUnits="userSpaceOnUse" x="80.1" y="368.1" width="15.9" height="15.8">
				<feColorMatrix  type="matrix" values="1 0 0 0 0  0 1 0 0 0  0 0 1 0 0  0 0 0 1 0"/>
			</filter>
		</defs>
		
			<mask maskUnits="userSpaceOnUse" x="80.1" y="368.1" width="15.9" height="15.8" id="mask6_378_265_00000158015247510970051780000012331606597468102316_">
			<path style="fill:#FFFFFF;filter:url(#Adobe_OpacityMaskFilter_00000038386087602039253170000001212596635122353296_);" d="
				M512,0H0v512h512V0z"/>
		</mask>
		<g class="st15">
			<path class="st5" d="M95.9,368.1H80.1v15.8h15.9V368.1z"/>
		</g>
		<defs>
			
				<filter id="Adobe_OpacityMaskFilter_00000054226512922657380440000003199710302211521956_" filterUnits="userSpaceOnUse" x="125.3" y="157.2" width="37.6" height="37.7">
				<feColorMatrix  type="matrix" values="1 0 0 0 0  0 1 0 0 0  0 0 1 0 0  0 0 0 1 0"/>
			</filter>
		</defs>
		
			<mask maskUnits="userSpaceOnUse" x="125.3" y="157.2" width="37.6" height="37.7" id="mask7_378_265_00000100344739030942367790000016502050337876348336_">
			<path style="fill:#FFFFFF;filter:url(#Adobe_OpacityMaskFilter_00000054226512922657380440000003199710302211521956_);" d="
				M512,0H0v512h512V0z"/>
		</mask>
		<g class="st17">
			<path class="st5" d="M152.2,157.2c3.5,3.5,7.2,7.2,10.7,10.8c-9,8.9-18,18-27,27c-3.4-3.5-7.1-7.3-10.5-10.9
				C134.1,175.3,143.1,166.2,152.2,157.2z"/>
		</g>
		<defs>
			
				<filter id="Adobe_OpacityMaskFilter_00000144331170632868548230000015312309918497536139_" filterUnits="userSpaceOnUse" x="344" y="143.8" width="64.1" height="48.4">
				<feColorMatrix  type="matrix" values="1 0 0 0 0  0 1 0 0 0  0 0 1 0 0  0 0 0 1 0"/>
			</filter>
		</defs>
		
			<mask maskUnits="userSpaceOnUse" x="344" y="143.8" width="64.1" height="48.4" id="mask8_378_265_00000073680868305539558960000011872039719527478705_">
			<path style="fill:#FFFFFF;filter:url(#Adobe_OpacityMaskFilter_00000144331170632868548230000015312309918497536139_);" d="
				M512,0H0v512h512V0z"/>
		</mask>
		<g class="st19">
			<path class="st5" d="M376.2,143.8c4.4,0.3,8.8,0,13,0.8c11.8,2.4,19.6,13.2,18.8,25.2c-0.8,11.6-10.1,21.3-22,22
				c-7.1,0.4-14.3,0.5-21.4-0.3c-12.4-1.3-21.4-12.9-20.5-25.4c0.9-12.5,11.4-22.3,24-22.3c2.7,0,5.4,0,8.1,0
				C376.2,144,376.2,143.9,376.2,143.8z M376.1,160.1c-2.7,0-5.3,0-8,0c-4.5,0.1-7.9,3.3-8.1,7.7c-0.2,4.2,3,7.9,7.4,8.1
				c5.7,0.2,11.3,0.2,17,0c4.5-0.2,7.7-3.9,7.5-8.2c-0.2-4.3-3.6-7.6-8.1-7.7C381.3,160.1,378.7,160.1,376.1,160.1z"/>
		</g>
		<defs>
			
				<filter id="Adobe_OpacityMaskFilter_00000153689510564610282230000000575471363897718970_" filterUnits="userSpaceOnUse" x="384" y="320" width="16" height="104">
				<feColorMatrix  type="matrix" values="1 0 0 0 0  0 1 0 0 0  0 0 1 0 0  0 0 0 1 0"/>
			</filter>
		</defs>
		
			<mask maskUnits="userSpaceOnUse" x="384" y="320" width="16" height="104" id="mask9_378_265_00000018206220491143105200000008756315436747051932_">
			<path style="fill:#FFFFFF;filter:url(#Adobe_OpacityMaskFilter_00000153689510564610282230000000575471363897718970_);" d="
				M512,0H0v512h512V0z"/>
		</mask>
		<g class="st21">
			<path class="st22" d="M400,372.1c0,14.5,0,29.1,0,43.6c0,3.3-1.3,5.7-4.1,7.3c-2.7,1.5-5.4,1.4-8.1-0.3c-2-1.3-3.2-3.1-3.6-5.4
				c-0.1-0.9-0.2-1.8-0.2-2.8c0-28.4,0-56.8,0-85.2c0-2.8,0.6-5.4,2.8-7.3c2.5-2.1,5.4-2.7,8.4-1.3c3.1,1.4,4.7,3.9,4.7,7.3
				c0,10.5,0,21.1,0,31.6C400,363.8,400,368,400,372.1z"/>
		</g>
	</g>
</g>
</svg>
