<?xml version="1.0" encoding="utf-8"?>
<!-- Generator: Adobe Illustrator 26.0.0, SVG Export Plug-In . SVG Version: 6.00 Build 0)  -->
<svg version="1.1" id="Capa_1" xmlns="http://www.w3.org/2000/svg" xmlns:xlink="http://www.w3.org/1999/xlink" x="0px" y="0px"
	 viewBox="0 0 512 512" style="enable-background:new 0 0 512 512;" xml:space="preserve">
<style type="text/css">
	.st0{fill:#D90000;}
</style>
<g>
	<circle cx="256" cy="216.9" r="7.9"/>
	<path d="M331.3,315.6l20.3,8.7c1.9,0.8,4.1,0.9,6.1,0.1c2-0.8,3.5-2.3,4.4-4.2l13.5-31.5c1.7-4-0.1-8.7-4.2-10.4l-20.3-8.7
		c1.2-8.2,1.3-16.4,0.3-24.6l20.5-8.2c4.1-1.6,6.1-6.2,4.4-10.3l-12.7-31.8c-0.8-2-2.3-3.5-4.2-4.4c-1.9-0.8-4.1-0.9-6.1-0.1
		l-20.5,8.2c-4.9-6.6-10.7-12.5-17.2-17.6l8.7-20.3c1.7-4-0.1-8.7-4.2-10.4l-31.5-13.5c-1.9-0.8-4.1-0.9-6.1-0.1
		c-2,0.8-3.5,2.3-4.4,4.2l-8.7,20.3c-8.2-1.2-16.4-1.3-24.6-0.3l-8.2-20.5c-1.6-4.1-6.2-6.1-10.3-4.4l-31.8,12.7
		c-2,0.8-3.5,2.3-4.3,4.2c-0.8,1.9-0.9,4.1-0.1,6.1l8.2,20.5c-6.6,4.9-12.5,10.7-17.6,17.2l-20.3-8.7c-1.9-0.8-4.1-0.9-6.1-0.1
		c-2,0.8-3.5,2.3-4.4,4.2l-13.5,31.5c-1.7,4,0.1,8.7,4.2,10.4l20.3,8.7c-1.2,8.2-1.3,16.4-0.3,24.6l-20.5,8.2
		c-4.1,1.6-6.1,6.2-4.4,10.3l12.7,31.8c0.8,2,2.3,3.5,4.2,4.4c1.9,0.8,4.1,0.9,6.1,0.1l20.5-8.2c4.9,6.6,10.7,12.5,17.2,17.6
		l-8.7,20.3c-1.7,4,0.1,8.7,4.2,10.4l31.5,13.5c1.9,0.8,4.1,0.9,6.1,0.1c2-0.8,3.5-2.3,4.4-4.2l8.7-20.3c8.2,1.2,16.4,1.3,24.6,0.3
		l8.2,20.5c1.2,3.1,4.2,5,7.4,5c1,0,2-0.2,2.9-0.6l31.8-12.7c2-0.8,3.5-2.3,4.3-4.2c0.8-1.9,0.9-4.1,0.1-6.1l-8.2-20.5
		C320.2,327.8,326.1,322,331.3,315.6L331.3,315.6z M322,301.3c-6,8.8-13.5,16.1-22.4,21.9c-3.2,2.1-4.5,6.1-3.1,9.6l7.6,19
		l-17.1,6.8l-7.6-19c-1.2-3.1-4.2-5-7.4-5c-0.5,0-1,0-1.5,0.1c-10.4,1.9-20.9,1.8-31.3-0.4c-3.7-0.8-7.5,1.2-9,4.6l-8.1,18.8
		l-16.9-7.2l8.1-18.8c1.5-3.5,0.3-7.5-2.8-9.7c-8.8-6-16.1-13.5-21.9-22.4c-2.1-3.2-6.1-4.5-9.6-3.1l-19,7.6l-6.8-17.1l19-7.6
		c3.5-1.4,5.6-5.1,4.9-8.8c-2-10.4-1.8-20.9,0.4-31.3c0.8-3.7-1.1-7.5-4.6-9l-18.8-8.1l7.2-16.9l18.8,8.1c3.5,1.5,7.5,0.3,9.7-2.8
		c6-8.8,13.5-16.1,22.4-21.9c3.2-2.1,4.5-6.1,3.1-9.6l-7.6-19l17.1-6.8l7.6,19c1.4,3.5,5.1,5.6,8.8,4.9c10.4-2,20.9-1.8,31.3,0.4
		c3.7,0.8,7.5-1.2,9-4.6l8.1-18.8l16.9,7.2l-8.1,18.8c-1.5,3.5-0.3,7.5,2.8,9.7c8.8,6,16.1,13.5,21.9,22.4c2.1,3.2,6.1,4.5,9.6,3.1
		l19-7.6l6.8,17.1l-19,7.6c-3.5,1.4-5.6,5.1-4.9,8.8c2,10.4,1.8,20.9-0.4,31.3c-0.8,3.7,1.1,7.5,4.6,9l18.8,8.1l-7.2,16.9l-18.8-8.1
		C328.2,297,324.2,298.2,322,301.3L322,301.3z"/>
	<path d="M293.9,228.3c-2.6-3.5-7.6-4.3-11.1-1.7c-3.5,2.6-4.3,7.6-1.7,11.1c1.6,2.2,2.9,4.7,3.9,7.2c6.1,16-1.9,34-17.9,40.2
		c-7.8,3-16.2,2.7-23.8-0.6c-7.6-3.4-13.4-9.5-16.4-17.3c-3.8-9.8-2.3-20.8,3.8-29.3c2.6-3.6,1.7-8.5-1.8-11.1
		c-3.6-2.6-8.5-1.7-11.1,1.8c-9.3,12.9-11.4,29.4-5.7,44.2c4.5,11.7,13.3,21,24.7,26.1c6.1,2.7,12.6,4.1,19.1,4.1
		c5.7,0,11.4-1,16.8-3.1c24.2-9.3,36.3-36.5,27.1-60.7C298.4,235.3,296.4,231.6,293.9,228.3L293.9,228.3z"/>
	<path class="st0" d="M102.1,256c0-13.2-10.8-24-24-24s-24,10.8-24,24c0,13.2,10.8,24,24,24S102.1,269.2,102.1,256L102.1,256z
		 M70,256c0-4.5,3.6-8.1,8.1-8.1s8.1,3.6,8.1,8.1c0,4.5-3.6,8.1-8.1,8.1S70,260.5,70,256L70,256z"/>
	<path class="st0" d="M433.9,232c-13.2,0-24,10.8-24,24c0,13.2,10.8,24,24,24s24-10.8,24-24C457.9,242.8,447.1,232,433.9,232
		L433.9,232z M433.9,264.1c-4.5,0-8.1-3.6-8.1-8.1c0-4.5,3.6-8.1,8.1-8.1s8.1,3.6,8.1,8.1C442,260.5,438.4,264.1,433.9,264.1z"/>
	<path class="st0" d="M239.9,101.2h32.1c4.4,0,7.9-3.6,7.9-7.9V61.1c0-4.4-3.6-7.9-7.9-7.9h-32.1c-4.4,0-7.9,3.6-7.9,7.9v32.1
		C232,97.6,235.5,101.2,239.9,101.2z M247.9,69h16.3v16.3h-16.3V69z"/>
	<path class="st0" d="M262.9,398.2c-1.4-2.5-4-4-6.9-4c-2.8,0-5.5,1.5-6.9,4L221,446.9c-1.4,2.5-1.4,5.5,0,7.9c1.4,2.5,4,4,6.9,4
		h56.2c2.8,0,5.5-1.5,6.9-4c1.4-2.5,1.4-5.5,0-7.9L262.9,398.2z M241.6,443l14.4-24.9l14.4,24.9L241.6,443L241.6,443z"/>
	<path class="st0" d="M71.2,204.3c0.8,0.3,1.7,0.4,2.5,0.4c3.3,0,6.4-2.1,7.5-5.5c7.2-22,18.5-42,33.4-59.6
		c13.8-16.3,30-29.7,48.4-39.9l-3.6,16.6c-0.9,4.3,1.8,8.5,6.1,9.4c0.6,0.1,1.1,0.2,1.7,0.2c3.7,0,7-2.5,7.8-6.3l7.3-33.7
		c0.9-4-1.5-8-5.4-9.3l-32.4-10c-4.2-1.3-8.6,1-9.9,5.2c-1.3,4.2,1,8.6,5.2,9.9l14.7,4.6c-19.7,11.1-37.1,25.6-51.9,43
		c-16.2,19.2-28.5,41-36.3,64.9C64.8,198.4,67,202.9,71.2,204.3L71.2,204.3z"/>
	<path class="st0" d="M313.3,92.6c22,7.2,42,18.5,59.6,33.4c16.3,13.8,29.7,30,39.9,48.4l-16.6-3.6c-4.3-0.9-8.5,1.8-9.4,6.1
		c-0.9,4.3,1.8,8.5,6.1,9.4c0,0,34.8,7.4,35.4,7.4c3.4,0,6.5-2.2,7.6-5.6l10-32.4c1.3-4.2-1-8.6-5.2-9.9c-4.2-1.3-8.6,1-9.9,5.2
		l-4.6,14.7c-11.1-19.7-25.6-37.1-43-51.9c-19.2-16.2-41-28.5-64.9-36.3c-4.2-1.4-8.7,0.9-10,5.1C306.9,86.8,309.1,91.3,313.3,92.6z
		"/>
	<path class="st0" d="M440.8,299.9c-4.2-1.4-8.7,0.9-10,5.1c-7.2,22-18.5,42-33.4,59.6c-13.8,16.3-30,29.7-48.4,39.9l3.6-16.6
		c0.9-4.3-1.8-8.5-6.1-9.4c-4.3-0.9-8.5,1.8-9.4,6.1l-7.3,33.7c-0.9,4,1.5,8,5.4,9.3c0,0,34,10.4,34.8,10.4c3.4,0,6.5-2.2,7.6-5.6
		c1.3-4.2-1-8.6-5.2-9.9l-14.7-4.6c19.7-11.1,37.1-25.6,51.9-43c16.2-19.2,28.5-41,36.3-64.9C447.2,305.8,445,301.3,440.8,299.9
		L440.8,299.9z"/>
	<path class="st0" d="M198.7,411.5c-22-7.2-42-18.5-59.6-33.4c-16.3-13.8-29.7-30-39.9-48.4l16.6,3.6c4.3,0.9,8.5-1.8,9.4-6.1
		c0.9-4.3-1.8-8.5-6.1-9.4l-33.7-7.3c-4-0.9-8,1.5-9.3,5.4l-10,32.4c-1.3,4.2,1,8.6,5.2,9.9c0.8,0.2,1.6,0.4,2.4,0.4
		c3.4,0,6.5-2.2,7.6-5.6l4.6-14.7c11.1,19.7,25.6,37.1,43,51.9c19.2,16.2,41,28.5,64.9,36.3c0.8,0.3,1.7,0.4,2.5,0.4
		c3.3,0,6.4-2.1,7.5-5.5C205.1,417.4,202.9,412.9,198.7,411.5z"/>
</g>
</svg>
