<?xml version="1.0" encoding="utf-8"?>
<!-- Generator: Adobe Illustrator 26.0.0, SVG Export Plug-In . SVG Version: 6.00 Build 0)  -->
<svg version="1.1" id="Layer_1" xmlns="http://www.w3.org/2000/svg" xmlns:xlink="http://www.w3.org/1999/xlink" x="0px" y="0px"
	 viewBox="0 0 512 512" style="enable-background:new 0 0 512 512;" xml:space="preserve">
<style type="text/css">
	.st0{fill:#D90000;}
</style>
<g>
	<g>
		<path class="st0" d="M271.8,506.7c-31.1,0-62.3-8-89.2-24.1c-26.9-16.1-47.9-39.7-60.7-68c-14.4-31.8-18.8-69.2-13-110.9
			c0.4-3.1,3.3-5.3,6.4-4.9c3.1,0.4,5.3,3.3,4.9,6.4c-14.1,101.7,36.7,148.7,68.3,167.6c54.1,32.4,127,29.5,177.4-7
			c2.5-1.8,6.1-1.3,7.9,1.3c1.8,2.5,1.3,6.1-1.3,7.9C343.7,496.1,307.8,506.7,271.8,506.7L271.8,506.7z M429.4,312.3
			c-2.8,0-5.3-2.1-5.6-5c-1.5-11.4-3.7-22.9-6.5-34.2c-19-74.9-67.9-159.6-145.4-251.7C244.5,54,220.4,86,200.2,116.7
			c-1.7,2.6-5.3,3.4-7.9,1.6c-2.6-1.7-3.4-5.3-1.6-7.9c21.5-32.7,47.4-66.9,76.9-101.6c1.1-1.3,2.7-2,4.3-2s3.3,0.7,4.3,2
			c81.2,95.5,132.3,183.5,152.1,261.4c3,11.7,5.3,23.6,6.8,35.5c0.4,3.1-1.8,6-4.9,6.4C429.9,312.3,429.7,312.3,429.4,312.3
			L429.4,312.3z"/>
	</g>
	<g>
		<path d="M407.1,501h-31.7c-3.1,0-5.7-2.5-5.7-5.7v-18.9c-9.7-2.3-19-6.1-27.5-11.4l-13.3,13.3c-2.2,2.2-5.8,2.2-8,0L298.4,456
			c-2.2-2.2-2.2-5.8,0-8l13.3-13.3c-5.3-8.5-9.1-17.7-11.4-27.5h-18.9c-3.1,0-5.7-2.5-5.7-5.7v-31.7c0-3.1,2.5-5.7,5.7-5.7h18.9
			c2.3-9.7,6.1-19,11.4-27.5l-13.3-13.3c-2.2-2.2-2.2-5.8,0-8l22.4-22.4c2.2-2.2,5.8-2.2,8,0l13.3,13.3c8.5-5.3,17.7-9.1,27.5-11.4
			v-18.9c0-3.1,2.5-5.7,5.7-5.7h31.7c3.1,0,5.7,2.5,5.7,5.7v18.9c9.7,2.3,19,6.1,27.5,11.4l13.3-13.3c2.2-2.2,5.8-2.2,8,0l22.4,22.4
			c1.1,1.1,1.7,2.5,1.7,4c0,1.5-0.6,3-1.7,4l-13.3,13.3c5.3,8.5,9.1,17.7,11.4,27.5H501c3.1,0,5.7,2.5,5.7,5.7v31.7
			c0,3.1-2.5,5.7-5.7,5.7h-18.9c-2.3,9.7-6.1,19-11.4,27.5l13.3,13.3c2.2,2.2,2.2,5.8,0,8l-22.4,22.4c-2.2,2.2-5.8,2.2-8,0
			L440.3,465c-8.5,5.3-17.7,9.1-27.5,11.4v18.9C412.8,498.4,410.2,501,407.1,501L407.1,501z M381.1,489.6h20.3v-17.8
			c0-2.7,2-5.1,4.7-5.6c11.4-2.1,22.1-6.5,31.7-13.2c2.3-1.6,5.3-1.3,7.3,0.7l12.6,12.6l14.4-14.4l-12.6-12.6
			c-1.9-1.9-2.2-5-0.7-7.3c6.6-9.6,11.1-20.3,13.2-31.7c0.5-2.7,2.8-4.7,5.6-4.7h17.8v-20.3h-17.8c-2.7,0-5.1-2-5.6-4.7
			c-2.1-11.4-6.5-22.1-13.2-31.7c-1.6-2.3-1.3-5.3,0.7-7.3l12.6-12.6l-14.4-14.4L445,317.4c-1.9,1.9-5,2.2-7.3,0.7
			c-9.6-6.6-20.3-11.1-31.7-13.2c-2.7-0.5-4.7-2.8-4.7-5.6v-17.8h-20.3v17.8c0,2.7-2,5.1-4.7,5.6c-11.4,2.1-22.1,6.5-31.7,13.2
			c-2.3,1.6-5.3,1.3-7.3-0.7l-12.6-12.6l-14.4,14.4l12.6,12.6c1.9,1.9,2.2,5,0.7,7.3c-6.6,9.6-11.1,20.3-13.2,31.7
			c-0.5,2.7-2.8,4.7-5.6,4.7h-17.8v20.3H305c2.7,0,5.1,2,5.6,4.7c2.1,11.4,6.5,22.1,13.2,31.7c1.6,2.3,1.3,5.3-0.7,7.3l-12.6,12.6
			l14.4,14.4l12.6-12.6c1.9-1.9,5-2.2,7.3-0.7c9.6,6.6,20.3,11.1,31.7,13.2c2.7,0.5,4.7,2.8,4.7,5.6L381.1,489.6z"/>
	</g>
	<g>
		<path d="M391.2,451c-36.1,0-65.4-29.3-65.4-65.4s29.3-65.4,65.4-65.4s65.4,29.3,65.4,65.4S427.3,451,391.2,451z M391.2,331.5
			c-29.8,0-54,24.2-54,54s24.2,54,54,54s54-24.2,54-54S421,331.5,391.2,331.5z"/>
	</g>
	<g>
		<path d="M137.2,310.2h-31.7c-3.1,0-5.7-2.5-5.7-5.7v-18.9c-9.7-2.3-19-6.1-27.5-11.4L59,287.5c-1.1,1.1-2.5,1.7-4,1.7
			s-3-0.6-4-1.7l-22.4-22.4c-2.2-2.2-2.2-5.8,0-8l13.3-13.3c-5.3-8.5-9.1-17.7-11.4-27.5H11.6c-3.1,0-5.7-2.5-5.7-5.7v-31.7
			c0-3.1,2.5-5.7,5.7-5.7h18.9c2.3-9.7,6.1-19,11.4-27.5l-13.3-13.3c-2.2-2.2-2.2-5.8,0-8l22.4-22.4c2.2-2.2,5.8-2.2,8,0l13.3,13.3
			c8.5-5.3,17.7-9.1,27.5-11.4V85c0-3.1,2.5-5.7,5.7-5.7h31.7c3.1,0,5.7,2.5,5.7,5.7v18.9c9.7,2.3,19,6.1,27.5,11.4l13.3-13.3
			c2.2-2.2,5.8-2.2,8,0l22.4,22.4c1.1,1.1,1.7,2.5,1.7,4c0,1.5-0.6,3-1.7,4l-13.3,13.3c5.3,8.5,9.1,17.7,11.4,27.5h18.9
			c3.1,0,5.7,2.5,5.7,5.7v31.7c0,3.1-2.5,5.7-5.7,5.7h-18.9c-2.3,9.7-6.1,19-11.4,27.5l13.3,13.3c2.2,2.2,2.2,5.8,0,8l-22.4,22.4
			c-1.1,1.1-2.5,1.7-4,1.7s-3-0.6-4-1.7l-13.3-13.3c-8.5,5.3-17.7,9.1-27.5,11.4v18.9C142.9,307.6,140.3,310.2,137.2,310.2
			L137.2,310.2z M111.2,298.8h20.3V281c0-2.7,2-5.1,4.7-5.6c11.4-2.1,22.1-6.5,31.7-13.2c2.3-1.6,5.3-1.3,7.3,0.7l12.6,12.6
			l14.4-14.4l-12.6-12.6c-1.9-1.9-2.2-5-0.7-7.3c6.6-9.6,11.1-20.3,13.2-31.7c0.5-2.7,2.8-4.7,5.6-4.7h17.8v-20.3h-17.8
			c-2.7,0-5.1-2-5.6-4.7c-2.1-11.4-6.5-22.1-13.2-31.7c-1.6-2.3-1.3-5.3,0.7-7.3l12.6-12.6L187.8,114l-12.6,12.6
			c-1.9,1.9-5,2.2-7.3,0.7c-9.6-6.6-20.3-11.1-31.7-13.2c-2.7-0.5-4.7-2.8-4.7-5.6V90.7h-20.3v17.8c0,2.7-2,5.1-4.7,5.6
			c-11.4,2.1-22.1,6.5-31.7,13.2c-2.3,1.6-5.3,1.3-7.3-0.7L55,114l-14.4,14.4l12.6,12.6c1.9,1.9,2.2,5,0.7,7.3
			c-6.6,9.6-11.1,20.3-13.2,31.7c-0.5,2.7-2.8,4.7-5.6,4.7H17.3v20.3h17.8c2.7,0,5.1,2,5.6,4.7c2.1,11.4,6.5,22.1,13.2,31.7
			c1.6,2.3,1.3,5.3-0.7,7.3l-12.6,12.6L55,275.5l12.6-12.6c1.9-1.9,5-2.2,7.3-0.7c9.6,6.6,20.3,11.1,31.7,13.2
			c2.7,0.5,4.7,2.8,4.7,5.6L111.2,298.8L111.2,298.8z"/>
	</g>
	<g>
		<path d="M121.4,260.1c-36.1,0-65.4-29.3-65.4-65.4s29.3-65.4,65.4-65.4s65.4,29.3,65.4,65.4S157.4,260.1,121.4,260.1z
			 M121.4,140.7c-29.8,0-54,24.2-54,54s24.2,54,54,54s54-24.2,54-54C175.4,164.9,151.2,140.7,121.4,140.7z"/>
	</g>
	<g>
		<path class="st0" d="M243.6,449.4c-0.8,0-1.5-0.2-2.3-0.5c-40.3-17.4-56.7-46-63.4-67c-7.2-22.7-4.8-41.1-4.7-41.9
			c0.4-3.1,3.3-5.3,6.4-4.9c3.1,0.4,5.3,3.3,4.9,6.4c0,0.3-2.1,17.2,4.4,37.4c8.7,27,27.9,47,56.9,59.5c2.9,1.2,4.2,4.6,3,7.5
			C247.9,448.1,245.8,449.4,243.6,449.4L243.6,449.4z"/>
	</g>
	<g>
		<path class="st0" d="M334.2,242.9c-0.1,0-0.1,0-0.2,0c-3.1-0.1-5.6-2.7-5.5-5.9c1.1-37.1-8-68.9-27.1-94.3
			c-14.2-19-29-27.2-29.2-27.3c-2.8-1.5-3.8-5-2.3-7.7c1.5-2.8,4.9-3.8,7.7-2.3c0.7,0.4,16.8,9.2,32.5,29.9
			c14.4,19,31.2,52.1,29.8,102C339.8,240.5,337.3,242.9,334.2,242.9L334.2,242.9z"/>
	</g>
</g>
</svg>
