<?xml version="1.0" encoding="utf-8"?>
<!-- Generator: Adobe Illustrator 26.0.0, SVG Export Plug-In . SVG Version: 6.00 Build 0)  -->
<svg version="1.1" id="Layer_1" xmlns="http://www.w3.org/2000/svg" xmlns:xlink="http://www.w3.org/1999/xlink" x="0px" y="0px"
	 viewBox="0 0 512 512" style="enable-background:new 0 0 512 512;" xml:space="preserve">
<style type="text/css">
	.st0{fill-rule:evenodd;clip-rule:evenodd;}
	.st1{fill-rule:evenodd;clip-rule:evenodd;fill:#D90000;}
	.st2{fill:#FFFFFF;}
	.st3{fill:#D90000;}
</style>
<g id="Layer_1_00000065764353484133524950000012257265916998472071_">
	<g>
		<path class="st0" d="M257.5,395.9c-92.6,0-159.2-87.9-135.5-176.3c9.7-36.1,32.9-66.3,65.2-85c67-38.7,152.6-15.8,191.3,51.3
			c18.7,32.4,23.7,70.1,14,106.3C375.4,355.8,317.9,395.9,257.5,395.9L257.5,395.9z M136.9,223.5c-17.8,66.4,21.7,134.8,88.1,152.6
			c66.5,17.8,134.8-21.6,152.6-88.1S356,153.3,289.5,135.4C222.9,117.6,154.7,157,136.9,223.5L136.9,223.5z"/>
		<path class="st0" d="M193,378.9c-6.8,0-10.3-8.3-5.5-13.2l29.9-29.9c6.9-6.9,11.2-7,19.9-5.6c0.1,0,0.2,0,0.3,0.1
			c48.9,10.4,92.5-31.3,85.3-79.9l-37.1,37.1c-1.9,1.9-4.7,2.7-7.3,2l-39.2-9.6c-2.8-0.7-4.9-2.8-5.6-5.6l-10-39.6
			c-0.7-2.6,0.1-5.4,2-7.4l37.1-37.1c-48.5-7.2-89.8,36.2-80,84.6c4.4,11.6-3.3,19-7.9,23.5c-2.2,2.2,1.4-1.4-27.6,27.6
			c-3,3-7.9,3-10.9,0s-3-7.9,0-10.9l26.2-26.2c0.5-0.5,1.1-1.1,1.6-1.6c6.4-6.2,4.3-5.5,3.7-8.6c-13.9-65.5,48.7-121.7,112.6-100
			c2.5,0.9,4.4,3,5,5.6c0.6,2.6-0.2,5.3-2.1,7.2l-43.7,43.7l7.8,30.8l30.4,7.5l43.7-43.7c4-4,10.9-2.4,12.8,3
			c21.8,64-34.5,126.4-99.8,112.6c-1.1-0.2-3.5-0.6-4.4-0.5c-1.2,0.8-3,2.9-31.9,31.7C196.9,378.2,195,378.9,193,378.9L193,378.9z"
			/>
	</g>
</g>
<g id="Layer_1_00000183952958288904222100000014141245132473502112_">
	<g>
		<path class="st1" d="M276.6,479.8h-39.3c-9.3,0-17-6.6-18.4-15.8l-6.3-40.6c-15.2-4-29.7-10-43.3-17.9l-33.2,24.2
			c-7.5,5.5-17.7,4.7-24.2-1.9L84.2,400c-6.5-6.5-7.3-16.7-1.9-24.2l24.2-33.2c-7.9-13.6-13.9-28.1-17.9-43.3L48,293.1
			c-9.1-1.4-15.8-9.2-15.8-18.4v-39.3c0-9.3,6.6-17,15.8-18.4l40.6-6.3c4-15.2,10-29.7,17.9-43.3l-24.2-33.2
			c-5.5-7.5-4.7-17.7,1.9-24.2l27.8-27.8c6.5-6.5,16.7-7.3,24.2-1.9l33.2,24.2c13.6-7.9,28.1-13.9,43.3-17.9l6.3-40.6
			c1.4-9.1,9.2-15.7,18.5-15.7h39.3c9.3,0,17,6.6,18.4,15.8l6.3,40.6c15.2,4,29.7,10,43.3,17.9l33.2-24.2c7.5-5.5,17.7-4.7,24.2,1.9
			l27.8,27.8c6.5,6.5,7.3,16.7,1.9,24.2l-24.2,33.2c7.9,13.6,13.9,28.1,17.9,43.3l40.6,6.3c9.1,1.4,15.8,9.2,15.8,18.4v39.3
			c0,9.3-6.6,17-15.8,18.4l-40.6,6.3c-4,15.2-10,29.7-17.9,43.3l24.2,33.2c5.5,7.5,4.7,17.7-1.9,24.2L402,427.8
			c-6.5,6.5-16.7,7.3-24.2,1.9l-33.2-24.2c-13.6,7.9-28.1,13.9-43.3,17.9l-6.3,40.6C293.7,473.1,285.9,479.8,276.6,479.8
			L276.6,479.8z M173,389.7c14.8,9.3,31,16,48.1,19.9c3.1,0.7,5.4,3.2,5.9,6.3l7.1,45.7c0.3,1.6,1.6,2.7,3.2,2.7h39.3
			c1.6,0,2.9-1.1,3.2-2.7l7.1-45.7c0.5-3.1,2.8-5.6,5.9-6.3c17.1-4,33.3-10.7,48.2-19.9c2.7-1.7,6.1-1.5,8.6,0.3l37.3,27.3
			c1.3,1,3,0.8,4.2-0.3l27.8-27.8c1.2-1.2,1.3-2.9,0.3-4.2L392,347.6c-1.9-2.6-2-6-0.3-8.6c9.3-14.8,16-31,19.9-48.1
			c0.7-3.1,3.2-5.4,6.3-5.9l45.7-7.1c1.6-0.3,2.7-1.6,2.7-3.2v-39.3c0-1.6-1.1-2.9-2.7-3.2l-45.7-7.1c-3.1-0.5-5.6-2.8-6.3-5.9
			c-4-17.1-10.7-33.3-19.9-48.2c-1.7-2.7-1.5-6.1,0.3-8.6l27.3-37.3c1-1.3,0.8-3-0.3-4.2l-27.8-27.8c-1.2-1.2-2.9-1.3-4.2-0.3
			L349.7,120c-2.6,1.9-6,2-8.6,0.3c-14.8-9.3-31-16-48.2-19.9c-3.1-0.7-5.4-3.2-5.9-6.3l-7.1-45.7c-0.3-1.6-1.6-2.7-3.2-2.7h-39.3
			c-1.6,0-2.9,1.1-3.2,2.7l-7.1,45.7c-0.5,3.1-2.8,5.6-5.9,6.3c-17.1,4-33.3,10.7-48.1,19.9c-2.7,1.7-6.1,1.5-8.6-0.3l-37.3-27.2
			c-1.3-1-3-0.8-4.2,0.3l-27.8,27.8c-1.2,1.2-1.3,2.9-0.3,4.2l27.3,37.3c1.9,2.5,2,6,0.3,8.6c-9.3,14.8-16,31-19.9,48.2
			c-0.7,3.1-3.2,5.4-6.3,5.9l-45.7,7.1c-1.6,0.3-2.7,1.6-2.7,3.2v39.3c0,1.6,1.1,2.9,2.7,3.2l45.7,7.1c3.1,0.5,5.6,2.8,6.3,5.9
			c4,17.1,10.7,33.3,19.9,48.2c1.7,2.7,1.5,6.1-0.3,8.6L94.8,385c-1,1.3-0.8,3,0.3,4.2l27.8,27.8c1.2,1.2,2.9,1.3,4.2,0.3l37.3-27.3
			C166.9,388.1,170.3,388,173,389.7L173,389.7z"/>
	</g>
</g>
<g>
	<path class="st2" d="M-434.5,179c-4.3,4-9.6,8.8-14.9,13.6c-19.8,18-18.6,15.3-18.3,41c0.1,10.5-0.2,21,0.7,31.5
		c0.8,9.8,9.2,17.1,18.3,17.1c67.8,0,135.7,0,203.5,0c9.7,0,18-8.4,18-18.2c0-15.2-0.2-30.3,0.1-45.5c0.2-7-2.4-12.1-7.3-16.7
		c-10.5-9.7-21-19.5-31.2-29.6c-1.8-1.7-3.1-4.8-3.2-7.2c-0.3-14.3,0-28.7-0.2-43c0-3.3,1.1-4.9,3.9-6.5c3.4-2,6.6-4.7,8.9-7.8
		c10.6-13.7,6.1-35.5-9.3-42.3c0,7.2,0,14.1,0,21c0,3.3-9.6,12.4-12.8,12.3c-4-0.2-12.6-9.4-12.6-13.5c0-6.5,0-13.1,0-20
		c-19,10-20.2,37.5-2.6,48.7c5.4,3.4,6.6,6.9,6.2,12.4c-0.3,4-0.1,8-0.1,12c0,4.1,0,8.1,0,13.4c-3.4-3-5.7-5.2-8.1-7.2
		c-7.3-6-16.3-6.9-24.2-2.1c-3.8,2.3-7,5.6-10.4,8.5c-2.8,2.4-5.5,4.8-8.7,7.6c0-13.7,0-26.5,0-39.7c4.6,0,8.9,0,13.1,0
		c0.3-0.9,0.5-1.4,0.5-1.8c0-19.3,0.2-38.7-0.1-58c-0.1-7.4-4-12.9-10.4-16.6c-14.7-8.4-32.3,1.4-32.6,18.4
		c-0.3,18.2-0.1,36.3-0.1,54.5c0,1.1,0.3,2.2,0.6,3.8c4.7,0,9.1,0,13.5,0c0,13.2,0,25.8,0,39.5c-4.1-3.9-7.5-7.1-10.8-10.3
		c-12.4-11.7-22.8-11.8-35.4-0.4c-6.3,5.8-12.7,11.5-19.8,17.9c0-18.3,0-35.5,0-53.5c4.8,1.9,10.6-3.4,14,3.6
		c0.2,0.4,1.2,0.6,1.8,0.6c5.4,0,10.9,0,16.6,0c0-13.4,0-26.1,0-39.3c-5.8,0-11.2-0.1-16.7,0.1c-0.8,0-2.1,0.8-2.2,1.4
		c-0.4,3.4-3,2.5-5,2.5c-11.8,0.1-23.7-0.1-35.5,0.1c-10.1,0.2-17,9.7-14.3,19.5c2.1,7.7,7.4,11.5,16.4,11.7c8.4,0.1,7.6-1,7.7,7.9
		c0,17.5-0.1,35,0.1,52.5C-437.1,174.6-435.6,176.3-434.5,179z"/>
	<path d="M-434.5,179c-1.1-2.6-2.6-4.4-2.6-6.2c-0.2-17.5-0.1-35-0.1-52.5c0-8.9,0.7-7.8-7.7-7.9c-9-0.1-14.3-3.9-16.4-11.7
		c-2.6-9.8,4.2-19.3,14.3-19.5c11.8-0.2,23.7,0,35.5-0.1c2,0,4.5,0.9,5-2.5c0.1-0.6,1.4-1.4,2.2-1.4c5.5-0.1,10.9-0.1,16.7-0.1
		c0,13.2,0,26,0,39.3c-5.7,0-11.1,0-16.6,0c-0.6,0-1.6-0.2-1.8-0.6c-3.4-7-9.2-1.8-14-3.6c0,18,0,35.2,0,53.5
		c7.1-6.4,13.4-12.2,19.8-17.9c12.5-11.4,23-11.3,35.4,0.4c3.4,3.2,6.7,6.4,10.8,10.3c0-13.6,0-26.3,0-39.5c-4.4,0-8.9,0-13.5,0
		c-0.3-1.6-0.6-2.7-0.6-3.8c0-18.2-0.2-36.3,0.1-54.5c0.3-17,17.8-26.8,32.6-18.4c6.4,3.6,10.3,9.2,10.4,16.6
		c0.2,19.3,0.1,38.7,0.1,58c0,0.5-0.3,0.9-0.5,1.8c-4.2,0-8.5,0-13.1,0c0,13.2,0,26,0,39.7c3.2-2.8,5.9-5.3,8.7-7.6
		c3.4-2.9,6.6-6.2,10.4-8.5c7.9-4.8,16.9-3.8,24.2,2.1c2.4,2,4.7,4.1,8.1,7.2c0-5.3,0-9.4,0-13.4c0-4-0.3-8,0.1-12
		c0.4-5.5-0.8-9-6.2-12.4C-311,102.5-309.8,75-290.8,65c0,7,0,13.5,0,20c0,4.1,8.6,13.3,12.6,13.5c3.2,0.1,12.8-9,12.8-12.3
		c0-6.9,0-13.8,0-21c15.4,6.8,19.9,28.6,9.3,42.3c-2.4,3.1-5.6,5.8-8.9,7.8c-2.8,1.7-4,3.3-3.9,6.5c0.2,14.3-0.1,28.7,0.2,43
		c0.1,2.5,1.4,5.5,3.2,7.2c10.2,10,20.7,19.8,31.2,29.6c4.9,4.6,7.5,9.7,7.3,16.7c-0.4,15.2-0.1,30.3-0.1,45.5
		c0,9.8-8.3,18.2-18,18.2c-67.8,0-135.7,0-203.5,0c-9.1,0-17.5-7.3-18.3-17.1c-0.8-10.4-0.5-21-0.7-31.5c-0.3-25.7-1.6-22.9,18.3-41
		C-444.1,187.7-438.8,182.9-434.5,179z M-384,271.3c20.2,0,40.3,0,60.5,0c7.9,0,11.6-3.7,11.6-11.6c0.1-12.2-0.3-24.3,0.1-36.5
		c0.2-6.2-1.8-10.8-6.4-14.8c-11.8-10.4-23.5-21-35-31.8c-7.5-7-14.4-14.6-21.8-21.8c-5.2-5-9.8-5.2-15-0.5
		c-20.7,18.8-41.5,37.6-62,56.6c-2.2,2-3.9,5.7-4,8.6c-0.4,13.3-0.1,26.6,0,40c0.1,8.2,3.7,11.8,12,11.8
		C-424,271.3-404,271.3-384,271.3z M-299.5,227.1c0,15,0,29.4,0,44.2c16.3,0,33.1,0,49.9,0c7.9,0,11.6-3.7,11.7-11.6
		c0.1-13-0.1-26,0.1-39c0.1-4.3-1.4-7.7-4.6-10.6c-6.1-5.6-12.2-11.4-18.2-17.1c-13.5-12.7-27-25.3-40.4-38.1
		c-3.7-3.5-8.2-5.8-12.5-2.5c-7.6,5.8-14.5,12.5-21.8,18.9c8.9,8.4,17.5,15.8,25.2,24.1c4.2,4.5,7.3,10.2,9.9,15.8
		c1.3,2.9,2.2,4.2,5.4,4.1c10.8-0.2,21.6-0.1,32.4-0.1c0,4.2,0,7.9,0,11.8C-274.8,227.1-286.6,227.1-299.5,227.1z"/>
	<path class="st2" d="M-384,271.3c-20,0-40,0-60,0c-8.3,0-11.9-3.6-12-11.8c-0.1-13.3-0.3-26.7,0-40c0.1-2.9,1.8-6.6,4-8.6
		c20.5-19,41.2-37.8,62-56.6c5.2-4.7,9.8-4.5,15,0.5c7.4,7.2,14.3,14.7,21.8,21.8c11.5,10.8,23.1,21.4,35,31.8
		c4.6,4.1,6.6,8.6,6.4,14.8c-0.4,12.1-0.1,24.3-0.1,36.5c0,8-3.7,11.6-11.6,11.6C-343.7,271.3-363.8,271.3-384,271.3z"/>
	<path class="st2" d="M-299.5,227.1c13,0,24.8,0,37,0c0-3.9,0-7.6,0-11.8c-10.8,0-21.6-0.1-32.4,0.1c-3.2,0.1-4.1-1.2-5.4-4.1
		c-2.6-5.6-5.7-11.3-9.9-15.8c-7.7-8.3-16.3-15.7-25.2-24.1c7.4-6.5,14.3-13.2,21.8-18.9c4.3-3.3,8.8-1,12.5,2.5
		c13.4,12.7,26.9,25.4,40.4,38.1c6.1,5.7,12.1,11.5,18.2,17.1c3.1,2.9,4.6,6.2,4.6,10.6c-0.2,13,0,26-0.1,39
		c0,7.9-3.7,11.6-11.7,11.6c-16.8,0-33.6,0-49.9,0C-299.5,256.5-299.5,242.1-299.5,227.1z"/>
</g>
<path class="st3" d="M-268.9,132c0-3.7,0-7.4-0.1-11.1c0-3.3,1.1-4.9,3.9-6.5c3.4-2,6.6-4.7,8.9-7.8c10.6-13.7,6.1-35.5-9.3-42.3
	c0,7.2,0,14.1,0,21c0,3.3-9.6,12.4-12.8,12.3c-4-0.2-12.6-9.4-12.6-13.5c0-6.5,0-13.1,0-20c-19,10-20.2,37.5-2.6,48.7
	c5.4,3.4,6.6,6.9,6.2,12.4c-0.2,2.3-0.2,4.6-0.1,6.9h-51.4c0-4.8,0-9.5,0-14.3c4.6,0,8.9,0,13.1,0c0.3-0.9,0.5-1.4,0.5-1.8
	c0-19.3,0.2-38.7-0.1-58c-0.1-7.4-4-12.9-10.4-16.6c-14.7-8.4-32.3,1.4-32.6,18.4c-0.3,18.2-0.1,36.3-0.1,54.5
	c0,1.1,0.3,2.2,0.6,3.8c4.7,0,9.1,0,13.5,0c0,4.7,0,9.4,0,14.1H-420c0-6.9,0-13.8,0-20.8c4.8,1.9,10.6-3.4,14,3.6
	c0.2,0.4,1.2,0.6,1.8,0.6c5.4,0,10.9,0,16.6,0c0-13.4,0-26.1,0-39.3c-5.8,0-11.2-0.1-16.7,0.1c-0.8,0-2.1,0.8-2.2,1.4
	c-0.4,3.4-3,2.5-5,2.5c-11.8,0.1-23.7-0.1-35.5,0.1c-10.1,0.2-17,9.7-14.3,19.5c2.1,7.7,7.4,11.5,16.4,11.7c8.4,0.1,7.6-1,7.7,7.9
	c0,4.3,0,8.5,0,12.8"/>
</svg>
