<?xml version="1.0" encoding="utf-8"?>
<!-- Generator: Adobe Illustrator 26.0.0, SVG Export Plug-In . SVG Version: 6.00 Build 0)  -->
<svg version="1.1" id="svg6279" xmlns:svg="http://www.w3.org/2000/svg"
	 xmlns="http://www.w3.org/2000/svg" xmlns:xlink="http://www.w3.org/1999/xlink" x="0px" y="0px" viewBox="0 0 682.7 682.7"
	 style="enable-background:new 0 0 682.7 682.7;" xml:space="preserve">
<style type="text/css">
	.st0{fill:#D90000;}
</style>
<g>
	<path class="st0" d="M427.8,470.9c-71.5,0-129.6-58.1-129.6-129.6s58.1-129.6,129.6-129.6c71.5,0,129.6,58.1,129.6,129.6
		S499.2,470.9,427.8,470.9z M427.8,228c-62.5,0-113.4,50.9-113.4,113.4c0,62.5,50.9,113.4,113.4,113.4s113.4-50.9,113.4-113.4
		C541.1,278.8,490.3,228,427.8,228z"/>
	<path d="M423.4,540.4H262.9c-18.8,0-34.2-15.3-34.2-34.2V345.6c0-53.2,20.2-103.6,56.9-142c37-38.8,86.4-60.5,139.1-61.3l0,0
		c1,0,2.1,0,3.1,0c53.2,0,103,20.6,140.7,58.3c38.4,38.4,59.1,89.5,58.3,143.8c-0.8,52.7-22.6,102.1-61.3,139.1
		C527,520.2,476.6,540.4,423.4,540.4z M424.9,158.6c-99.2,1.5-180,85.4-180,187.1v160.6c0,9.9,8,17.9,17.9,17.9h160.6
		c101.7,0,185.6-80.7,187.1-180c0.8-49.9-18.2-96.8-53.5-132.1C521.7,176.8,474.8,157.8,424.9,158.6L424.9,158.6z"/>
	<path d="M271.5,436.2c-4.5,0-8.1-3.6-8.1-8.1v-86.8c0-57,28.9-109.1,77.4-139.3c7.6-4.8,10.5-14.2,6.9-22.4l-3.9-9
		c-1.8-4.1,0.1-8.9,4.2-10.7c4.1-1.8,8.9,0.1,10.7,4.2l3.9,9c6.8,15.4,1.1,33.7-13.2,42.7c-43.7,27.3-69.7,74.2-69.7,125.6v86.8
		C279.7,432.6,276,436.2,271.5,436.2z"/>
	<path d="M245.5,505.7h-8.7c-4.5,0-8.1-3.6-8.1-8.1s3.6-8.1,8.1-8.1h8.7c9.9,0,17.9-8,17.9-17.9v-8.7c0-4.5,3.6-8.1,8.1-8.1
		c4.5,0,8.1,3.6,8.1,8.1v8.7C279.7,490.3,264.3,505.7,245.5,505.7z"/>
	<path class="st0" d="M427.8,436.2c-52.3,0-94.9-42.6-94.9-94.9c0-52.3,42.6-94.9,94.9-94.9c15.2,0,30.3,3.7,43.7,10.6
		c4,2.1,5.5,7,3.5,10.9c-2.1,4-7,5.5-10.9,3.5c-11.3-5.9-23.4-8.8-36.2-8.8c-43.4,0-78.7,35.3-78.7,78.7c0,43.4,35.3,78.7,78.7,78.7
		s78.7-35.3,78.7-78.7c0-18.4-6.5-36.3-18.3-50.4c-2.9-3.4-2.4-8.6,1-11.4c3.4-2.9,8.6-2.4,11.4,1c14.2,17,22,38.6,22,60.8
		C522.7,393.7,480.1,436.2,427.8,436.2z"/>
	<path d="M80.6,531.7c-4.5,0-8.1-3.6-8.1-8.1v-26c0-14,11.4-25.5,25.5-25.5h138.9c4.5,0,8.1,3.6,8.1,8.1s-3.6,8.1-8.1,8.1H98
		c-5.1,0-9.2,4.1-9.2,9.2v26C88.7,528.1,85.1,531.7,80.6,531.7z"/>
	<path d="M255,269.3c-1.1,0-2.3-0.2-3.4-0.8l-6.7-3.1c-9-4.2-15.7-12-18.5-21.5c-2.7-9.4-1.3-19.5,3.9-27.7
		c5.7-8.9,12-17.5,18.8-25.5c6.3-7.4,15.5-11.8,25.2-11.9c9.9-0.2,19.3,3.9,26,11.2l3.9,4.3c3,3.3,2.8,8.4-0.5,11.5
		c-3.3,3-8.4,2.8-11.5-0.5l-3.9-4.3c-3.5-3.8-8.5-6-13.7-5.9c-5.2,0.1-9.8,2.3-13.2,6.2c-6.4,7.5-12.3,15.5-17.5,23.8
		c-2.8,4.3-3.5,9.5-2,14.5c1.5,5,5,9.1,9.7,11.3l6.7,3.1c4.1,1.9,5.8,6.7,3.9,10.8C261,267.5,258.1,269.3,255,269.3z"/>
</g>
</svg>
