<?xml version="1.0" encoding="utf-8"?>
<!-- Generator: Adobe Illustrator 26.0.0, SVG Export Plug-In . SVG Version: 6.00 Build 0)  -->
<svg version="1.1" id="Layer_1" xmlns="http://www.w3.org/2000/svg" xmlns:xlink="http://www.w3.org/1999/xlink" x="0px" y="0px"
	 viewBox="0 0 701 703" style="enable-background:new 0 0 701 703;" xml:space="preserve">
<style type="text/css">
	.st0{clip-path:url(#SVGID_00000003784670849032583440000008424255741472267448_);}
	.st1{fill:#FFFFFF;filter:url(#Adobe_OpacityMaskFilter);}
	.st2{mask:url(#mask0_370_147_00000097459818329305903500000005060970854432809902_);}
	.st3{fill:#D90000;}
	.st4{fill:#FFFFFF;filter:url(#Adobe_OpacityMaskFilter_00000142854545957913768710000010270342730906706821_);}
	.st5{mask:url(#mask1_370_147_00000053506384761286766790000012230666723305864890_);}
	.st6{fill:#FFFFFF;filter:url(#Adobe_OpacityMaskFilter_00000034086719086318416240000000291713082498376884_);}
	.st7{mask:url(#mask2_370_147_00000108299276103954030070000002085110124644273539_);}
	.st8{fill:#FFFFFF;filter:url(#Adobe_OpacityMaskFilter_00000011715943609551003200000017013910689822616215_);}
	.st9{mask:url(#mask3_370_147_00000173137265031152835630000016544582132938414775_);}
</style>
<g>
	<defs>
		<rect id="SVGID_1_" width="701" height="703"/>
	</defs>
	<clipPath id="SVGID_00000134972416381964053650000000471916255311040691_">
		<use xlink:href="#SVGID_1_"  style="overflow:visible;"/>
	</clipPath>
	<g style="clip-path:url(#SVGID_00000134972416381964053650000000471916255311040691_);">
		<defs>
			<filter id="Adobe_OpacityMaskFilter" filterUnits="userSpaceOnUse" x="0" y="0" width="701" height="703">
				<feColorMatrix  type="matrix" values="1 0 0 0 0  0 1 0 0 0  0 0 1 0 0  0 0 0 1 0"/>
			</filter>
		</defs>
		
			<mask maskUnits="userSpaceOnUse" x="0" y="0" width="701" height="703" id="mask0_370_147_00000097459818329305903500000005060970854432809902_">
			<path class="st1" d="M701,0H0v703h701V0z"/>
		</mask>
		<g class="st2">
			<path class="st3" d="M349.6,703C543.6,703,701,545.6,701,351.5c0-57.1-14-113.3-40.5-163.8c-3.3-6.1-11-8.3-16.9-5
				c-6,3.3-8.3,10.8-5.2,16.8c24.6,46.9,37.7,99,37.5,152.1c-17.9,432.9-634.8,432.9-652.7,0c-3-242.1,266.1-404.2,478.4-288.9
				c6.1,3.3,13.6,0.9,16.9-5.2c3.3-6.1,0.9-13.7-5.2-16.9C463,13.8,406.7,0,349.6,0C-116.6,19.3-116.6,683.7,349.6,703z"/>
		</g>
		<defs>
			
				<filter id="Adobe_OpacityMaskFilter_00000127757071248144504220000002846099368432561337_" filterUnits="userSpaceOnUse" x="224.9" y="226" width="250.4" height="251.1">
				<feColorMatrix  type="matrix" values="1 0 0 0 0  0 1 0 0 0  0 0 1 0 0  0 0 0 1 0"/>
			</filter>
		</defs>
		
			<mask maskUnits="userSpaceOnUse" x="224.9" y="226" width="250.4" height="251.1" id="mask1_370_147_00000053506384761286766790000012230666723305864890_">
			<path style="fill:#FFFFFF;filter:url(#Adobe_OpacityMaskFilter_00000127757071248144504220000002846099368432561337_);" d="
				M701,0H0v703h701V0z"/>
		</mask>
		<g class="st5">
			<path class="st3" d="M349.6,251.1c10.8,0,21.7,1.7,32,5.3c6.6,2.2,13.6-1.3,16-7.8c5.5-22.3-33.6-21.3-47.9-22.6
				c-166.5,6.9-166.5,244.2,0,251.1c69.3,0,125.4-56.2,125.5-125.5c-1.3-14.6-0.5-53.2-22.6-47.7c-6.6,2.2-10,9.4-7.8,16
				c3.5,10.2,5.2,21,5.2,31.9c-5,133.1-195.8,133.1-200.8,0C249.3,296.1,294.2,251.1,349.6,251.1z"/>
		</g>
		<defs>
			
				<filter id="Adobe_OpacityMaskFilter_00000103244505610788551810000001401399823601804939_" filterUnits="userSpaceOnUse" x="112.3" y="113" width="475.7" height="477">
				<feColorMatrix  type="matrix" values="1 0 0 0 0  0 1 0 0 0  0 0 1 0 0  0 0 0 1 0"/>
			</filter>
		</defs>
		
			<mask maskUnits="userSpaceOnUse" x="112.3" y="113" width="475.7" height="477" id="mask2_370_147_00000108299276103954030070000002085110124644273539_">
			<path style="fill:#FFFFFF;filter:url(#Adobe_OpacityMaskFilter_00000103244505610788551810000001401399823601804939_);" d="
				M701,0H0v703h701V0z"/>
		</mask>
		<g class="st7">
			<path class="st3" d="M469.7,159.9c3.3-6.1,1.1-13.7-4.9-17.1c-35.3-19.5-75-29.8-115.3-29.8c-316.3,13-316.3,464,0,477
				c131.6,0,238.3-106.5,238.5-238.2c0-40.5-10.2-80.2-29.8-115.6c-3.3-6.1-11-8.3-17.1-5c-6.1,3.3-8.3,11-5,17.1c0,0,0,0,0,0.2
				c79.5,137.9-27.3,319.3-186.7,316.5c-117.8-0.2-213.2-95.6-213.4-213.4c-2.5-159.4,178.7-266.3,316.8-186.7
				C458.8,168.1,466.4,166,469.7,159.9z"/>
		</g>
		<defs>
			
				<filter id="Adobe_OpacityMaskFilter_00000027593431345201060780000003898615871023596174_" filterUnits="userSpaceOnUse" x="337.2" y="19.4" width="344.4" height="344.4">
				<feColorMatrix  type="matrix" values="1 0 0 0 0  0 1 0 0 0  0 0 1 0 0  0 0 0 1 0"/>
			</filter>
		</defs>
		
			<mask maskUnits="userSpaceOnUse" x="337.2" y="19.4" width="344.4" height="344.4" id="mask3_370_147_00000173137265031152835630000016544582132938414775_">
			<path style="fill:#FFFFFF;filter:url(#Adobe_OpacityMaskFilter_00000027593431345201060780000003898615871023596174_);" d="
				M701,0H0v703h701V0z"/>
		</mask>
		<g class="st9">
			<path d="M494.2,124.3l4.6,60.3l-158,158c-4.9,5-4.7,13,0.3,17.7c4.9,4.7,12.6,4.7,17.4,0l158.1-158.2l60.2,4.5
				c3.6,0.3,7.2-1.1,9.9-3.6l91.3-91.3c4.9-5,4.7-13-0.3-17.9c-2-2-4.7-3.3-7.7-3.5l-55.2-4.2l-4.2-55.2
				c-0.6-6.9-6.7-12.1-13.8-11.5c-2.8,0.3-5.6,1.6-7.7,3.5l-91.3,91.3C495.3,117.1,494.1,120.7,494.2,124.3z M587.7,60.1
				c5,58.5-4.9,48.2,53.2,53.2L573,181.2l-49.4-3.8l-3.8-49.4L587.7,60.1z"/>
		</g>
	</g>
</g>
</svg>
