<?xml version="1.0" encoding="utf-8"?>
<!-- Generator: Adobe Illustrator 26.0.0, SVG Export Plug-In . SVG Version: 6.00 Build 0)  -->
<svg version="1.1" id="Layer_3" xmlns="http://www.w3.org/2000/svg" xmlns:xlink="http://www.w3.org/1999/xlink" x="0px" y="0px"
	 viewBox="0 0 512 512" style="enable-background:new 0 0 512 512;" xml:space="preserve">
<style type="text/css">
	.st0{fill:#FFFFFF;}
</style>
<g>
	<path class="st0" d="M96,296H64c-4.4,0-8,3.6-8,8v32c0,4.4,3.6,8,8,8h32c4.4,0,8-3.6,8-8v-32C104,299.6,100.4,296,96,296z M88,328
		H72v-16h16V328z"/>
	<path class="st0" d="M96,360H64c-4.4,0-8,3.6-8,8v32c0,4.4,3.6,8,8,8h32c4.4,0,8-3.6,8-8v-32C104,363.6,100.4,360,96,360z M88,392
		H72v-16h16V392z"/>
	<path class="st0" d="M96,424H64c-4.4,0-8,3.6-8,8v32c0,4.4,3.6,8,8,8h32c4.4,0,8-3.6,8-8v-32C104,427.6,100.4,424,96,424z M88,456
		H72v-16h16V456z"/>
	<path class="st0" d="M448,296h-32c-4.4,0-8,3.6-8,8v32c0,4.4,3.6,8,8,8h32c4.4,0,8-3.6,8-8v-32C456,299.6,452.4,296,448,296z
		 M440,328h-16v-16h16V328z"/>
	<path class="st0" d="M96,232H64c-4.4,0-8,3.6-8,8v32c0,4.4,3.6,8,8,8h32c4.4,0,8-3.6,8-8v-32C104,235.6,100.4,232,96,232z M88,264
		H72v-16h16V264z"/>
	<path class="st0" d="M448,232h-32c-4.4,0-8,3.6-8,8v32c0,4.4,3.6,8,8,8h32c4.4,0,8-3.6,8-8v-32C456,235.6,452.4,232,448,232z
		 M440,264h-16v-16h16V264z"/>
	<path class="st0" d="M448,360h-32c-4.4,0-8,3.6-8,8v32c0,4.4,3.6,8,8,8h32c4.4,0,8-3.6,8-8v-32C456,363.6,452.4,360,448,360z
		 M440,392h-16v-16h16V392z"/>
	<path class="st0" d="M336,360h-32c-4.4,0-8,3.6-8,8v32c0,4.4,3.6,8,8,8h32c4.4,0,8-3.6,8-8v-32C344,363.6,340.4,360,336,360z
		 M328,392h-16v-16h16V392z"/>
	<path class="st0" d="M272,360h-32c-4.4,0-8,3.6-8,8v32c0,4.4,3.6,8,8,8h32c4.4,0,8-3.6,8-8v-32C280,363.6,276.4,360,272,360z
		 M264,392h-16v-16h16V392z"/>
	<path class="st0" d="M208,360h-32c-4.4,0-8,3.6-8,8v32c0,4.4,3.6,8,8,8h32c4.4,0,8-3.6,8-8v-32C216,363.6,212.4,360,208,360z
		 M200,392h-16v-16h16V392z"/>
	<path class="st0" d="M344,240c0-4.4-3.6-8-8-8h-32c-4.4,0-8,3.6-8,8v32c0,4.4,3.6,8,8,8h32c4.4,0,8-3.6,8-8V240z M328,264h-16v-16
		h16V264z"/>
	<path class="st0" d="M280,240c0-4.4-3.6-8-8-8h-32c-4.4,0-8,3.6-8,8v32c0,4.4,3.6,8,8,8h32c4.4,0,8-3.6,8-8V240z M264,264h-16v-16
		h16V264z"/>
	<path class="st0" d="M216,240c0-4.4-3.6-8-8-8h-32c-4.4,0-8,3.6-8,8v32c0,4.4,3.6,8,8,8h32c4.4,0,8-3.6,8-8V240z M200,264h-16v-16
		h16V264z"/>
	<path class="st0" d="M344,304c0-4.4-3.6-8-8-8h-32c-4.4,0-8,3.6-8,8v32c0,4.4,3.6,8,8,8h32c4.4,0,8-3.6,8-8V304z M328,328h-16v-16
		h16V328z"/>
	<path class="st0" d="M280,304c0-4.4-3.6-8-8-8h-32c-4.4,0-8,3.6-8,8v32c0,4.4,3.6,8,8,8h32c4.4,0,8-3.6,8-8V304z M264,328h-16v-16
		h16V328z"/>
	<path class="st0" d="M216,304c0-4.4-3.6-8-8-8h-32c-4.4,0-8,3.6-8,8v32c0,4.4,3.6,8,8,8h32c4.4,0,8-3.6,8-8V304z M200,328h-16v-16
		h16V328z"/>
	<path class="st0" d="M448,424h-32c-4.4,0-8,3.6-8,8v32c0,4.4,3.6,8,8,8h32c4.4,0,8-3.6,8-8v-32C456,427.6,452.4,424,448,424z
		 M440,456h-16v-16h16V456z"/>
	<path class="st0" d="M488,488V208c0-4.4-3.6-8-8-8h-8v-24c0-4.4-3.6-8-8-8h-88v-24c0-4.4-3.6-8-8-8h-32v16h24v336h-64v-56
		c0-4.4-3.6-8-8-8h-64c-4.4,0-8,3.6-8,8v56h-64V152h24v-16h-32c-4.4,0-8,3.6-8,8v24H48c-4.4,0-8,3.6-8,8v24h-8c-4.4,0-8,3.6-8,8v280
		H8v16h496v-16H488z M456,184v16h-80v-16H456z M376,216h96v272h-96V216z M232,440h48v48h-48V440z M56,184h80v16H56V184z M40,216h96
		v272H40V216z"/>
	<path class="st0" d="M233.1,164.6l15.3,45.9c1.1,3.3,4.1,5.5,7.6,5.5s6.5-2.2,7.6-5.5l15.3-45.9C312.7,154.5,336,123.7,336,88
		c0-44.1-35.9-80-80-80s-80,35.9-80,80C176,123.7,199.3,154.5,233.1,164.6L233.1,164.6z M256,24c35.3,0,64,28.7,64,64
		c0,29.8-20.2,55.3-49.2,62.2c-2.7,0.6-4.9,2.6-5.7,5.2l-9.1,27.3l-9.1-27.2c-0.9-2.6-3-4.6-5.7-5.2c-29-6.9-49.2-32.5-49.2-62.2
		C192,52.7,220.7,24,256,24z"/>
	<path class="st0" d="M256,136c26.5,0,48-21.5,48-48s-21.5-48-48-48s-48,21.5-48,48S229.5,136,256,136z M256,56
		c17.6,0,32,14.4,32,32s-14.4,32-32,32s-32-14.4-32-32S238.4,56,256,56z"/>
</g>
</svg>
