<?xml version="1.0" encoding="utf-8"?>
<!-- Generator: Adobe Illustrator 26.0.0, SVG Export Plug-In . SVG Version: 6.00 Build 0)  -->
<svg version="1.1" id="Layer_1" xmlns="http://www.w3.org/2000/svg" xmlns:xlink="http://www.w3.org/1999/xlink" x="0px" y="0px"
	 viewBox="0 0 512 512" style="enable-background:new 0 0 512 512;" xml:space="preserve">
<style type="text/css">
	.st0{fill-rule:evenodd;clip-rule:evenodd;fill:#FFFFFF;}
</style>
<g id="Layer_x0020_1">
	<g id="_2508875492464">
		<g>
			<g id="_208852104">
				<path class="st0" d="M410.7,511.9h-294c-23.9,0-43.3-19.4-43.3-43.3V250.8c0-7.8,8.2-21.3,67.8-66.9
					c36.5-27.9,80.4-58.7,109.4-79.1c8-5.6,14.9-10.5,20.3-14.3c9-6.4,29.4-9.2,66.2-9.2c17,0,34.8,0.6,49.1,1.1
					c10,0.4,18.7,0.7,24.5,0.7c23.9,0,43.3,19.4,43.3,43.3v342.2C454,492.5,434.6,511.9,410.7,511.9z M85.4,250.9v217.7
					c0,17.3,14.1,31.3,31.3,31.3h294c17.3,0,31.3-14.1,31.3-31.3V126.4c0-17.3-14.1-31.3-31.3-31.3c-6,0-14.7-0.3-24.9-0.7
					c-14.2-0.5-31.8-1.1-48.6-1.1c-40.8,0-54.8,3.8-59.3,7c-5.4,3.8-12.3,8.7-20.3,14.3c-28.5,20-71.6,50.2-107.6,77.7
					c-19.7,15-35.2,27.7-46,37.5C87,245.3,85.5,250.2,85.4,250.9L85.4,250.9z"/>
			</g>
			<g id="_208853352">
				<path class="st0" d="M408.5,95C408.5,95,408.5,95,408.5,95c-5.9-0.1-13.7-0.3-22.7-0.7c-14.2-0.5-31.8-1.1-48.6-1.1
					c-10.4,0-19.3,0.2-27,0.7c-1.6,0.1-3.3-0.5-4.5-1.6c-1.2-1.1-1.9-2.7-1.9-4.4V46.9c0-14.3,11.7-26,26-26h58.7
					c14.4,0,26,11.7,26,26V89c0,1.6-0.6,3.1-1.8,4.3C411.6,94.4,410.1,95,408.5,95L408.5,95z M337.2,81.2c17,0,34.8,0.6,49,1.2
					c6.1,0.2,11.6,0.4,16.3,0.5V46.9c0-7.7-6.3-14-14-14h-58.7c-7.7,0-14,6.3-14,14v34.8C322.2,81.4,329.2,81.2,337.2,81.2z"/>
			</g>
			<g id="_208853376">
				<path class="st0" d="M165.9,257.8c-6.7,0-13.1-3.2-17-8.5c0,0,0,0,0-0.1c-3.4-4.5-4.7-10.1-3.9-15.7c0.9-5.6,3.8-10.5,8.3-13.9
					l111.4-82.2c3.6-2.7,8-4.1,12.5-4.1c6.7,0,13,3.2,17,8.5c0,0,0,0.1,0.1,0.1c6.9,9.4,4.9,22.7-4.5,29.6l-111.4,82.2
					C174.8,256.4,170.5,257.8,165.9,257.8L165.9,257.8z M158.5,242C158.5,242,158.5,242.1,158.5,242c1.7,2.4,4.5,3.7,7.4,3.7
					c2,0,3.8-0.6,5.4-1.8l111.4-82.2c4-3,4.9-8.7,2-12.8c0,0,0-0.1,0-0.1c-1.7-2.3-4.5-3.7-7.4-3.7c-2,0-3.8,0.6-5.4,1.8
					l-111.4,82.2c-2,1.4-3.2,3.6-3.6,6C156.5,237.7,157.1,240.1,158.5,242L158.5,242z"/>
			</g>
			<g id="_208853496">
				<path class="st0" d="M86.8,164.5c-15.9,0-28.8-12.9-28.8-28.9c0-11.4,10.6-25.3,19.2-36.6c1.8-2.3,3.5-4.6,4.8-6.4
					c1.1-1.6,2.9-2.5,4.9-2.5c1.9,0,3.8,0.9,4.9,2.5c1.3,1.8,3,4,4.8,6.4c8.6,11.2,19.2,25.2,19.2,36.6
					C115.7,151.6,102.8,164.5,86.8,164.5z M86.8,106.2c0,0-0.1,0.1-0.1,0.2c-6.3,8.2-16.8,22-16.8,29.3c0,9.3,7.6,16.9,16.9,16.9
					s16.9-7.6,16.9-16.9c0-7.3-10.5-21.1-16.7-29.3C86.9,106.3,86.9,106.3,86.8,106.2z"/>
			</g>
			<g id="_208853592">
				<path class="st0" d="M176.2,108.7c-20.7,0-37.6-16.8-37.6-37.5c0-14.9,14.4-33.9,26-49.1c2.5-3.3,4.8-6.3,6.6-8.9
					c1.1-1.6,2.9-2.5,4.9-2.5c1.9,0,3.8,0.9,4.9,2.5c1.8,2.5,4.1,5.6,6.6,8.9c11.6,15.2,26,34.2,26,49.1
					C213.7,91.9,196.9,108.7,176.2,108.7L176.2,108.7z M176.2,26.7c-0.6,0.9-1.3,1.7-2,2.6c-9.4,12.3-23.6,30.9-23.6,41.8
					c0,14.1,11.5,25.5,25.6,25.5s25.6-11.5,25.6-25.6c0-10.9-14.2-29.5-23.6-41.8C177.5,28.5,176.8,27.6,176.2,26.7L176.2,26.7z"/>
			</g>
			<g>
				<g id="_208853064">
					<path class="st0" d="M263.7,474.6c-63,0-114.3-51.3-114.3-114.3S200.7,246,263.7,246c63,0,114.3,51.3,114.3,114.3
						C378,423.3,326.7,474.6,263.7,474.6z M263.7,258c-56.4,0-102.3,45.9-102.3,102.3s45.9,102.3,102.3,102.3S366,416.7,366,360.3
						S320.1,258,263.7,258z"/>
				</g>
				<g id="_208853544">
					<path class="st0" d="M263.7,429.8c-29,0-52.6-23.6-52.6-52.6c0-21.1,21-48.7,37.9-70.8c3.7-4.8,7.2-9.4,9.9-13.2
						c1.1-1.6,3-2.5,4.9-2.5c2,0,3.8,0.9,4.9,2.5c2.7,3.8,6.2,8.4,9.9,13.2c16.9,22.1,37.9,49.7,37.9,70.8
						C316.3,406.2,292.7,429.8,263.7,429.8L263.7,429.8z M263.7,306.8c-1.6,2.2-3.4,4.5-5.2,6.9c-14.1,18.5-35.4,46.5-35.4,63.5
						c0,22.4,18.2,40.6,40.6,40.6c22.4,0,40.6-18.2,40.6-40.6c0-17-21.3-45-35.4-63.5C267.1,311.3,265.3,309,263.7,306.8z"/>
				</g>
			</g>
			<g id="_208853304">
				<path class="st0" d="M98,74.4c-15.9,0-28.8-13-28.8-28.9c0-11.4,10.6-25.3,19.2-36.6c1.8-2.3,3.5-4.6,4.8-6.4
					C94.3,1,96.1,0.1,98,0.1c1.9,0,3.8,0.9,4.9,2.5c1.3,1.8,3,4,4.8,6.4c8.6,11.2,19.2,25.2,19.2,36.6C126.9,61.5,114,74.4,98,74.4z
					 M98,16.1c0,0-0.1,0.1-0.1,0.1c-6.3,8.2-16.8,22-16.8,29.3c0,9.3,7.6,16.8,16.9,16.8c9.3,0,16.9-7.6,16.9-16.8
					c0-7.3-10.5-21.1-16.7-29.3C98.1,16.2,98.1,16.2,98,16.1z"/>
			</g>
			<g id="_208853568">
				<path class="st0" d="M418.9,300.3c-3.3,0-6-2.7-6-6V132.4c0-3.3,2.7-6,6-6c3.3,0,6,2.7,6,6v161.9
					C424.9,297.6,422.2,300.3,418.9,300.3z"/>
			</g>
			<g id="_208854360">
				<path class="st0" d="M391.9,263.6c-3.3,0-6-2.7-6-6V169c0-3.3,2.7-6,6-6c3.3,0,6,2.7,6,6v88.7
					C397.9,261,395.2,263.6,391.9,263.6z"/>
			</g>
		</g>
	</g>
</g>
</svg>
