<?xml version="1.0" encoding="utf-8"?>
<!-- Generator: Adobe Illustrator 26.0.0, SVG Export Plug-In . SVG Version: 6.00 Build 0)  -->
<svg version="1.1" id="Layer_3" xmlns="http://www.w3.org/2000/svg" xmlns:xlink="http://www.w3.org/1999/xlink" x="0px" y="0px"
	 viewBox="0 0 512 512" style="enable-background:new 0 0 512 512;" xml:space="preserve">
<style type="text/css">
	.st0{fill:#FFFFFF;}
</style>
<path class="st0" d="M489,147.8h-36.9l-190.3-131c-3.5-2.4-8-2.4-11.5,0l-190.3,131H23c-5.6,0-10.1,4.5-10.1,10.1v43.9
	c0,5.6,4.5,10.1,10.1,10.1h12.7v278.3c0,5.6,4.5,10.1,10.1,10.1S56,496,56,490.4V201.9c0-5.6-4.5-10.1-10.1-10.1H33.2v-23.7h29.9
	h385.9h29.9v23.7h-12.7c-5.6,0-10.1,4.5-10.1,10.1v288.5c0,5.6,4.5,10.1,10.1,10.1c5.6,0,10.1-4.5,10.1-10.1V212H489
	c5.6,0,10.1-4.5,10.1-10.1V158C499.1,152.4,494.6,147.8,489,147.8z M95.6,147.8L256,37.4l160.4,110.4H95.6z"/>
<path class="st0" d="M222.7,99.1c0,18.4,15,33.3,33.3,33.3s33.3-15,33.3-33.3s-15-33.3-33.3-33.3S222.7,80.7,222.7,99.1z
	 M269.1,99.1c0,7.2-5.9,13.1-13.1,13.1c-7.2,0-13.1-5.9-13.1-13.1c0-7.2,5.9-13.1,13.1-13.1C263.2,86,269.1,91.8,269.1,99.1z"/>
<path class="st0" d="M174,297.7l-44-44c-2.4-2.4-6-3.5-9.3-2.7c-3.4,0.7-6.1,3.1-7.3,6.4c-12.9,34.7-4.4,73.9,21.7,100.1
	c18.4,18.4,42.7,27.7,66.9,27.7c9.1,0,18.1-1.3,26.9-3.9l98.6,98.6c8.5,8.5,19.8,13.2,31.9,13.2h0c12.1,0,23.4-4.7,31.9-13.2
	c17.6-17.6,17.6-46.3,0-63.9l-98.6-98.6c9.5-32.2,1.5-68.4-23.8-93.8c-26.2-26.2-65.4-34.7-100.1-21.7c-3.2,1.2-5.6,4-6.3,7.3
	c-0.7,3.4,0.3,6.9,2.7,9.3l44,44l-6.1,29.2L174,297.7z M377.1,430.3c9.7,9.7,9.7,25.5,0,35.2c-4.7,4.7-11,7.3-17.6,7.3c0,0,0,0,0,0
	c-6.7,0-12.9-2.6-17.6-7.3l-92.9-92.9c7.2-4.1,13.9-9.1,20-15.2c6.1-6.1,11.1-12.9,15.2-20L377.1,430.3z M227.5,252l-35.3-35.3
	c22.6-3,45.9,4.6,62.4,21.1c29,29,29,76.2,0,105.2c-29,29-76.2,29-105.2,0c-16.5-16.5-24.1-39.8-21.1-62.4l35.3,35.3
	c2.4,2.4,5.9,3.5,9.2,2.8l41.1-8.5c4-0.8,7-3.9,7.9-7.9l8.5-41C230.9,257.9,229.9,254.4,227.5,252z"/>
</svg>
