<?xml version="1.0" encoding="utf-8"?>
<!-- Generator: Adobe Illustrator 26.0.0, SVG Export Plug-In . SVG Version: 6.00 Build 0)  -->
<svg version="1.1" id="Capa_1" xmlns="http://www.w3.org/2000/svg" xmlns:xlink="http://www.w3.org/1999/xlink" x="0px" y="0px"
	 viewBox="0 0 512 512" style="enable-background:new 0 0 512 512;" xml:space="preserve">
<style type="text/css">
	.st0{fill:#D90000;}
</style>
<g>
	<path class="st0" d="M391.9,331.8v-34.3c0-3.3-2.7-6-6-6c-3.3,0-6,2.7-6,6v34.3c-33.2,3.1-59.2,31-59.2,65
		c0,21.9,10.9,41.3,27.5,53.2h-58.2c-15.3,0-29.7-6.7-39.4-18.5c-9.8-11.8-13.8-27.1-10.9-42.2l11.4-60.9h63.7
		c12.2,0,22.2-9.9,22.2-22.2v-80c8.2-1.9,16.7-3,25.4-3c9.7,0,17.6,7.9,17.6,17.6v32.4c0,3.3,2.7,6,6,6s6-2.7,6-6v-32.4
		c0-12.1-7.3-22.5-17.7-27.2v-32.1c0-3.3-2.7-6-6-6h-0.1V94.2c0-24.4-19.8-44.2-44.2-44.2c-17.4,0-33.3,10.3-40.4,26.2l-34.4,77
		c-1.4,3,0,6.6,3.1,8c3,1.4,6.6,0,8-3.1l34.4-77c5.2-11.6,16.7-19,29.3-19c17.7,0,32.1,14.4,32.1,32.1v81.3h-12.1V94.2
		c0-11.1-9-20-20-20c-7.9,0-15.1,4.7-18.3,11.9L167.4,395.2h-13.2l96.1-215c1.4-3,0-6.6-3.1-8c-3.1-1.4-6.6,0-8,3.1l-98.3,220h-3.3
		c-7.8,0-14.1,6.3-14.1,14.1V422h-20.5c-19.8,0-37,13.4-42,32.5c-0.5,1.8-0.1,3.7,1.1,5.2c1.1,1.5,2.9,2.3,4.8,2.3H162
		c3.3,0,6-2.7,6-6s-2.7-6-6-6H75.8c5.5-9.6,15.8-15.9,27.2-15.9h102.5c8.7,0,16.2,5.8,18.4,14.2l0.4,1.6h-38.2c-3.3,0-6,2.7-6,6
		s2.7,6,6,6h46c1.9,0,3.6-0.9,4.8-2.3s1.5-3.4,1.1-5.2l-2.4-9.2c-3.6-13.7-15.9-23.3-30.1-23.3h-13.3v-12.6
		c0-6.9-5.1-12.7-11.7-13.9L316.6,91c1.3-2.9,4.1-4.7,7.3-4.7c4.4,0,7.9,3.6,7.9,7.9v81.3h-1c-3.3,0-6,2.7-6,6v35.4
		c-41.8,13.5-74.4,48.9-82.9,94L227.6,387c-3.5,18.6,1.4,37.6,13.5,52.1c12.1,14.5,29.8,22.9,48.7,22.9h96c36,0,65.3-29.3,65.3-65.3
		C451.1,362.8,425.1,334.8,391.9,331.8z M135.7,422v-12.6c0-1.1,0.9-2,2-2h40.5c1.1,0,2,0.9,2,2V422H135.7z M336.8,187.6h25.3v23.5
		c-8.7,0-17.1,0.9-25.3,2.7V187.6z M324.7,229.7v76.4c0,5.6-4.5,10.1-10.1,10.1h-61.5l0.6-3C261.1,273.9,288.8,242.7,324.7,229.7
		L324.7,229.7z M385.9,449.9c-29.3,0-53.2-23.9-53.2-53.2s23.9-53.2,53.2-53.2c29.3,0,53.2,23.9,53.2,53.2S415.2,449.9,385.9,449.9z
		"/>
	<path d="M385.9,369.6c-15,0-27.2,12.2-27.2,27.2c0,15,12.2,27.2,27.2,27.2c15,0,27.2-12.2,27.2-27.2S400.8,369.6,385.9,369.6z
		 M385.9,411.8c-8.3,0-15.1-6.8-15.1-15.1c0-8.3,6.8-15.1,15.1-15.1c8.3,0,15.1,6.8,15.1,15.1C400.9,405.1,394.2,411.8,385.9,411.8z
		"/>
</g>
<g>
	<path class="st0" d="M-242.3,317.2c-71.5,0-129.6-58.1-129.6-129.6S-313.8,58-242.3,58c71.5,0,129.6,58.1,129.6,129.6
		S-170.8,317.2-242.3,317.2z M-242.3,74.2c-62.5,0-113.4,50.9-113.4,113.4c0,62.5,50.9,113.4,113.4,113.4s113.4-50.9,113.4-113.4
		C-128.9,125.1-179.8,74.2-242.3,74.2z"/>
	<path d="M-246.6,386.6h-160.6c-18.8,0-34.2-15.3-34.2-34.2V191.9c0-53.2,20.2-103.6,56.9-142c37-38.8,86.4-60.5,139.1-61.3l0,0
		c1,0,2.1,0,3.1,0c53.2,0,103,20.6,140.7,58.3c38.4,38.4,59.1,89.5,58.3,143.8c-0.8,52.7-22.6,102.1-61.3,139.1
		C-143,366.4-193.5,386.6-246.6,386.6z M-245.1,4.8c-99.2,1.5-180,85.4-180,187.1v160.6c0,9.9,8,17.9,17.9,17.9h160.6
		c101.7,0,185.6-80.7,187.1-180c0.8-49.9-18.2-96.8-53.5-132.1C-148.3,23.1-195.3,4-245.1,4.8L-245.1,4.8z"/>
	<path d="M-398.5,282.5c-4.5,0-8.1-3.6-8.1-8.1v-86.8c0-57,28.9-109.1,77.4-139.3c7.6-4.8,10.5-14.2,6.9-22.4l-3.9-9
		c-1.8-4.1,0.1-8.9,4.2-10.7c4.1-1.8,8.9,0.1,10.7,4.2l3.9,9c6.8,15.4,1.1,33.7-13.2,42.7c-43.7,27.3-69.7,74.2-69.7,125.6v86.8
		C-390.4,278.9-394,282.5-398.5,282.5z"/>
	<path d="M-424.5,351.9h-8.7c-4.5,0-8.1-3.6-8.1-8.1s3.6-8.1,8.1-8.1h8.7c9.9,0,17.9-8,17.9-17.9v-8.7c0-4.5,3.6-8.1,8.1-8.1
		c4.5,0,8.1,3.6,8.1,8.1v8.7C-390.4,336.6-405.7,351.9-424.5,351.9z"/>
	<path class="st0" d="M-242.3,282.5c-52.3,0-94.9-42.6-94.9-94.9c0-52.3,42.6-94.9,94.9-94.9c15.2,0,30.3,3.7,43.7,10.6
		c4,2.1,5.5,7,3.5,10.9c-2.1,4-7,5.5-10.9,3.5c-11.3-5.9-23.4-8.8-36.2-8.8c-43.4,0-78.7,35.3-78.7,78.7c0,43.4,35.3,78.7,78.7,78.7
		s78.7-35.3,78.7-78.7c0-18.4-6.5-36.3-18.3-50.4c-2.9-3.4-2.4-8.6,1-11.4c3.4-2.9,8.6-2.4,11.4,1c14.2,17,22,38.6,22,60.8
		C-147.4,239.9-190,282.5-242.3,282.5z"/>
	<path d="M-589.4,377.9c-4.5,0-8.1-3.6-8.1-8.1v-26c0-14,11.4-25.5,25.5-25.5h138.9c4.5,0,8.1,3.6,8.1,8.1s-3.6,8.1-8.1,8.1h-138.9
		c-5.1,0-9.2,4.1-9.2,9.2v26C-581.3,374.3-584.9,377.9-589.4,377.9z"/>
	<path d="M-415,115.5c-1.1,0-2.3-0.2-3.4-0.8l-6.7-3.1c-9-4.2-15.7-12-18.5-21.5c-2.7-9.4-1.3-19.5,3.9-27.7
		c5.7-8.9,12-17.5,18.8-25.5c6.3-7.4,15.5-11.8,25.2-11.9c9.9-0.2,19.3,3.9,26,11.2l3.9,4.3c3,3.3,2.8,8.4-0.5,11.5
		c-3.3,3-8.4,2.8-11.5-0.5l-3.9-4.3c-3.5-3.8-8.5-6-13.7-5.9c-5.2,0.1-9.8,2.3-13.2,6.2c-6.4,7.5-12.3,15.5-17.5,23.8
		c-2.8,4.3-3.5,9.5-2,14.5c1.5,5,5,9.1,9.7,11.3l6.7,3.1c4.1,1.9,5.8,6.7,3.9,10.8C-409,113.8-412,115.5-415,115.5z"/>
</g>
<path d="M385.9,326.6c-38.7,0-70.1,31.5-70.1,70.1c0,38.7,31.5,70.1,70.1,70.1s70.1-31.5,70.1-70.1S424.5,326.6,385.9,326.6z
	 M385.9,435.7c-21.5,0-38.9-17.5-38.9-38.9s17.5-38.9,38.9-38.9c21.5,0,38.9,17.5,38.9,38.9C424.8,418.2,407.3,435.7,385.9,435.7z"
	/>
</svg>
