<svg width="704" height="704" viewBox="0 0 704 704" fill="none" xmlns="http://www.w3.org/2000/svg">
<g clip-path="url(#clip0_1325_2)">
<mask id="mask0_1325_2" style="mask-type:luminance" maskUnits="userSpaceOnUse" x="0" y="0" width="704" height="704">
<path d="M0 0H704V704H0V0Z" fill="white"/>
</mask>
<g mask="url(#mask0_1325_2)">
<path d="M276.87 271.659C274.739 270.284 272.208 269.5 269.5 269.5C261.91 269.5 255.75 275.66 255.75 283.25C255.75 286.852 257.138 290.139 259.408 292.586C261.924 295.309 265.512 297 269.5 297C277.089 297 283.25 290.84 283.25 283.25C283.25 278.369 280.707 274.092 276.87 271.659Z" fill="#D90000"/>
<path d="M352 13.75V104.5" stroke="black" stroke-width="26.6667" stroke-linecap="round" stroke-linejoin="round"/>
<path d="M352 599.5V690.25" stroke="black" stroke-width="26.6667" stroke-linecap="round" stroke-linejoin="round"/>
<path d="M91.1489 118.649L149.49 176.99" stroke="black" stroke-width="26.6667" stroke-linecap="round" stroke-linejoin="round"/>
<path d="M554.51 540.76L612.851 599.101" stroke="black" stroke-width="26.6667" stroke-linecap="round" stroke-linejoin="round"/>
<path d="M612.851 118.649L554.51 176.99" stroke="black" stroke-width="26.6667" stroke-linecap="round" stroke-linejoin="round"/>
<path d="M149.49 540.76L91.1484 599.101" stroke="black" stroke-width="26.6667" stroke-linecap="round" stroke-linejoin="round"/>
<path d="M654.5 352C654.5 352 534.256 530.75 352 530.75C169.744 530.75 49.5 352 49.5 352C49.5 352 169.744 173.25 352 173.25C534.256 173.25 654.5 352 654.5 352Z" stroke="black" stroke-width="26.6667" stroke-linecap="round" stroke-linejoin="round"/>
<path d="M312.689 249.232C313.183 249.04 313.679 248.861 314.174 248.682C314.723 248.476 315.274 248.284 315.824 248.091C316.319 247.912 316.814 247.747 317.323 247.582C317.969 247.362 318.643 247.142 319.303 246.936C320.155 246.675 321.008 246.414 321.874 246.18C322.713 245.932 323.565 245.699 324.431 245.479C325.339 245.245 326.245 245.025 327.154 244.819C328.006 244.626 328.845 244.434 329.698 244.269C330.385 244.117 331.073 243.98 331.774 243.856C332.379 243.746 332.984 243.636 333.589 243.54C333.918 243.471 334.261 243.416 334.605 243.375C335.225 243.265 335.844 243.182 336.463 243.1C336.628 243.072 336.779 243.045 336.944 243.031C337.466 242.949 338.003 242.88 338.539 242.811C339.116 242.742 339.694 242.674 340.271 242.619L341.096 242.536C341.688 242.467 342.293 242.412 342.884 242.371C343.199 242.344 343.516 242.316 343.831 242.302C344.23 242.261 344.644 242.234 345.043 242.22C345.634 242.179 346.238 242.151 346.83 242.124C347.6 242.082 348.37 242.055 349.154 242.041C350.089 242.014 351.05 242 352 242C412.748 242 462 291.252 462 352C462 370.989 457.188 388.85 448.718 404.429C447.879 405.969 447.011 407.495 446.105 408.98C445.636 409.764 445.156 410.52 444.66 411.29C443.781 412.665 442.874 414.012 441.939 415.346C441.843 415.483 441.745 415.607 441.65 415.745C439.643 418.577 437.498 421.314 435.214 423.926C433.495 425.92 431.695 427.859 429.824 429.729C428.134 431.42 426.386 433.07 424.586 434.637C417.038 441.278 408.581 446.902 399.41 451.275C397.898 452.004 396.37 452.691 394.816 453.351C391.531 454.74 388.149 455.977 384.711 457.05C381.26 458.122 377.754 459.03 374.165 459.758C367.001 461.23 359.589 462 352 462C291.253 462 242 412.747 242 352C242 351.051 242.014 350.102 242.041 349.167C242.055 348.397 242.081 347.641 242.124 346.871C242.151 346.156 242.191 345.441 242.234 344.74C242.248 344.534 242.261 344.327 242.275 344.121C242.33 343.461 242.37 342.801 242.44 342.141C242.454 341.976 242.468 341.825 242.48 341.66C242.55 340.876 242.633 340.092 242.729 339.322V339.295C242.824 338.47 242.921 337.645 243.045 336.82C243.128 336.201 243.21 335.582 243.32 334.964C243.43 334.139 243.566 333.341 243.719 332.53C243.745 332.31 243.788 332.104 243.829 331.884" stroke="#D90000" stroke-width="26.6667" stroke-linecap="round" stroke-linejoin="round"/>
<path d="M352 393.25C329.257 393.25 310.75 374.743 310.75 352C310.75 329.257 329.257 310.75 352 310.75C374.743 310.75 393.25 329.257 393.25 352C393.25 374.743 374.743 393.25 352 393.25Z" stroke="#D90000" stroke-width="26.6667" stroke-linecap="round" stroke-linejoin="round"/>
</g>
</g>
<defs>
<clipPath id="clip0_1325_2">
<rect width="704" height="704" fill="white"/>
</clipPath>
</defs>
</svg>
